<svg width="448" height="265" viewBox="0 0 448 265" fill="none" xmlns="http://www.w3.org/2000/svg">
<path opacity="0.85" d="M3.00615 64.8074C10.6055 67.7453 18.9477 68.7668 26.8515 68.2155C35.3465 67.6292 43.6731 65.8061 51.9392 63.9838C60.3974 62.1183 68.9042 60.1641 77.5855 59.4321C86.042 58.7205 94.4531 59.4876 102.619 61.6344C118.236 65.7404 132.371 76.057 135.978 91.3063C139.396 105.791 131.904 119.624 123.919 131.581C119.88 137.629 115.507 143.48 111.624 149.617C111.186 150.314 110.75 151.007 110.327 151.71C110.385 151.613 109.483 153.144 109.867 152.477C110.253 151.817 109.383 153.343 109.434 153.249C108.573 154.784 107.762 156.341 107.015 157.933C106.325 159.4 105.695 160.899 105.147 162.416C104.895 163.13 104.655 163.842 104.438 164.557C104.316 164.954 104.199 165.353 104.095 165.751C103.99 166.138 104.011 166.073 104.15 165.559C104.073 165.877 104.001 166.197 103.934 166.52C103.64 167.96 103.436 169.415 103.338 170.875C103.285 171.688 103.266 172.506 103.279 173.32C103.277 173.09 103.194 172.375 103.289 173.412C103.336 173.909 103.373 174.402 103.433 174.897C103.887 178.628 104.948 181.677 107.039 185.009C110.846 191.082 118.098 196.273 124.898 199.3C132.88 202.854 141.667 205.054 150.393 203.82C159.259 202.568 165.867 197.355 172.89 192.43C181 186.737 189.569 182.68 199.463 180.377C208.914 178.173 219.131 177.564 228.769 178.996C246.476 181.632 263.766 192.033 269.257 208.538C272.21 217.437 271.719 226.693 271.697 235.889C271.686 240.034 271.85 244.092 272.686 248.238C272.845 249.031 273.024 249.82 273.241 250.605C273.348 251.028 273.471 251.445 273.6 251.859C273.898 252.797 273.147 250.745 273.759 252.29C274.397 253.917 275.05 255.521 275.86 257.081C277.474 260.187 278.798 262.086 281.439 265.062C282.517 266.276 283.672 267.423 284.847 268.55C286.109 269.757 284.418 268.191 285.201 268.871C285.545 269.172 285.892 269.468 286.245 269.761C286.954 270.343 287.68 270.913 288.419 271.466C289.899 272.567 291.44 273.606 293.035 274.575C293.673 274.964 294.317 275.338 294.971 275.705C295.459 275.979 295.956 276.245 296.455 276.506C295.571 276.041 296.939 276.745 297.114 276.83C300.336 278.366 303.704 279.637 307.166 280.607C308.075 280.863 308.995 281.096 309.917 281.306C308.907 281.075 310.105 281.346 310.351 281.389C310.814 281.475 311.28 281.568 311.74 281.648C313.591 281.967 315.46 282.197 317.339 282.33C319.018 282.453 320.707 282.507 322.392 282.471C321.26 282.492 323.096 282.426 323.138 282.424C323.514 282.402 323.887 282.372 324.254 282.341C325.275 282.253 326.296 282.137 327.307 281.988C334.971 280.867 341.414 277.743 347.429 272.744C348.902 271.517 349.914 270.594 350.992 269.494C352.463 267.998 353.853 266.434 355.177 264.825C357.832 261.609 360.22 258.208 362.419 254.713C362.907 253.938 363.386 253.155 363.853 252.373C364.438 251.393 363.218 253.491 364.184 251.805C364.385 251.463 364.582 251.115 364.78 250.767C365.846 248.882 366.88 246.974 367.85 245.044C369.952 240.883 371.884 236.534 372.398 231.926C372.809 228.224 372.183 224.66 370.293 221.701C369.456 220.394 368.218 219.144 367.065 218.372C365.656 217.419 364.538 217.043 363.02 216.893C361.652 216.758 362.398 216.728 361.049 216.895C360.669 216.944 360.293 217.011 359.917 217.078C358.168 217.37 360.366 216.892 359.37 217.179C357.204 217.814 356.072 218.476 354.624 219.495C353.967 219.953 353.338 220.443 352.735 220.959C351.78 221.774 352.039 221.526 351.181 222.47C350.505 223.205 349.875 223.974 349.289 224.769C349.055 225.088 348.827 225.408 348.609 225.732C348.569 225.785 347.669 227.239 348.12 226.451C343.885 233.745 342.792 242.175 344.515 250.256C346.144 257.908 350.756 264.842 356.858 269.763C358.493 271.086 360.229 272.306 362.051 273.395C363.939 274.524 365.14 275.108 367.295 275.941C371.074 277.408 374.916 278.346 378.753 278.043C387.364 277.364 394.313 272.446 400.682 267.071C406.779 261.917 412.173 255.481 416.446 248.562C418.163 245.782 420.147 241.864 421.649 238.355C423.264 234.585 424.62 230.716 425.723 226.792C429.931 211.818 430.187 194.982 427.379 179.369C425.885 171.052 423.588 163.62 420.583 155.852C417.205 147.137 413.515 138.16 412.942 128.821C412.144 115.803 416.387 101.065 425.037 90.6844C429.455 85.379 435.322 81.32 442.491 79.9885C449.758 78.6364 451.594 89.1672 444.353 90.5123C443.884 90.6018 443.423 90.7 442.963 90.8097C443.184 90.7545 443.991 90.4447 443.018 90.807C442.288 91.0771 441.559 91.3308 440.853 91.6596C440.497 91.823 440.155 91.9969 439.811 92.1757C439.013 92.5947 440.865 91.4408 439.653 92.2814C438.944 92.7765 438.222 93.2448 437.545 93.7792C436.983 94.226 436.447 94.6937 435.924 95.1767C436.785 94.3844 435.173 95.9917 434.927 96.2668C433.711 97.6413 432.619 99.1099 431.628 100.637C431.446 100.918 431.273 101.208 431.089 101.494C430.219 102.874 431.398 100.918 430.922 101.78C430.508 102.537 430.107 103.292 429.724 104.059C428.923 105.693 428.207 107.357 427.572 109.055C426.976 110.661 426.445 112.296 425.987 113.946C425.895 114.27 425.808 114.596 425.722 114.923C425.981 113.916 425.713 114.987 425.662 115.242C425.471 116.127 425.276 117.006 425.113 117.896C424.57 120.888 424.399 123.85 424.28 126.875C424.222 128.238 424.16 125.767 424.28 127.093C424.302 127.346 424.311 127.6 424.331 127.858C424.414 128.937 424.558 130.014 424.724 131.083C425.112 133.563 425.691 136.017 426.386 138.439C428.943 147.381 433.058 155.867 435.685 164.8C445.328 197.591 441.985 236.292 419.215 263.949C407.775 277.844 389.832 292.214 369.671 287.797C350.494 283.601 335.248 267.401 332.714 249.348C331.338 239.595 333.224 229.478 338.423 220.881C342.674 213.855 350.298 207.459 359.181 206.369C369.559 205.092 378.808 211.428 382.219 220.366C385.995 230.243 382.926 240.402 378.239 249.521C370.442 264.69 359.976 280.242 343.437 288.241C328.805 295.316 310.593 294.225 295.845 288.057C281.329 281.995 268.419 270.893 263.267 256.639C260.072 247.8 260.229 238.658 260.312 229.445C260.383 221.222 260.069 212.872 255.397 205.677C255.746 206.214 255.037 205.181 254.961 205.075C254.662 204.662 254.36 204.259 254.038 203.86C253.407 203.061 252.739 202.293 252.037 201.548C250.61 200.042 249.834 199.347 248.022 197.988C244.412 195.282 241.433 193.709 237.386 192.191C229.291 189.143 220.423 188.32 211.276 189.249C202.159 190.177 192.7 192.679 185.201 197.329C177.051 202.377 169.863 208.995 160.562 212.279C141.47 219.012 118.466 211.541 104.338 198.762C97.8165 192.861 93.1341 185.11 92.0943 176.625C91.2056 169.331 92.7701 162.046 95.7545 155.293C98.8111 148.366 103.124 141.93 107.48 135.654C109.615 132.576 111.786 129.512 113.889 126.411C114.929 124.879 115.951 123.335 116.938 121.773C117.376 121.076 117.808 120.376 118.236 119.675C118.361 119.474 118.954 118.458 118.465 119.294C118.736 118.827 119.001 118.358 119.267 117.889C121.004 114.77 122.546 111.543 123.695 108.192C123.942 107.477 124.15 106.753 124.376 106.031C124.857 104.473 124.182 107.083 124.514 105.494C124.58 105.172 124.66 104.849 124.721 104.525C125.076 102.749 125.294 100.953 125.348 99.148C125.359 98.8171 125.357 98.4873 125.36 98.1594C125.383 96.5892 125.417 98.7486 125.35 97.8045C125.293 97.0537 125.224 96.304 125.118 95.5578C124.836 93.6338 124.393 91.8978 123.943 90.7335C122.532 87.108 121.357 85.3403 118.737 82.534C118.123 81.8807 117.481 81.2395 116.812 80.6333C117.456 81.2137 116.766 80.6001 116.658 80.5116C116.223 80.1674 115.803 79.8171 115.367 79.4777C113.894 78.3457 112.331 77.3155 110.706 76.3751C110.21 76.0926 109.71 75.8199 109.205 75.5453C109.077 75.4774 108.205 75.0558 109.016 75.4501C108.145 75.0286 107.265 74.6266 106.369 74.2518C104.465 73.4516 102.511 72.7565 100.528 72.1624C93.8545 70.1676 85.3032 69.3618 78.203 70.0762C60.5216 71.8618 43.6677 78.2365 25.8196 78.8975C16.5801 79.2357 7.48073 78.0843 -1.10379 74.768C-3.96814 73.6596 -5.54608 70.6274 -4.41223 67.8795C-3.32253 65.2386 0.131343 63.6953 3.00615 64.8074Z" fill="#E29134"/>
<path opacity="0.85" d="M3.50524 81.2023C21.6291 77.3837 24.7701 78.6195 34.4001 93.3819C30.2866 76.5499 31.6186 73.636 47.5125 64.6922C29.3898 68.5135 26.2505 67.2739 16.6188 52.5153C20.7341 69.3435 19.4003 72.2613 3.50524 81.2023ZM405 232.405C419.82 229.281 422.385 230.295 430.258 242.36C426.896 228.602 427.986 226.218 440.98 218.906C426.163 222.028 423.597 221.019 415.722 208.95C419.085 222.711 417.997 225.092 405 232.405Z" fill="white"/>
<path opacity="0.85" d="M182.275 196.202C200.399 192.384 203.54 193.619 213.17 208.382C209.056 191.55 210.388 188.636 226.282 179.692C208.159 183.514 205.02 182.274 195.388 167.515C199.504 184.344 198.17 187.261 182.275 196.202ZM583.769 347.405C598.589 344.281 601.154 345.295 609.028 357.36C605.666 343.602 606.756 341.218 619.75 333.906C604.933 337.028 602.366 336.019 594.491 323.95C597.855 337.711 596.766 340.092 583.769 347.405Z" fill="white"/>
<g opacity="0.85" filter="url(#filter0_d_3275_4609)">
<path d="M191.702 5.22392C190.055 3.76244 189.451 1.52804 190.246 -0.454346C190.866 -2.00032 191.875 -3.79799 193.52 -5.51322C195.497 -7.57539 197.722 -8.82321 199.611 -9.57757C201.742 -10.43 204.213 -10.0015 205.888 -8.51151L229.073 12.1111C230.95 13.7761 231.412 16.4024 230.183 18.523C229.438 19.8086 228.439 21.2105 227.108 22.5892C225.343 24.413 223.464 25.7144 221.783 26.6383C219.57 27.8532 216.75 27.5061 214.894 25.8544L191.702 5.22392ZM198.059 40.2658C202.417 41.8651 206.875 42.6142 211.418 42.5236C213.766 42.4759 216.084 42.2028 218.364 41.6934C218.824 41.588 219.281 41.4765 219.743 41.3595C221.396 40.9195 223.038 40.3599 224.662 39.6696C228.937 37.8645 232.843 35.2374 236.392 31.7983C239.979 28.3237 242.65 24.5713 244.388 20.544C245.049 19.0216 245.577 17.482 245.971 15.9325C246.043 15.6441 246.107 15.3625 246.167 15.0717C246.681 12.81 246.904 10.5091 246.852 8.17024C246.754 3.95257 245.756 -0.149755 243.849 -4.12271C241.943 -8.09263 239.12 -11.7399 235.373 -15.0753C231.628 -18.4047 227.573 -20.873 223.22 -22.4704C218.864 -24.0666 214.411 -24.8109 209.863 -24.7252C205.316 -24.6291 200.898 -23.7025 196.625 -21.9368C192.348 -20.17 188.406 -17.5471 184.822 -14.0738C181.228 -10.5895 178.579 -6.82067 176.866 -2.78135C175.145 1.26042 174.338 5.40077 174.431 9.62393C174.536 13.8495 175.528 17.947 177.43 21.9181C179.338 25.8911 182.185 29.5607 185.982 32.938C189.678 36.2256 193.703 38.6696 198.059 40.2658ZM555.452 262.322C556.348 260.379 558.39 259.069 560.666 259.066C562.444 259.063 564.612 259.309 566.918 260.135C569.693 261.131 571.73 262.63 573.153 264.006C574.761 265.56 575.196 267.861 574.281 269.839L561.616 297.235C560.596 299.45 558.111 300.774 555.54 300.45C553.982 300.251 552.223 299.877 550.362 299.201C547.902 298.309 545.932 297.128 544.407 295.991C542.409 294.492 541.773 291.92 542.784 289.726L555.452 262.322ZM522.345 280.144C522.261 284.494 523.069 288.632 524.755 292.55C525.626 294.578 526.715 296.496 528.028 298.299C528.294 298.665 528.567 299.021 528.845 299.383C529.872 300.668 531.011 301.896 532.277 303.066C535.6 306.152 539.621 308.629 544.332 310.509C549.097 312.407 553.815 313.412 558.485 313.51C560.256 313.551 561.992 313.469 563.693 313.272C564.01 313.231 564.317 313.186 564.63 313.136C567.092 312.791 569.49 312.177 571.828 311.311C576.048 309.745 579.835 307.438 583.173 304.389C586.51 301.336 589.199 297.606 591.243 293.174C593.288 288.749 594.355 284.359 594.437 280.014C594.522 275.665 593.71 271.535 592.028 267.608C590.333 263.686 587.848 260.17 584.574 257.073C581.286 253.975 577.26 251.467 572.5 249.571C567.726 247.669 562.994 246.687 558.324 246.614C553.64 246.535 549.183 247.286 544.954 248.848C540.734 250.42 536.948 252.72 533.611 255.772C530.272 258.822 527.572 262.585 525.497 267.071C523.478 271.44 522.428 275.799 522.345 280.144Z" fill="white"/>
</g>
<g opacity="0.85" filter="url(#filter1_d_3275_4609)">
<path d="M36.5143 228.145L36.3202 227.93C30.419 221.369 24.4874 214.796 18.5825 208.234C18.4438 208.095 18.3139 207.936 18.1979 207.806L16.7075 206.147C15.6231 204.948 16.3547 203.115 17.9797 202.838L49.6738 197.301C50.9526 197.135 52.2019 197.608 52.9698 198.541C54.0289 199.864 53.506 201.371 53.4667 201.519C53.4236 201.613 53.3907 201.682 53.349 201.772L42.0055 229.528C41.4207 230.985 39.3601 231.305 38.2758 230.106L36.5143 228.145ZM299.509 319.103L299.315 318.889C293.41 312.326 287.483 305.755 281.579 299.189C281.439 299.054 281.307 298.89 281.193 298.764L279.704 297.102C278.614 295.905 279.35 294.074 280.975 293.796L312.665 288.259C313.949 288.09 315.198 288.564 315.965 289.5C317.024 290.823 316.497 292.329 316.462 292.478C316.419 292.571 316.386 292.64 316.344 292.731L305.001 320.487C304.412 321.942 302.357 322.26 301.271 321.065L299.509 319.103Z" fill="#F2EEE9"/>
</g>
<g filter="url(#filter2_d_3275_4609)">
<rect x="385" y="13" width="50" height="50" rx="25" fill="black" fill-opacity="0.25" shape-rendering="crispEdges"/>
<path fill-rule="evenodd" clip-rule="evenodd" d="M409.174 25.86C408.714 26.4597 408.196 27.386 407.442 28.737L407.061 29.4218L406.992 29.5455C406.642 30.1755 406.344 30.7098 405.867 31.0715C405.385 31.4378 404.797 31.5697 404.114 31.7236L403.981 31.754L403.239 31.922C401.775 32.2533 400.777 32.4808 400.096 32.7503C399.43 33.0117 399.29 33.2275 399.236 33.399C399.179 33.581 399.178 33.8598 399.574 34.4922C399.979 35.1338 400.662 35.9342 401.658 37.1008L402.164 37.6923L402.252 37.7938C402.722 38.3421 403.114 38.7995 403.294 39.3782C403.472 39.9533 403.413 40.5565 403.34 41.2892L403.329 41.4256L403.252 42.2155C403.1 43.7695 403 44.8405 403.033 45.6105C403.068 46.3805 403.231 46.5928 403.36 46.6908C403.474 46.7783 403.687 46.874 404.379 46.6756C405.082 46.475 406.018 46.0468 407.389 45.4156L408.084 45.096L408.211 45.0377C408.847 44.7425 409.398 44.4881 410 44.4881C410.602 44.4881 411.152 44.7425 411.788 45.0365C411.83 45.0569 411.873 45.0763 411.916 45.0948L412.611 45.4156C413.981 46.0468 414.917 46.475 415.621 46.6756C416.312 46.874 416.525 46.7783 416.639 46.6908C416.769 46.5928 416.931 46.3793 416.966 45.6105C417.001 44.8405 416.898 43.7695 416.748 42.2155L416.671 41.4256L416.659 41.2892C416.587 40.5565 416.527 39.9533 416.706 39.3782C416.885 38.7995 417.277 38.3421 417.747 37.7938L417.835 37.6923L418.341 37.1008C419.338 35.9342 420.02 35.1338 420.424 34.4922C420.822 33.8598 420.82 33.5822 420.763 33.399C420.71 33.2275 420.57 33.0117 419.903 32.7503C419.221 32.4808 418.225 32.2533 416.76 31.922L416.018 31.754C415.973 31.7423 415.929 31.733 415.885 31.7236C415.202 31.5697 414.614 31.4378 414.132 31.0715C413.654 30.7098 413.358 30.1767 413.007 29.5455L412.94 29.4218L412.557 28.737C411.803 27.386 411.285 26.4597 410.826 25.86C410.367 25.2603 410.133 25.209 410 25.209C409.867 25.209 409.632 25.2603 409.174 25.86ZM407.785 24.796C408.339 24.0703 409.027 23.459 410 23.459C410.973 23.459 411.659 24.0703 412.215 24.796C412.761 25.51 413.341 26.5495 414.049 27.82L414.468 28.5702C414.925 29.3915 415.043 29.5665 415.19 29.6785C415.33 29.7847 415.513 29.8453 416.403 30.0472L417.22 30.2315C418.592 30.5418 419.723 30.7973 420.545 31.1217C421.399 31.4588 422.147 31.9547 422.435 32.8798C422.72 33.7957 422.4 34.638 421.905 35.4232C421.425 36.1873 420.657 37.0857 419.719 38.1823L419.165 38.8298C418.562 39.5345 418.436 39.7072 418.376 39.8973C418.317 40.0921 418.321 40.3173 418.414 41.2565L418.496 42.1175C418.639 43.5828 418.754 44.7775 418.713 45.6875C418.673 46.615 418.463 47.504 417.698 48.085C416.919 48.6753 416.013 48.61 415.138 48.358C414.289 48.1153 413.232 47.6288 411.949 47.0373L411.184 46.685C410.346 46.3 410.168 46.2381 410 46.2381C409.832 46.2381 409.653 46.3 408.815 46.685L408.051 47.0373C406.767 47.6288 405.71 48.1153 404.862 48.358C403.987 48.6088 403.08 48.6753 402.302 48.085C401.537 47.504 401.327 46.615 401.286 45.6887C401.245 44.7787 401.36 43.5828 401.503 42.1187L401.587 41.2565C401.678 40.3161 401.682 40.0921 401.622 39.8973C401.563 39.7072 401.437 39.5357 400.834 38.8298L400.28 38.1823C399.343 37.0857 398.576 36.1873 398.095 35.4243C397.599 34.638 397.279 33.7957 397.564 32.8798C397.852 31.9547 398.6 31.4588 399.454 31.1217C400.277 30.7973 401.407 30.5418 402.779 30.2315L402.853 30.2152L403.595 30.0472C404.486 29.8453 404.668 29.7847 404.809 29.6773C404.956 29.5665 405.074 29.3915 405.532 28.5702L405.95 27.82C406.658 26.5483 407.238 25.51 407.784 24.796H407.785Z" fill="white"/>
</g>
<defs>
<filter id="filter0_d_3275_4609" x="174.422" y="-24.7324" width="428.964" height="349.432" filterUnits="userSpaceOnUse" color-interpolation-filters="sRGB">
<feFlood flood-opacity="0" result="BackgroundImageFix"/>
<feColorMatrix in="SourceAlpha" type="matrix" values="0 0 0 0 0 0 0 0 0 0 0 0 0 0 0 0 0 0 127 0" result="hardAlpha"/>
<feOffset dx="8.94426" dy="11.1803"/>
<feComposite in2="hardAlpha" operator="out"/>
<feColorMatrix type="matrix" values="0 0 0 0 0.941176 0 0 0 0 0.54902 0 0 0 0 0.0117647 0 0 0 1 0"/>
<feBlend mode="normal" in2="BackgroundImageFix" result="effect1_dropShadow_3275_4609"/>
<feBlend mode="normal" in="SourceGraphic" in2="effect1_dropShadow_3275_4609" result="shape"/>
</filter>
<filter id="filter1_d_3275_4609" x="16.1953" y="197.268" width="309.374" height="135.712" filterUnits="userSpaceOnUse" color-interpolation-filters="sRGB">
<feFlood flood-opacity="0" result="BackgroundImageFix"/>
<feColorMatrix in="SourceAlpha" type="matrix" values="0 0 0 0 0 0 0 0 0 0 0 0 0 0 0 0 0 0 127 0" result="hardAlpha"/>
<feOffset dx="8.94426" dy="11.1803"/>
<feComposite in2="hardAlpha" operator="out"/>
<feColorMatrix type="matrix" values="0 0 0 0 0.941176 0 0 0 0 0.54902 0 0 0 0 0.0117647 0 0 0 1 0"/>
<feBlend mode="normal" in2="BackgroundImageFix" result="effect1_dropShadow_3275_4609"/>
<feBlend mode="normal" in="SourceGraphic" in2="effect1_dropShadow_3275_4609" result="shape"/>
</filter>
<filter id="filter2_d_3275_4609" x="382" y="12" width="64" height="64" filterUnits="userSpaceOnUse" color-interpolation-filters="sRGB">
<feFlood flood-opacity="0" result="BackgroundImageFix"/>
<feColorMatrix in="SourceAlpha" type="matrix" values="0 0 0 0 0 0 0 0 0 0 0 0 0 0 0 0 0 0 127 0" result="hardAlpha"/>
<feOffset dx="4" dy="6"/>
<feGaussianBlur stdDeviation="3.5"/>
<feComposite in2="hardAlpha" operator="out"/>
<feColorMatrix type="matrix" values="0 0 0 0 0.286275 0 0 0 0 0.243137 0 0 0 0 0.513726 0 0 0 0.1237 0"/>
<feBlend mode="normal" in2="BackgroundImageFix" result="effect1_dropShadow_3275_4609"/>
<feBlend mode="normal" in="SourceGraphic" in2="effect1_dropShadow_3275_4609" result="shape"/>
</filter>
</defs>
</svg>
