<svg width="62" height="60" viewBox="0 0 62 60" fill="none" xmlns="http://www.w3.org/2000/svg">
<path d="M46.8386 56.4638H13.1447C7.44266 56.4638 2.77734 51.7985 2.77734 46.0965V12.4025C2.77734 6.70047 7.44266 2.03516 13.1447 2.03516H46.8386C52.5407 2.03516 57.206 6.70047 57.206 12.4025V46.0965C57.206 51.7985 52.5407 56.4638 46.8386 56.4638Z" fill="#78A1D1"/>
<path d="M46.8393 57.3284H13.1454C6.9526 57.3284 1.91406 52.2899 1.91406 46.0971V12.4032C1.91406 6.21041 6.9526 1.17188 13.1454 1.17188H46.8393C53.0321 1.17188 58.0706 6.21041 58.0706 12.4032V46.0971C58.0706 52.2899 53.033 57.3284 46.8393 57.3284ZM13.1454 2.89977C7.90554 2.89977 3.64196 7.16335 3.64196 12.4032V46.0971C3.64196 51.337 7.90554 55.6005 13.1454 55.6005H46.8393C52.0792 55.6005 56.3427 51.337 56.3427 46.0971V12.4032C56.3427 7.16335 52.0792 2.89977 46.8393 2.89977H13.1454Z" fill="#1F212B"/>
<path d="M53.3172 27.5206V43.6444C53.3172 48.5559 49.2981 52.575 44.3866 52.575H15.5947C10.6831 52.575 6.66406 48.5559 6.66406 43.6444V14.8525C6.66406 9.94096 10.6831 5.92188 15.5947 5.92188H44.6777" fill="#78A1D1"/>
<path d="M44.385 53.0062H15.5931C10.4301 53.0062 6.23047 48.8066 6.23047 43.6436V14.8509C6.23047 9.68793 10.4301 5.48828 15.5931 5.48828H44.6761C44.9146 5.48828 45.1081 5.68181 45.1081 5.92025C45.1081 6.1587 44.9146 6.35223 44.6761 6.35223H15.5931C10.907 6.35223 7.09442 10.1648 7.09442 14.8509V43.6428C7.09442 48.3288 10.907 52.1414 15.5931 52.1414H44.385C49.071 52.1414 52.8836 48.3288 52.8836 43.6428V27.5198C52.8836 27.2813 53.0771 27.0878 53.3156 27.0878C53.554 27.0878 53.7476 27.2813 53.7476 27.5198V43.6436C53.7476 48.8057 49.5479 53.0062 44.385 53.0062Z" fill="#1F212B"/>
<path d="M53.3187 26.2221C53.0802 26.2221 52.8867 26.0286 52.8867 25.7901V22.3343C52.8867 22.0959 53.0802 21.9023 53.3187 21.9023C53.5571 21.9023 53.7507 22.0959 53.7507 22.3343V25.7901C53.7507 26.0286 53.5571 26.2221 53.3187 26.2221Z" fill="#1F212B"/>
<path d="M53.3187 21.0411C53.0802 21.0411 52.8867 20.8475 52.8867 20.6091V18.8812C52.8867 18.6427 53.0802 18.4492 53.3187 18.4492C53.5571 18.4492 53.7507 18.6427 53.7507 18.8812V20.6091C53.7507 20.8475 53.5571 21.0411 53.3187 21.0411Z" fill="#1F212B"/>
<path d="M42.9465 32.5554V41.3495H37.7628L37.6911 32.6306C37.6911 30.4223 36.6863 28.8534 34.7053 28.8534C33.1925 28.8534 32.2966 29.866 31.8992 30.8483C31.7566 31.1973 31.7152 31.6889 31.7152 32.1805V41.3495H26.465C26.465 41.3495 26.5358 26.4732 26.465 24.9346H31.7152V27.4685C31.7031 27.4875 31.6918 27.5074 31.6798 27.5264H31.7152V27.4685C32.4452 26.2503 33.7774 24.8309 36.6846 24.8309C40.2855 24.8248 42.9465 27.0694 42.9465 32.5554ZM20.4994 17.1953C18.8778 17.1953 17.8203 18.3072 17.8203 19.769C17.8203 21.198 18.8467 22.3427 20.4381 22.3427H20.4692C22.1219 22.3427 23.1483 21.198 23.1483 19.769C23.112 18.3081 22.1159 17.1953 20.4994 17.1953ZM17.892 41.3504H23.0757V24.9354H17.892V41.3504Z" fill="#FDFCEE"/>
<path d="M42.9449 41.7819H37.7612C37.5245 41.7819 37.3309 41.5909 37.3292 41.3533L37.2575 32.6344C37.2575 31.6253 37.0087 29.2857 34.7037 29.2857C33.1624 29.2857 32.5084 30.4918 32.2984 31.011C32.1974 31.259 32.1464 31.6529 32.1464 32.1808V41.3499C32.1464 41.5883 31.9529 41.7819 31.7144 41.7819H26.4633C26.3484 41.7819 26.2379 41.7361 26.1575 41.6549C26.0772 41.5736 26.0314 41.4631 26.0314 41.3482C26.0322 41.1996 26.1014 26.4658 26.0314 24.9548C26.0262 24.8373 26.0685 24.7215 26.1506 24.6368C26.2327 24.5513 26.345 24.5029 26.4633 24.5029H31.7136C31.952 24.5029 32.1455 24.6964 32.1455 24.9349V26.1703C33.2583 24.9772 34.7987 24.4096 36.6994 24.3992C38.5897 24.3992 40.1275 24.9764 41.2679 26.115C42.6675 27.512 43.3768 29.6788 43.3768 32.5566V41.3507C43.3768 41.5883 43.1833 41.7819 42.9449 41.7819ZM38.1897 40.9179H42.5129V32.5558C42.5129 29.9164 41.8883 27.9552 40.6571 26.7258C39.6852 25.7548 38.353 25.2632 36.6985 25.2632C36.6933 25.2632 36.689 25.2632 36.6838 25.2632C33.9063 25.2632 32.7434 26.6084 32.1118 27.6442C32.047 27.8161 31.8933 27.9587 31.7136 27.9587C31.5572 27.9587 31.3956 27.874 31.3187 27.7384C31.2522 27.62 31.2323 27.4792 31.2816 27.3574V25.3669H26.9066C26.9523 27.982 26.9074 38.5878 26.897 40.9179H31.2816V32.1799C31.2816 31.5294 31.3524 31.0404 31.4976 30.6845C32.0704 29.2676 33.2695 28.4209 34.7028 28.4209C36.8108 28.4209 38.1206 30.0339 38.1206 32.6309L38.1897 40.9179ZM23.0741 41.7819H17.8904C17.652 41.7819 17.4584 41.5883 17.4584 41.3499V24.9349C17.4584 24.6964 17.652 24.5029 17.8904 24.5029H23.0741C23.3125 24.5029 23.5061 24.6964 23.5061 24.9349V41.3499C23.5061 41.5883 23.3125 41.7819 23.0741 41.7819ZM18.3224 40.9179H22.6421V25.3669H18.3224V40.9179ZM20.4667 22.775C18.6688 22.775 17.3867 21.5111 17.3867 19.7693C17.3867 18.0276 18.6956 16.7637 20.4987 16.7637C22.268 16.7637 23.5354 17.9957 23.5786 19.759C23.5786 21.5111 22.2697 22.775 20.4667 22.775ZM20.4978 17.6268C19.1742 17.6268 18.2498 18.508 18.2498 19.7685C18.2498 21.029 19.1492 21.9102 20.4356 21.9102C21.7894 21.9102 22.7138 21.029 22.7138 19.7685C22.6819 18.4717 21.8119 17.6268 20.4978 17.6268Z" fill="#1F212B"/>
</svg>
