<svg width="54" height="53" viewBox="0 0 54 53" fill="none" xmlns="http://www.w3.org/2000/svg">
<g clip-path="url(#clip0_2686_9626)">
<path d="M27.0744 2.29297C13.4397 2.29297 2.38695 13.3457 2.38695 26.9804C2.38695 31.4184 3.56396 35.5797 5.61374 39.1782L2.41381 50.7472C2.26351 51.291 2.76307 51.7913 3.30692 51.6403L14.8759 48.4404C18.4752 50.4909 22.6365 51.6679 27.0744 51.6679C40.7092 51.6679 51.7619 40.6152 51.7619 26.9804C51.7619 13.3457 40.7092 2.29297 27.0744 2.29297Z" fill="white"/>
<path d="M27.0769 6.65039C15.8485 6.65039 6.74609 15.7528 6.74609 26.9812C6.74609 31.4264 8.17651 35.5347 10.5966 38.8806L8.84453 45.2137L15.1783 43.4616C18.5242 45.8817 22.6325 47.3121 27.0769 47.3121C38.3054 47.3121 47.4078 38.2097 47.4078 26.9812C47.4078 15.7528 38.3054 6.65039 27.0769 6.65039Z" fill="#60BE92"/>
<path d="M21.1908 16.7775C20.7494 15.7791 20.2832 15.7595 19.8606 15.745C19.5157 15.7305 19.1229 15.7305 18.7293 15.7305C18.3409 15.7305 17.7005 15.8779 17.1617 16.4776C16.6178 17.0723 15.0938 18.518 15.0938 21.4587C15.0938 24.3943 17.2103 27.2363 17.5015 27.6342C17.7978 28.0277 21.5836 34.2526 27.5733 36.6473C32.5536 38.6339 33.568 38.2404 34.6455 38.1423C35.7281 38.0392 38.1359 36.6967 38.626 35.3004C39.1161 33.9092 39.1161 32.714 38.9709 32.4635C38.8249 32.213 38.4321 32.0649 37.8396 31.765C37.2522 31.4651 34.3543 30.0245 33.8105 29.8227C33.2717 29.6259 32.8782 29.5279 32.4853 30.1225C32.0925 30.7172 30.9613 32.0649 30.6164 32.4628C30.2715 32.8614 29.9316 32.91 29.3399 32.6152C28.7525 32.3154 26.8544 31.6858 24.6021 29.6506C22.85 28.0677 21.6657 26.1152 21.3208 25.5154C20.9759 24.9207 21.2823 24.5962 21.5778 24.2963C21.845 24.0305 22.1703 23.5978 22.4659 23.2493C22.757 22.9 22.8543 22.6546 23.0533 22.2559C23.2471 21.8573 23.1506 21.5088 23.0046 21.2089C22.8609 20.9076 21.7151 17.9574 21.1908 16.7775Z" fill="white"/>
<path d="M3.10676 52.3962C2.72846 52.3962 2.36541 52.2481 2.08731 51.9693C1.71192 51.5946 1.57323 51.066 1.7141 50.5555L4.83488 39.2748C2.75751 35.5238 1.66109 31.2797 1.66109 26.9819C1.66109 12.9689 13.0616 1.56836 27.0747 1.56836C41.0877 1.56836 52.4882 12.9689 52.4882 26.9819C52.4882 40.995 41.0877 52.3955 27.0747 52.3955C22.7769 52.3955 18.5328 51.2991 14.7818 49.2217L3.50103 52.3425C3.37034 52.3788 3.23746 52.3962 3.10676 52.3962ZM14.8769 47.7165C15.0018 47.7165 15.1259 47.7484 15.2363 47.8116C18.8327 49.8607 22.9264 50.9433 27.0747 50.9433C40.2868 50.9433 51.036 40.1941 51.036 26.9819C51.036 13.7698 40.2868 3.02056 27.0747 3.02056C13.8625 3.02056 3.1133 13.7698 3.1133 26.9819C3.1133 31.1301 4.19591 35.2239 6.24497 38.8203C6.34082 38.988 6.36551 39.187 6.31395 39.3736L3.11402 50.9433L14.6837 47.7434C14.7469 47.7245 14.8123 47.7165 14.8769 47.7165Z" fill="#1F212B"/>
<path d="M33.4407 38.6032C32.4154 38.6032 30.8194 38.3323 27.4387 36.9847C23.8169 35.5368 20.2285 32.3587 17.3364 28.0369C17.274 27.9447 17.2326 27.8816 17.2108 27.8525C16.4521 26.8156 14.7305 24.1719 14.7305 21.4585C14.7305 18.5526 16.1711 17.0075 16.7868 16.3474L16.8928 16.2327C17.5942 15.4514 18.4104 15.3672 18.7284 15.3672C19.1277 15.3672 19.5256 15.3672 19.8749 15.3824C20.4355 15.402 21.0272 15.5153 21.5217 16.6313C21.8325 17.3306 22.3495 18.6216 22.7648 19.6584C23.0284 20.3163 23.2774 20.9378 23.3319 21.0504C23.4844 21.3655 23.655 21.8498 23.3798 22.4147L23.2905 22.597C23.138 22.9092 23.0175 23.1561 22.7445 23.4821C22.6464 23.5976 22.5477 23.7203 22.4475 23.843C22.2405 24.0986 22.0263 24.3629 21.8332 24.5538C21.5428 24.8486 21.4317 24.9837 21.635 25.3337C22.0474 26.0518 23.1845 27.8816 24.8451 29.381C26.6807 31.0401 28.2483 31.7313 29.0906 32.1024C29.2634 32.1779 29.4028 32.2403 29.5045 32.2926C29.9989 32.5395 30.1384 32.4604 30.3417 32.2258C30.7018 31.809 31.8084 30.4883 32.1816 29.9226C32.7567 29.0513 33.4653 29.3112 33.9337 29.4819C34.5276 29.7019 37.5424 31.2064 38.0035 31.4416L38.3244 31.6006C38.7804 31.8236 39.1101 31.984 39.2829 32.281C39.5196 32.6898 39.4492 34.0498 38.9663 35.4214C38.405 37.0188 35.8128 38.3962 34.6779 38.5044C34.5756 38.5139 34.4761 38.5248 34.373 38.5378C34.1 38.5683 33.8059 38.6032 33.4407 38.6032ZM18.7502 16.0926C18.5679 16.0926 17.9754 16.1136 17.4316 16.7192L17.3183 16.8419C16.7135 17.4903 15.4566 18.8387 15.4566 21.4585C15.4566 23.9577 17.0801 26.4446 17.7779 27.3987C17.8164 27.4495 17.8665 27.5236 17.9398 27.6325C20.7513 31.8345 24.2206 34.916 27.7081 36.3101C32.1213 38.0702 33.3238 37.9286 34.2895 37.8154C34.3984 37.8016 34.5051 37.7899 34.6119 37.7798C35.55 37.6905 37.843 36.43 38.283 35.1789C38.7361 33.8922 38.7296 32.8234 38.6512 32.6346C38.5945 32.5388 38.323 32.4059 38.0071 32.2527L37.6753 32.0879C36.9898 31.7379 34.1871 30.3481 33.6839 30.1622C33.1604 29.972 33.0246 29.9647 32.7879 30.322C32.3639 30.9646 31.1658 32.3834 30.8913 32.7C30.3046 33.3774 29.6664 33.1843 29.1784 32.9396C29.0819 32.8909 28.9548 32.835 28.7987 32.766C27.9818 32.4059 26.282 31.6573 24.36 29.919C22.6217 28.3492 21.4367 26.4424 21.0076 25.696C20.5197 24.8537 21.041 24.3244 21.3206 24.0412C21.4941 23.8684 21.6902 23.6259 21.8855 23.3848C21.9886 23.2577 22.091 23.1307 22.1904 23.0138C22.4054 22.7567 22.499 22.5658 22.6399 22.2768L22.7307 22.0923C22.8374 21.8731 22.8229 21.661 22.6798 21.3655C22.6174 21.2363 22.4257 20.7599 22.0924 19.9278C21.6793 18.896 21.1645 17.6123 20.8595 16.9247V16.9232C20.5081 16.1296 20.2169 16.1202 19.848 16.1071C19.5104 16.0926 19.1314 16.0926 18.7502 16.0926Z" fill="#1F212B"/>
<path d="M27.0769 47.3121C22.9403 47.3121 18.9628 46.0748 15.5624 43.7317L8.94183 45.5629C8.81403 45.5992 8.68043 45.5622 8.58821 45.47C8.496 45.3778 8.45969 45.2427 8.49527 45.1164L10.3258 38.4965C7.98337 35.0962 6.74609 31.1186 6.74609 26.9812C6.74609 15.771 15.8667 6.65039 27.0769 6.65039C28.9459 6.65039 30.812 6.90961 32.6215 7.42224C32.8146 7.47669 32.9271 7.67782 32.8727 7.87024C32.8182 8.06266 32.6149 8.1752 32.4247 8.12147C30.6784 7.627 28.8791 7.37649 27.0769 7.37649C16.2667 7.37649 7.4722 16.171 7.4722 26.9812C7.4722 31.0256 8.69786 34.9124 11.0185 38.2206C11.0809 38.3092 11.0998 38.421 11.0708 38.5263L9.36442 44.693L15.5319 42.9867C15.6358 42.9562 15.7483 42.9773 15.8376 43.039C19.1465 45.3603 23.0333 46.586 27.0769 46.586C37.8871 46.586 46.6817 37.7914 46.6817 26.9812C46.6817 21.7671 44.6566 16.8587 40.9789 13.1592C40.838 13.0169 40.838 12.7867 40.9803 12.6458C41.1227 12.5049 41.3528 12.505 41.4937 12.6473C45.3072 16.484 47.4078 21.5747 47.4078 26.9812C47.4078 38.1915 38.2872 47.3121 27.0769 47.3121Z" fill="#1F212B"/>
<path d="M36.8772 9.94966C36.8162 9.94966 36.7552 9.93441 36.6986 9.90319C35.9993 9.50746 35.2797 9.15675 34.5602 8.85905C34.375 8.78281 34.2872 8.57079 34.3634 8.38491C34.4389 8.20048 34.6524 8.11044 34.8376 8.18814C35.584 8.49745 36.3311 8.86196 37.0558 9.27075C37.2301 9.3695 37.2918 9.59096 37.193 9.76595C37.127 9.88286 37.0035 9.94966 36.8772 9.94966Z" fill="#1F212B"/>
<path d="M39.7839 11.9402C39.7025 11.9402 39.6205 11.9133 39.553 11.8574C39.1035 11.4857 38.6235 11.1262 38.1269 10.7871C37.9613 10.6739 37.9192 10.4481 38.0318 10.2825C38.145 10.1169 38.3716 10.0763 38.5364 10.1874C39.0505 10.5381 39.5486 10.912 40.0148 11.2969C40.1694 11.4247 40.1912 11.6534 40.0634 11.808C39.9922 11.8959 39.8884 11.9402 39.7839 11.9402Z" fill="#1F212B"/>
</g>
<defs>
<clipPath id="clip0_2686_9626">
<rect width="53.3685" height="51.7136" fill="white" transform="translate(0.03125 0.636719)"/>
</clipPath>
</defs>
</svg>
