<svg width="313" height="355" viewBox="0 0 313 355" fill="none" xmlns="http://www.w3.org/2000/svg">
<path fill-rule="evenodd" clip-rule="evenodd" d="M16.6348 73.7609L259.081 49.1275C263.735 48.6547 268.385 50.0498 272.011 53.006C275.636 55.9621 277.938 60.2371 278.411 64.8906L304.954 325.91C304.954 325.911 304.954 325.912 304.952 325.913L27.4161 354.109C27.4148 354.109 27.4136 354.108 27.4135 354.107L0.873096 93.0894C-0.112349 83.3991 6.94448 74.7455 16.6348 73.7609Z" fill="#EFC083"/>
<path fill-rule="evenodd" clip-rule="evenodd" d="M16.6348 73.7609L259.081 49.1275C263.735 48.6547 268.385 50.0498 272.011 53.006C275.636 55.9621 277.938 60.2371 278.411 64.8906L304.954 325.91C304.954 325.911 304.954 325.912 304.952 325.913L27.4161 354.109C27.4148 354.109 27.4136 354.108 27.4135 354.107L0.873096 93.0894C-0.112349 83.3991 6.94448 74.7455 16.6348 73.7609Z" stroke="black" stroke-width="1.35859" stroke-miterlimit="10" stroke-linejoin="round"/>
<path fill-rule="evenodd" clip-rule="evenodd" d="M48.7915 2.44528L292.509 1.13697C297.187 1.11185 301.683 2.94604 305.009 6.23605C308.335 9.52602 310.218 14.0024 310.243 18.6802L311.987 336.904C311.987 336.905 311.986 336.906 311.984 336.906L32.9936 338.401C32.9923 338.401 32.9913 338.4 32.9913 338.399L31.2503 20.1779C31.1969 10.4367 39.0503 2.49756 48.7915 2.44528Z" fill="white"/>
<path fill-rule="evenodd" clip-rule="evenodd" d="M48.7915 2.44528L292.509 1.13697C297.187 1.11185 301.683 2.94604 305.009 6.23605C308.335 9.52602 310.218 14.0024 310.243 18.6802L311.987 336.904C311.987 336.905 311.986 336.906 311.984 336.906L32.9936 338.401C32.9923 338.401 32.9913 338.4 32.9913 338.399L31.2503 20.1779C31.1969 10.4367 39.0503 2.49756 48.7915 2.44528Z" stroke="black" stroke-width="1.35859" stroke-miterlimit="10" stroke-linejoin="round"/>
<path d="M67.9904 45.5276L61.9408 45.5866L60.848 48.6754L58.9375 48.694L63.8027 34.8478L65.9041 34.8273L71.037 48.5761L69.1265 48.5947L67.9904 45.5276ZM67.4443 44.0469L64.8661 37.0664L62.4347 44.0957L67.4443 44.0469ZM72.4913 43.0849C72.4794 41.9527 72.6956 40.967 73.1397 40.1277C73.5836 39.2742 74.2065 38.6171 75.0084 38.1564C75.8101 37.6815 76.7275 37.4391 77.7606 37.429C79.105 37.4159 80.2121 37.7306 81.0821 38.3732C81.9521 39.0016 82.5346 39.8946 82.8298 41.0522L80.877 41.0713C80.6861 40.4079 80.3197 39.8879 79.778 39.511C79.2362 39.1342 78.5691 38.9496 77.7765 38.9573C76.7436 38.9674 75.9123 39.3293 75.2829 40.0431C74.6535 40.7569 74.3456 41.7647 74.3593 43.0666C74.373 44.3827 74.7021 45.3985 75.3464 46.114C75.9907 46.8153 76.8294 47.161 77.8625 47.1509C78.6549 47.1432 79.3109 46.9528 79.8307 46.5798C80.3646 46.2066 80.727 45.6723 80.9178 44.977L82.8708 44.958C82.5853 46.0788 82.0073 46.9761 81.1369 47.6497C80.2807 48.3233 79.1945 48.6664 77.8784 48.6793C76.8454 48.6893 75.9232 48.4719 75.1118 48.0269C74.3002 47.5678 73.6636 46.9159 73.2019 46.0712C72.7402 45.2265 72.5033 44.2311 72.4913 43.0849ZM84.5773 42.967C84.5654 41.8349 84.7815 40.8492 85.2256 40.0099C85.6696 39.1564 86.2925 38.4993 87.0943 38.0386C87.8961 37.5638 88.8135 37.3213 89.8465 37.3112C91.1909 37.2981 92.2982 37.6128 93.1682 38.2554C94.0381 38.8838 94.6207 39.7768 94.9159 40.9344L92.9629 40.9535C92.7719 40.2901 92.4056 39.7701 91.8638 39.3932C91.3221 39.0164 90.655 38.8318 89.8626 38.8395C88.8295 38.8496 87.9983 39.2115 87.369 39.9253C86.7395 40.6391 86.4316 41.6469 86.4452 42.9488C86.459 44.2649 86.7881 45.2807 87.4325 45.9962C88.0767 46.6976 88.9153 47.0432 89.9483 47.0331C90.7408 47.0254 91.397 46.835 91.9167 46.462C92.4506 46.0888 92.813 45.5545 93.0038 44.8592L94.9567 44.8402C94.6712 45.961 94.0933 46.8583 93.2229 47.5319C92.3666 48.2054 91.2804 48.5486 89.9644 48.5614C88.9313 48.5715 88.0091 48.3541 87.1978 47.9091C86.3863 47.45 85.7497 46.7981 85.288 45.9534C84.8261 45.1087 84.5893 44.1133 84.5773 42.967ZM107.294 42.3423C107.297 42.6961 107.28 43.0642 107.242 43.4467L98.5386 43.5315C98.6064 44.6065 98.9761 45.4449 99.6476 46.047C100.333 46.6347 101.157 46.9239 102.119 46.9145C102.898 46.9069 103.547 46.7237 104.067 46.3648C104.586 45.9918 104.949 45.4929 105.155 44.8681L107.108 44.8491C106.822 45.9134 106.243 46.7752 105.373 47.4347C104.502 48.0942 103.423 48.4303 102.135 48.4428C101.088 48.453 100.152 48.2357 99.3261 47.7909C98.5146 47.3317 97.8709 46.6799 97.3951 45.8354C96.9191 44.9767 96.6751 43.9813 96.6632 42.8492C96.6514 41.7171 96.8675 40.7243 97.3115 39.8708C97.7554 39.0174 98.3783 38.3603 99.1802 37.8996C99.9962 37.4387 100.942 37.2031 102.017 37.1926C103.05 37.1825 103.966 37.4 104.763 37.8451C105.56 38.2761 106.175 38.8858 106.608 39.6741C107.055 40.4623 107.283 41.3517 107.294 42.3423ZM105.422 41.9784C105.415 41.2991 105.253 40.7134 104.936 40.2211C104.634 39.7146 104.219 39.3365 103.693 39.0869C103.167 38.8372 102.585 38.7155 101.948 38.7217C101.029 38.7307 100.246 39.0285 99.6014 39.615C98.9707 40.2014 98.6183 41.0116 98.5442 42.0454L105.422 41.9784ZM113.61 48.331C112.775 48.3391 112.023 48.2049 111.355 47.9284C110.687 47.6518 110.159 47.2607 109.772 46.755C109.385 46.2493 109.166 45.6641 109.117 44.9994L110.985 44.9812C111.047 45.5184 111.306 45.9616 111.763 46.311C112.234 46.6461 112.837 46.81 113.573 46.8029C114.266 46.7961 114.809 46.6422 115.202 46.3412C115.595 46.026 115.789 45.6349 115.785 45.1679C115.78 44.6868 115.564 44.335 115.137 44.1128C114.71 43.8905 114.049 43.6705 113.155 43.4527C112.347 43.2483 111.686 43.0425 111.175 42.8352C110.663 42.6137 110.221 42.2925 109.848 41.8716C109.476 41.4365 109.286 40.8651 109.278 40.1576C109.273 39.6057 109.43 39.0946 109.751 38.6245C110.085 38.1542 110.556 37.7816 111.161 37.5068C111.781 37.2319 112.48 37.0906 113.259 37.083C114.461 37.0713 115.434 37.3661 116.176 37.9674C116.933 38.5686 117.345 39.3996 117.412 40.4604L115.608 40.478C115.56 39.9124 115.321 39.4618 114.893 39.1263C114.479 38.7765 113.918 38.6051 113.211 38.612C112.56 38.6183 112.045 38.7649 111.666 39.0516C111.286 39.3242 111.099 39.6869 111.104 40.1398C111.108 40.4936 111.224 40.7896 111.453 41.028C111.696 41.2521 111.988 41.4332 112.329 41.5714C112.684 41.7095 113.174 41.8604 113.799 42.0241C114.593 42.2287 115.232 42.4347 115.716 42.6423C116.213 42.8356 116.641 43.1357 116.999 43.5427C117.357 43.9496 117.547 44.4855 117.568 45.1505C117.574 45.7449 117.41 46.2842 117.075 46.7687C116.755 47.253 116.291 47.6326 115.686 47.9074C115.094 48.1821 114.402 48.3233 113.61 48.331ZM124.003 48.2297C123.168 48.2378 122.417 48.1036 121.749 47.8271C121.081 47.5505 120.553 47.1594 120.166 46.6537C119.778 46.148 119.56 45.5627 119.51 44.8981L121.378 44.8799C121.44 45.4171 121.7 45.8603 122.157 46.2097C122.627 46.5448 123.23 46.7087 123.966 46.7015C124.66 46.6948 125.203 46.5409 125.596 46.2399C125.989 45.9247 126.183 45.5336 126.178 45.0666C126.173 44.5854 125.957 44.2337 125.53 44.0115C125.103 43.7892 124.443 43.5692 123.549 43.3514C122.74 43.147 122.08 42.9412 121.568 42.7338C121.056 42.5124 120.614 42.1912 120.242 41.7703C119.869 41.3352 119.679 40.7638 119.672 40.0563C119.666 39.5044 119.824 38.9933 120.144 38.5232C120.479 38.0529 120.949 37.6803 121.555 37.4055C122.175 37.1306 122.874 36.9893 123.652 36.9817C124.855 36.97 125.827 37.2648 126.57 37.8661C127.326 38.4673 127.738 39.2983 127.806 40.3591L126.002 40.3767C125.953 39.8111 125.715 39.3605 125.287 39.025C124.873 38.6752 124.312 38.5038 123.604 38.5107C122.953 38.517 122.438 38.6636 122.059 38.9503C121.68 39.2229 121.493 39.5856 121.497 40.0385C121.501 40.3922 121.617 40.6883 121.846 40.9267C122.089 41.1508 122.381 41.3319 122.723 41.4701C123.078 41.6082 123.568 41.7591 124.192 41.9228C124.987 42.1274 125.626 42.3334 126.109 42.541C126.607 42.7343 127.034 43.0344 127.392 43.4413C127.75 43.8483 127.94 44.3842 127.961 45.0492C127.967 45.6435 127.803 46.183 127.469 46.6674C127.148 47.1517 126.685 47.5313 126.079 47.8061C125.488 48.0808 124.796 48.222 124.003 48.2297ZM135.111 42.4533C135.1 41.3353 135.316 40.3567 135.76 39.5173C136.204 38.6639 136.82 38.0068 137.607 37.5462C138.395 37.0715 139.27 36.8295 140.232 36.8201C141.194 36.8107 142.024 37.0079 142.722 37.4115C143.434 37.815 143.97 38.3263 144.33 38.9455L144.31 36.9502L146.135 36.9324L146.249 47.843L144.424 47.8608L144.402 45.823C144.041 46.4634 143.509 46.9993 142.806 47.4308C142.103 47.848 141.277 48.0613 140.329 48.0705C139.366 48.0799 138.487 47.855 137.689 47.3957C136.906 46.9222 136.283 46.256 135.821 45.3972C135.36 44.5384 135.123 43.5571 135.111 42.4533ZM144.366 42.3843C144.358 41.5635 144.18 40.8505 143.835 40.2453C143.503 39.64 143.052 39.1773 142.483 38.8574C141.913 38.5374 141.289 38.3808 140.61 38.3874C139.93 38.394 139.309 38.5628 138.747 38.8938C138.198 39.2105 137.764 39.6747 137.445 40.2864C137.126 40.898 136.971 41.6143 136.979 42.435C136.988 43.27 137.158 43.9972 137.49 44.6167C137.822 45.222 138.266 45.6847 138.821 46.0048C139.391 46.3248 140.015 46.4814 140.694 46.4748C141.373 46.4682 141.994 46.2994 142.557 45.9684C143.12 45.6374 143.561 45.1661 143.88 44.5544C144.213 43.9284 144.375 43.205 144.366 42.3843ZM154.52 36.6596C155.836 36.6468 156.908 37.0397 157.738 37.8383C158.581 38.6226 159.01 39.7719 159.026 41.2861L159.094 47.7178L157.289 47.7354L157.225 41.5584C157.213 40.4687 156.929 39.6436 156.371 39.0829C155.827 38.508 155.088 38.225 154.154 38.2341C153.192 38.2435 152.431 38.5482 151.871 39.148C151.325 39.7477 151.058 40.6207 151.07 41.767L151.133 47.7954L149.308 47.8132L149.194 36.9026L151.019 36.8848L151.035 38.4344C151.383 37.879 151.86 37.4498 152.466 37.1467C153.085 36.8293 153.77 36.6669 154.52 36.6596ZM161.314 42.1979C161.302 41.0799 161.519 40.1013 161.963 39.2619C162.407 38.4085 163.023 37.7514 163.81 37.2908C164.598 36.8161 165.48 36.574 166.456 36.5645C167.305 36.5562 168.093 36.7467 168.819 37.1359C169.559 37.5108 170.13 38.0147 170.533 38.6477L170.472 32.874L172.298 32.8562L172.452 47.5876L170.627 47.6054L170.605 45.5464C170.244 46.201 169.712 46.7439 169.009 47.1754C168.32 47.5925 167.501 47.8057 166.553 47.8149C165.591 47.8243 164.711 47.5994 163.913 47.1401C163.116 46.6667 162.486 46.0006 162.024 45.1418C161.562 44.283 161.326 43.3017 161.314 42.1979ZM170.569 42.1289C170.561 41.3081 170.383 40.5951 170.037 39.9899C169.706 39.3846 169.255 38.9219 168.685 38.602C168.116 38.282 167.492 38.1254 166.812 38.132C166.133 38.1386 165.512 38.3074 164.949 38.6384C164.401 38.9551 163.967 39.4193 163.648 40.031C163.329 40.6426 163.174 41.3589 163.182 42.1796C163.191 43.0146 163.361 43.7418 163.693 44.3613C164.025 44.9666 164.469 45.4293 165.024 45.7494C165.593 46.0694 166.218 46.226 166.897 46.2194C167.576 46.2128 168.197 46.044 168.76 45.713C169.323 45.382 169.763 44.9107 170.083 44.299C170.416 43.673 170.578 42.9496 170.569 42.1289ZM185.584 47.6295C184.565 47.6394 183.636 47.422 182.796 46.9773C181.97 46.5183 181.312 45.8666 180.822 45.0222C180.346 44.1636 180.102 43.1682 180.09 42.0361C180.079 40.9181 180.309 39.9323 180.781 39.0785C181.267 38.2105 181.926 37.5459 182.756 37.085C183.586 36.624 184.518 36.3885 185.551 36.3784C186.584 36.3683 187.52 36.5856 188.36 37.0303C189.214 37.4749 189.886 38.1194 190.376 38.9638C190.866 39.8082 191.117 40.7964 191.129 41.9285C191.14 43.0606 190.903 44.0607 190.417 44.9287C189.93 45.7826 189.265 46.4472 188.421 46.9225C187.577 47.3836 186.631 47.6192 185.584 47.6295ZM185.567 46.0375C186.218 46.0311 186.825 45.8766 187.388 45.5739C187.965 45.2569 188.427 44.7924 188.774 44.1805C189.122 43.5685 189.291 42.8239 189.282 41.9465C189.273 41.0691 189.088 40.3279 188.728 39.7228C188.382 39.1176 187.924 38.6692 187.355 38.3776C186.8 38.0858 186.197 37.943 185.546 37.9494C184.881 37.9559 184.274 38.1104 183.725 38.4129C183.176 38.7155 182.742 39.1726 182.423 39.7843C182.104 40.396 181.949 41.1405 181.958 42.0179C181.968 42.9094 182.138 43.6578 182.47 44.2632C182.802 44.8685 183.238 45.3171 183.779 45.609C184.32 45.901 184.916 46.0438 185.567 46.0375ZM195.3 38.2152C195.605 37.5895 196.052 37.104 196.643 36.7585C197.234 36.4131 197.954 36.2363 198.803 36.228L198.823 38.096L198.334 38.1007C196.311 38.1204 195.31 39.227 195.333 41.4205L195.396 47.364L193.57 47.3818L193.456 36.4712L195.281 36.4534L195.3 38.2152ZM200.26 41.8183C200.248 40.7003 200.465 39.7217 200.909 38.8823C201.353 38.0288 201.968 37.3718 202.756 36.9112C203.544 36.4365 204.426 36.1944 205.402 36.1849C206.251 36.1766 207.039 36.3671 207.765 36.7563C208.505 37.1312 209.076 37.6351 209.479 38.2681L209.418 32.4943L211.244 32.4766L211.398 47.208L209.573 47.2258L209.551 45.1668C209.19 45.8213 208.658 46.3643 207.955 46.7958C207.266 47.2129 206.447 47.4261 205.499 47.4354C204.537 47.4447 203.657 47.2198 202.859 46.7605C202.062 46.2871 201.432 45.621 200.97 44.7622C200.508 43.9034 200.272 42.9221 200.26 41.8183ZM209.515 41.7493C209.507 40.9285 209.329 40.2155 208.983 39.6103C208.652 39.005 208.201 38.5424 207.631 38.2224C207.062 37.9024 206.438 37.7458 205.758 37.7524C205.079 37.759 204.458 37.9278 203.895 38.2588C203.347 38.5755 202.913 39.0397 202.594 39.6514C202.275 40.263 202.12 40.9793 202.128 41.8001C202.137 42.635 202.307 43.3622 202.639 43.9817C202.971 44.587 203.415 45.0497 203.97 45.3698C204.539 45.6898 205.164 45.8464 205.843 45.8398C206.522 45.8332 207.143 45.6644 207.706 45.3334C208.268 45.0024 208.709 44.5311 209.028 43.9194C209.362 43.2934 209.524 42.5701 209.515 41.7493ZM224.351 41.2013C224.354 41.5551 224.337 41.9232 224.299 42.3058L215.596 42.3906C215.663 43.4655 216.033 44.304 216.705 44.906C217.39 45.4938 218.214 45.7829 219.176 45.7736C219.955 45.766 220.604 45.5827 221.123 45.2238C221.643 44.8508 222.006 44.3519 222.212 43.7272L224.165 43.7082C223.879 44.7724 223.3 45.6343 222.43 46.2938C221.559 46.9533 220.48 47.2893 219.192 47.3019C218.145 47.3121 217.209 47.0948 216.383 46.6499C215.572 46.1908 214.928 45.539 214.452 44.6945C213.976 43.8358 213.732 42.8404 213.72 41.7083C213.708 40.5762 213.924 39.5834 214.368 38.7299C214.812 37.8764 215.435 37.2193 216.237 36.7586C217.053 36.2978 217.999 36.0621 219.074 36.0516C220.107 36.0416 221.023 36.2591 221.82 36.7042C222.617 37.1352 223.232 37.7448 223.665 38.5331C224.112 39.3213 224.34 40.2107 224.351 41.2013ZM222.479 40.8375C222.472 40.1582 222.31 39.5724 221.993 39.0802C221.691 38.5736 221.276 38.1956 220.75 37.9459C220.224 37.6963 219.642 37.5746 219.005 37.5808C218.086 37.5898 217.303 37.8875 216.658 38.4741C216.028 39.0605 215.675 39.8706 215.601 40.9045L222.479 40.8375ZM228.531 37.8913C228.836 37.2656 229.284 36.7801 229.875 36.4346C230.466 36.0892 231.185 35.9124 232.035 35.9041L232.054 37.772L231.566 37.7768C229.542 37.7965 228.542 38.9031 228.565 41.0966L228.627 47.0401L226.802 47.0579L226.687 36.1473L228.513 36.1295L228.531 37.8913ZM244.301 47.0571C243.282 47.0671 242.353 46.8497 241.513 46.405C240.688 45.946 240.03 45.2943 239.54 44.4499C239.064 43.5913 238.82 42.5959 238.808 41.4638C238.796 40.3458 239.027 39.36 239.499 38.5062C239.985 37.6381 240.643 36.9736 241.473 36.5127C242.304 36.0517 243.235 35.8161 244.268 35.8061C245.301 35.796 246.238 36.0133 247.078 36.458C247.931 36.9026 248.603 37.5471 249.093 38.3914C249.583 39.2358 249.834 40.2241 249.846 41.3562C249.858 42.4883 249.621 43.4884 249.135 44.3564C248.648 45.2103 247.983 45.8749 247.139 46.3502C246.294 46.8113 245.349 47.0469 244.301 47.0571ZM244.285 45.4651C244.936 45.4588 245.543 45.3042 246.106 45.0016C246.682 44.6846 247.145 44.2201 247.492 43.6082C247.839 42.9962 248.009 42.2515 247.999 41.3742C247.99 40.4968 247.805 39.7556 247.445 39.1505C247.099 38.5453 246.642 38.0969 246.073 37.8053C245.518 37.5135 244.915 37.3707 244.264 37.3771C243.599 37.3836 242.992 37.5381 242.443 37.8406C241.894 38.1432 241.46 38.6003 241.141 39.212C240.822 39.8236 240.667 40.5682 240.676 41.4456C240.685 42.3371 240.856 43.0855 241.188 43.6908C241.52 44.2962 241.956 44.7448 242.497 45.0368C243.038 45.3287 243.634 45.4715 244.285 45.4651ZM261.853 35.8045L261.967 46.7151L260.163 46.7327L260.146 45.1195C259.798 45.6748 259.314 46.1183 258.695 46.4498C258.09 46.7671 257.419 46.9293 256.684 46.9365C255.834 46.9447 255.068 46.7753 254.385 46.4281C253.702 46.081 253.159 45.5555 252.756 44.8518C252.366 44.148 252.166 43.2937 252.156 42.289L252.089 35.8997L253.872 35.8823L253.936 42.0381C253.947 43.1136 254.225 43.9388 254.769 44.5138C255.327 45.0745 256.073 45.3502 257.006 45.3411C257.983 45.3316 258.744 45.027 259.29 44.4272C259.85 43.8274 260.123 42.9543 260.111 41.8081L260.049 35.8221L261.853 35.8045ZM266.761 37.5187C267.065 36.893 267.513 36.4075 268.104 36.062C268.695 35.7166 269.415 35.5398 270.264 35.5315L270.283 37.3994L269.795 37.4042C267.771 37.4239 266.771 38.5305 266.794 40.7239L266.856 46.6675L265.031 46.6852L264.917 35.7747L266.742 35.7569L266.761 37.5187Z" fill="#25282A"/>
<path d="M69.6238 61.5908L69.738 72.5014L67.9338 72.519L67.9169 70.9058C67.5689 71.4611 67.0853 71.9045 66.4661 72.2361C65.8608 72.5533 65.1902 72.7156 64.4544 72.7228C63.6053 72.731 62.8393 72.5616 62.1563 72.2144C61.4734 71.8673 60.9301 71.3418 60.5264 70.6381C60.1369 69.9343 59.9369 69.08 59.9264 68.0753L59.8594 61.686L61.6425 61.6686L61.7069 67.8244C61.7182 68.8999 61.9957 69.7251 62.5396 70.3001C63.0974 70.8607 63.8433 71.1365 64.7773 71.1274C65.7538 71.1179 66.5149 70.8133 67.0605 70.2135C67.6204 69.6137 67.8943 68.7406 67.8822 67.5944L67.8196 61.6084L69.6238 61.5908ZM74.5341 63.5597C74.8812 62.9336 75.4065 62.4119 76.1098 61.9946C76.8129 61.5632 77.6386 61.3429 78.5866 61.3336C79.549 61.3242 80.4288 61.5492 81.2262 62.0084C82.0234 62.4535 82.6529 63.0984 83.1147 63.9431C83.5762 64.7736 83.8128 65.7479 83.8245 66.8658C83.8361 67.9696 83.62 68.9553 83.1762 69.8229C82.7324 70.6906 82.1168 71.3688 81.3294 71.8577C80.5417 72.3324 79.6668 72.5745 78.7046 72.5839C77.7705 72.593 76.9476 72.3958 76.2358 71.9923C75.5238 71.5746 74.9805 71.0563 74.6061 70.4372L74.6813 77.6331L72.8559 77.6509L72.6874 61.561L74.5129 61.5431L74.5341 63.5597ZM81.9778 66.8838C81.9692 66.063 81.7919 65.35 81.446 64.7448C81.114 64.1395 80.6635 63.6839 80.0942 63.3781C79.5247 63.0582 78.9003 62.9015 78.2211 62.9081C77.556 62.9146 76.9421 63.0833 76.3794 63.4143C75.8168 63.7453 75.3689 64.2238 75.0358 64.8498C74.7167 65.4615 74.5613 66.1706 74.5697 66.9772C74.5784 67.798 74.7487 68.5181 75.0807 69.1376C75.4267 69.7428 75.8844 70.2054 76.4539 70.5253C77.0234 70.8453 77.6407 71.002 78.3057 70.9956C78.985 70.9889 79.606 70.8201 80.1686 70.4891C80.7313 70.1581 81.1721 69.6868 81.4912 69.0751C81.8244 68.4492 81.9866 67.7187 81.9778 66.8838ZM85.5247 66.8492C85.513 65.7313 85.7292 64.7526 86.1732 63.9133C86.6172 63.0598 87.233 62.4028 88.0207 61.9422C88.8083 61.4675 89.6903 61.2254 90.6667 61.2159C91.5158 61.2076 92.3033 61.398 93.0292 61.7872C93.7691 62.1622 94.3404 62.6661 94.7433 63.299L94.683 57.5253L96.5084 57.5075L96.6628 72.239L94.8372 72.2568L94.8156 70.1978C94.4545 70.8523 93.9224 71.3953 93.2192 71.8267C92.5302 72.2439 91.7116 72.4571 90.7634 72.4663C89.8011 72.4757 88.9213 72.2507 88.124 71.7915C87.3264 71.3181 86.6967 70.6519 86.2349 69.7931C85.7729 68.9343 85.5362 67.953 85.5247 66.8492ZM94.7798 66.7802C94.7712 65.9595 94.5939 65.2465 94.248 64.6413C93.916 64.036 93.4654 63.5733 92.896 63.2534C92.3265 62.9334 91.7021 62.7767 91.0229 62.7833C90.3437 62.79 89.7227 62.9588 89.16 63.2898C88.6114 63.6065 88.1775 64.0707 87.8583 64.6823C87.5392 65.294 87.384 66.0102 87.3926 66.831C87.4014 67.6659 87.5717 68.3931 87.9038 69.0126C88.2356 69.6179 88.6791 70.0807 89.2345 70.4008C89.804 70.7207 90.4283 70.8774 91.1075 70.8708C91.7868 70.8642 92.4078 70.6954 92.9705 70.3644C93.5331 70.0334 93.974 69.562 94.2931 68.9503C94.6262 68.3244 94.7884 67.601 94.7798 66.7802ZM98.9845 66.718C98.9727 65.6001 99.1889 64.6214 99.6331 63.7821C100.077 62.9286 100.693 62.2716 101.481 61.811C102.268 61.3363 103.143 61.0943 104.105 61.0849C105.068 61.0755 105.898 61.2726 106.595 61.6763C107.307 62.0797 107.843 62.5911 108.204 63.2103L108.183 61.215L110.008 61.1972L110.123 72.1078L108.297 72.1256L108.276 70.0878C107.914 70.7282 107.382 71.2641 106.679 71.6956C105.976 72.1128 105.15 72.3261 104.202 72.3353C103.24 72.3447 102.36 72.1198 101.562 71.6605C100.779 71.1869 100.157 70.5208 99.6946 69.6619C99.2328 68.8031 98.9961 67.8218 98.9845 66.718ZM108.24 66.649C108.231 65.8283 108.054 65.1153 107.708 64.5101C107.376 63.9048 106.925 63.4421 106.356 63.1222C105.786 62.8022 105.162 62.6455 104.483 62.6522C103.803 62.6588 103.183 62.8276 102.62 63.1586C102.071 63.4753 101.637 63.9395 101.318 64.5512C100.999 65.1628 100.844 65.879 100.853 66.6998C100.861 67.5348 101.032 68.262 101.364 68.8814C101.695 69.4868 102.139 69.9495 102.694 70.2696C103.264 70.5895 103.888 70.7462 104.567 70.7396C105.247 70.733 105.868 70.5641 106.43 70.2331C106.993 69.9021 107.434 69.4308 107.753 68.8192C108.086 68.1932 108.248 67.4698 108.24 66.649ZM115.29 62.6317L115.357 69.0634C115.363 69.6012 115.48 69.9822 115.709 70.2064C115.938 70.4165 116.335 70.5187 116.901 70.5132L118.217 70.5004L118.233 72.0287L116.62 72.0445C115.601 72.0544 114.835 71.8283 114.32 71.3663C113.82 70.9042 113.564 70.1424 113.553 69.0811L113.486 62.6493L112.064 62.6632L112.048 61.1773L113.47 61.1634L113.442 58.4252L115.246 58.4076L115.274 61.1458L118.119 61.1181L118.134 62.604L115.29 62.6317ZM130.323 66.0305C130.326 66.3842 130.309 66.7524 130.271 67.1349L121.568 67.2197C121.635 68.2946 122.005 69.1331 122.677 69.7352C123.362 70.3229 124.186 70.6121 125.148 70.6027C125.927 70.5951 126.576 70.4118 127.096 70.053C127.615 69.6799 127.978 69.181 128.184 68.5563L130.137 68.5373C129.851 69.6015 129.272 70.4634 128.402 71.1229C127.531 71.7824 126.452 72.1185 125.164 72.131C124.117 72.1412 123.181 71.9239 122.355 71.479C121.544 71.0199 120.9 70.3681 120.424 69.5236C119.948 68.6649 119.704 67.6695 119.692 66.5374C119.68 65.4053 119.896 64.4125 120.34 63.559C120.784 62.7056 121.407 62.0485 122.209 61.5877C123.025 61.1269 123.971 60.8912 125.046 60.8807C126.079 60.8707 126.995 61.0882 127.792 61.5333C128.589 61.9643 129.204 62.574 129.637 63.3623C130.084 64.1505 130.312 65.0399 130.323 66.0305ZM128.451 65.6666C128.444 64.9873 128.282 64.4016 127.965 63.9093C127.663 63.4028 127.248 63.0247 126.722 62.7751C126.196 62.5254 125.614 62.4037 124.978 62.4099C124.058 62.4189 123.275 62.7167 122.63 63.3032C122 63.8896 121.647 64.6998 121.573 65.7336L128.451 65.6666ZM132.037 66.3959C132.025 65.2779 132.241 64.2993 132.685 63.46C133.129 62.6065 133.745 61.9494 134.533 61.4889C135.32 61.0142 136.202 60.772 137.179 60.7625C138.028 60.7542 138.816 60.9447 139.541 61.3339C140.281 61.7088 140.853 62.2127 141.256 62.8457L141.195 57.072L143.021 57.0542L143.175 71.7856L141.349 71.8034L141.328 69.7444C140.967 70.399 140.435 70.9419 139.731 71.3734C139.042 71.7905 138.224 72.0037 137.276 72.0129C136.313 72.0223 135.433 71.7974 134.636 71.3381C133.839 70.8647 133.209 70.1986 132.747 69.3398C132.285 68.481 132.048 67.4997 132.037 66.3959ZM141.292 66.3269C141.283 65.5061 141.106 64.7931 140.76 64.1879C140.428 63.5826 139.978 63.12 139.408 62.8C138.839 62.48 138.214 62.3234 137.535 62.33C136.856 62.3366 136.235 62.5054 135.672 62.8364C135.124 63.1531 134.69 63.6173 134.371 64.229C134.051 64.8407 133.896 65.5569 133.905 66.3776C133.914 67.2126 134.084 67.9398 134.416 68.5593C134.748 69.1646 135.191 69.6273 135.747 69.9474C136.316 70.2674 136.941 70.424 137.62 70.4174C138.299 70.4108 138.92 70.242 139.483 69.911C140.045 69.58 140.486 69.1087 140.805 68.497C141.138 67.871 141.301 67.1477 141.292 66.3269ZM153.221 56.9548L153.375 71.6862L151.55 71.704L151.395 56.9725L153.221 56.9548ZM166.342 65.6794C166.345 66.0332 166.328 66.4013 166.29 66.7838L157.587 66.8686C157.654 67.9436 158.024 68.7821 158.696 69.3841C159.381 69.9718 160.205 70.261 161.167 70.2516C161.946 70.244 162.595 70.0608 163.115 69.7019C163.634 69.3289 163.997 68.83 164.203 68.2052L166.156 68.1862C165.87 69.2505 165.291 70.1123 164.421 70.7718C163.55 71.4314 162.471 71.7674 161.183 71.7799C160.136 71.7901 159.2 71.5728 158.374 71.128C157.563 70.6689 156.919 70.017 156.443 69.1725C155.967 68.3138 155.723 67.3184 155.711 66.1863C155.699 65.0542 155.915 64.0614 156.359 63.208C156.803 62.3545 157.426 61.6974 158.228 61.2367C159.044 60.7758 159.99 60.5402 161.065 60.5297C162.098 60.5196 163.014 60.7372 163.811 61.1823C164.608 61.6132 165.223 62.2229 165.656 63.0112C166.103 63.7994 166.331 64.6888 166.342 65.6794ZM164.47 65.3155C164.463 64.6362 164.301 64.0505 163.984 63.5582C163.682 63.0517 163.267 62.6736 162.741 62.424C162.215 62.1743 161.633 62.0526 160.997 62.0589C160.077 62.0678 159.294 62.3656 158.649 62.9521C158.019 63.5385 157.666 64.3487 157.592 65.3825L164.47 65.3155ZM168.056 66.0448C168.044 64.9268 168.26 63.9482 168.704 63.1089C169.148 62.2554 169.764 61.5984 170.552 61.1378C171.34 60.6631 172.215 60.421 173.177 60.4117C174.139 60.4023 174.969 60.5994 175.667 61.003C176.379 61.4065 176.915 61.9179 177.275 62.5371L177.254 60.5417L179.08 60.5239L179.194 71.4346L177.368 71.4523L177.347 69.4146C176.986 70.055 176.454 70.5909 175.75 71.0223C175.047 71.4396 174.222 71.6529 173.273 71.6621C172.311 71.6715 171.431 71.4465 170.634 70.9873C169.851 70.5137 169.228 69.8475 168.766 68.9887C168.304 68.1299 168.067 67.1486 168.056 66.0448ZM177.311 65.9758C177.302 65.155 177.125 64.4421 176.779 63.8369C176.447 63.2315 175.997 62.7689 175.427 62.4489C174.858 62.129 174.233 61.9723 173.554 61.9789C172.875 61.9855 172.254 62.1543 171.691 62.4853C171.143 62.802 170.709 63.2662 170.39 63.8779C170.07 64.4896 169.915 65.2058 169.924 66.0266C169.933 66.8615 170.103 67.5887 170.435 68.2082C170.767 68.8135 171.21 69.2762 171.766 69.5963C172.335 69.9163 172.96 70.073 173.639 70.0663C174.318 70.0597 174.939 69.8909 175.502 69.5599C176.064 69.2289 176.505 68.7576 176.824 68.1459C177.157 67.52 177.32 66.7966 177.311 65.9758ZM183.982 62.2382C184.287 61.6125 184.735 61.1269 185.326 60.7815C185.916 60.4361 186.636 60.2592 187.486 60.251L187.505 62.1189L187.017 62.1237C184.993 62.1434 183.993 63.25 184.016 65.4434L184.078 71.387L182.253 71.4047L182.138 60.4941L183.964 60.4763L183.982 62.2382ZM194.891 60.1788C196.207 60.1659 197.28 60.5588 198.109 61.3575C198.952 62.1418 199.382 63.2911 199.398 64.8052L199.465 71.237L197.661 71.2546L197.596 65.0776C197.585 63.9879 197.3 63.1627 196.742 62.6021C196.198 62.0271 195.459 61.7442 194.526 61.7533C193.563 61.7627 192.802 62.0673 192.242 62.6671C191.697 63.2669 191.43 64.1399 191.442 65.2861L191.505 71.3146L189.679 71.3324L189.565 60.4217L191.391 60.4039L191.407 61.9535C191.755 61.3982 192.232 60.9689 192.837 60.6658C193.456 60.3484 194.141 60.1861 194.891 60.1788ZM203.224 58.5054C202.884 58.5087 202.593 58.3983 202.35 58.1742C202.107 57.936 201.983 57.64 201.979 57.2862C201.976 56.9466 202.093 56.6553 202.331 56.4124C202.569 56.1695 202.858 56.0464 203.198 56.043C203.537 56.0397 203.822 56.1573 204.051 56.3956C204.294 56.6339 204.417 56.9228 204.421 57.2624C204.424 57.6162 204.307 57.9146 204.069 58.1575C203.845 58.3861 203.563 58.502 203.224 58.5054ZM204.134 60.2797L204.248 71.1904L202.423 71.2081L202.308 60.2975L204.134 60.2797ZM212.532 60.0068C213.848 59.994 214.921 60.3869 215.75 61.1855C216.593 61.9699 217.023 63.1191 217.039 64.6333L217.106 71.065L215.302 71.0826L215.237 64.9056C215.226 63.8159 214.941 62.9908 214.383 62.4301C213.839 61.8551 213.101 61.5722 212.167 61.5813C211.204 61.5907 210.443 61.8953 209.883 62.4952C209.338 63.0949 209.071 63.9679 209.083 65.1142L209.146 71.1426L207.321 71.1604L207.206 60.2498L209.032 60.232L209.048 61.7816C209.396 61.2262 209.873 60.797 210.478 60.4939C211.098 60.1765 211.782 60.0141 212.532 60.0068ZM224.448 59.9119C225.396 59.9027 226.226 60.0998 226.938 60.5033C227.65 60.9068 228.186 61.4181 228.546 62.0373L228.525 60.042L230.351 60.0242L230.467 71.1683C230.478 72.173 230.275 73.0596 229.858 73.8279C229.442 74.6103 228.84 75.2248 228.052 75.6712C227.264 76.1176 226.346 76.3459 225.299 76.3561C223.87 76.37 222.671 76.0421 221.701 75.3722C220.746 74.7163 220.178 73.802 219.995 72.6291L221.778 72.6117C221.984 73.2748 222.4 73.8015 223.026 74.1917C223.653 74.596 224.405 74.7939 225.283 74.7853C226.273 74.7757 227.084 74.4564 227.714 73.8276C228.344 73.1987 228.654 72.3182 228.642 71.1861L228.618 68.8936C228.257 69.534 227.724 70.0699 227.021 70.5014C226.332 70.9326 225.514 71.1529 224.565 71.1622C223.603 71.1715 222.723 70.9466 221.926 70.4873C221.128 70.0139 220.499 69.3478 220.037 68.489C219.575 67.6302 219.338 66.6489 219.327 65.5451C219.315 64.4271 219.531 63.4485 219.975 62.6091C220.419 61.7556 221.035 61.0986 221.823 60.638C222.61 60.1633 223.485 59.9213 224.448 59.9119ZM228.582 65.4761C228.573 64.6553 228.396 63.9423 228.05 63.3371C227.718 62.7318 227.268 62.2692 226.698 61.9492C226.129 61.6292 225.504 61.4726 224.825 61.4792C224.146 61.4858 223.525 61.6546 222.962 61.9856C222.413 62.3023 221.98 62.7665 221.661 63.3782C221.341 63.9899 221.186 64.7061 221.195 65.5269C221.203 66.3618 221.374 67.089 221.706 67.7085C222.038 68.3138 222.481 68.7765 223.037 69.0966C223.606 69.4166 224.23 69.5733 224.91 69.5666C225.589 69.56 226.21 69.3912 226.773 69.0602C227.335 68.7292 227.776 68.2579 228.095 67.6462C228.428 67.0202 228.591 66.2968 228.582 65.4761Z" fill="#25282A"/>
<path d="M59.5669 91.0346C59.5549 89.9025 59.771 88.9168 60.2152 88.0775C60.6591 87.224 61.282 86.5669 62.0839 86.1062C62.8857 85.6313 63.8031 85.3889 64.8361 85.3788C66.1805 85.3657 67.2877 85.6804 68.1578 86.323C69.0277 86.9514 69.6102 87.8444 69.9054 89.002L67.9524 89.0211C67.7615 88.3578 67.3952 87.8377 66.8534 87.4608C66.3116 87.084 65.6446 86.8994 64.8522 86.9071C63.8191 86.9172 62.9878 87.2791 62.3584 87.9929C61.729 88.7067 61.4212 89.7145 61.4348 91.0164C61.4486 92.3325 61.7777 93.3483 62.422 94.0638C63.0663 94.7651 63.9049 95.1108 64.9379 95.1007C65.7304 95.093 66.3865 94.9026 66.9063 94.5296C67.4402 94.1564 67.8026 93.6221 67.9934 92.9268L69.9462 92.9078C69.6607 94.0286 69.0828 94.9259 68.2125 95.5995C67.3562 96.273 66.27 96.6162 64.954 96.629C63.9209 96.6391 62.9987 96.4217 62.1874 95.9767C61.3758 95.5176 60.7392 94.8657 60.2774 94.021C59.8156 93.1763 59.5788 92.1809 59.5669 91.0346ZM77.146 96.5102C76.1272 96.5201 75.1979 96.3028 74.3582 95.8581C73.5325 95.3991 72.8746 94.7474 72.3846 93.903C71.9087 93.0443 71.6647 92.0489 71.6528 90.9168C71.641 89.7989 71.8713 88.813 72.3437 87.9593C72.8299 87.0912 73.4881 86.4267 74.3182 85.9657C75.1484 85.5047 76.0801 85.2692 77.1132 85.2592C78.1462 85.2491 79.0825 85.4664 79.9222 85.9111C80.776 86.3557 81.4479 87.0001 81.9381 87.8445C82.4281 88.6889 82.679 89.6771 82.6908 90.8093C82.7027 91.9414 82.4654 92.9414 81.9792 93.8095C81.4928 94.6634 80.8276 95.328 79.9834 95.8032C79.1391 96.2644 78.1933 96.5 77.146 96.5102ZM77.1294 94.9182C77.7803 94.9118 78.3872 94.7573 78.9502 94.4546C79.5271 94.1376 79.9893 93.6732 80.3368 93.0612C80.6842 92.4493 80.8533 91.7046 80.8442 90.8272C80.835 89.9499 80.6503 89.2087 80.2901 88.6036C79.9441 87.9984 79.4866 87.55 78.9174 87.2583C78.3624 86.9665 77.7593 86.8238 77.1084 86.8302C76.4432 86.8366 75.8363 86.9911 75.2876 87.2937C74.7387 87.5962 74.3048 88.0534 73.9857 88.6651C73.6666 89.2767 73.5116 90.0212 73.5208 90.8986C73.5301 91.7902 73.7007 92.5386 74.0326 93.1439C74.3644 93.7492 74.8007 94.1979 75.3416 94.4898C75.8825 94.7818 76.4784 94.9246 77.1294 94.9182ZM94.6978 85.2576L94.812 96.1682L93.0077 96.1858L92.9907 94.5725C92.6428 95.1279 92.1592 95.5713 91.5399 95.9029C90.9347 96.2202 90.2641 96.3824 89.5282 96.3895C88.6791 96.3978 87.9131 96.2284 87.2301 95.8812C86.5472 95.534 86.0039 95.0086 85.6002 94.3049C85.2107 93.6011 85.0107 92.7468 85.0002 91.742L84.9332 85.3528L86.7164 85.3354L86.7809 91.4912C86.7922 92.5667 87.0697 93.3919 87.6134 93.9668C88.1713 94.5275 88.9172 94.8033 89.8511 94.7942C90.8276 94.7847 91.5887 94.4801 92.1343 93.8803C92.6942 93.2805 92.9681 92.4074 92.9561 91.2611L92.8934 85.2752L94.6978 85.2576ZM99.6053 86.9717C99.9101 86.3461 100.358 85.8605 100.949 85.5151C101.539 85.1697 102.259 84.9928 103.108 84.9846L103.128 86.8525L102.64 86.8573C100.616 86.877 99.6158 87.9836 99.6388 90.177L99.7011 96.1205L97.8755 96.1384L97.7612 85.2277L99.5868 85.2099L99.6053 86.9717ZM109.167 96.1981C108.333 96.2063 107.581 96.0721 106.913 95.7955C106.245 95.519 105.717 95.1278 105.33 94.6221C104.942 94.1164 104.724 93.5312 104.674 92.8665L106.542 92.8483C106.605 93.3855 106.864 93.8287 107.32 94.1781C107.791 94.5132 108.394 94.6772 109.13 94.67C109.824 94.6632 110.367 94.5093 110.76 94.2083C111.153 93.8931 111.347 93.502 111.342 93.035C111.337 92.5539 111.121 92.2021 110.694 91.9799C110.267 91.7576 109.607 91.5376 108.713 91.3198C107.904 91.1154 107.244 90.9096 106.732 90.7023C106.22 90.4808 105.778 90.1596 105.406 89.7387C105.033 89.3036 104.843 88.7323 104.836 88.0247C104.83 87.4728 104.988 86.9618 105.308 86.4916C105.643 86.0213 106.113 85.6487 106.719 85.3739C107.339 85.099 108.038 84.9577 108.816 84.9501C110.019 84.9384 110.992 85.2332 111.734 85.8346C112.49 86.4357 112.902 87.2667 112.97 88.3275L111.166 88.3451C111.117 87.7795 110.879 87.3289 110.451 86.9934C110.037 86.6436 109.476 86.4722 108.768 86.4791C108.117 86.4854 107.602 86.632 107.223 86.9188C106.844 87.1914 106.657 87.5541 106.662 88.0069C106.665 88.3607 106.782 88.6567 107.011 88.8951C107.253 89.1192 107.545 89.3003 107.887 89.4385C108.242 89.5766 108.732 89.7275 109.356 89.8913C110.151 90.0958 110.79 90.3019 111.273 90.5094C111.771 90.7027 112.198 91.0028 112.556 91.4098C112.914 91.8167 113.104 92.3526 113.125 93.0176C113.131 93.612 112.967 94.1514 112.633 94.6359C112.312 95.1202 111.849 95.4997 111.244 95.7745C110.652 96.0492 109.96 96.1904 109.167 96.1981ZM125.59 89.9878C125.593 90.3416 125.576 90.7097 125.538 91.0922L116.835 91.177C116.903 92.252 117.272 93.0904 117.944 93.6924C118.629 94.2802 119.453 94.5693 120.415 94.56C121.194 94.5524 121.843 94.3692 122.363 94.0103C122.882 93.6372 123.245 93.1384 123.451 92.5136L125.404 92.4946C125.118 93.5588 124.539 94.4207 123.669 95.0802C122.798 95.7397 121.719 96.0758 120.431 96.0883C119.384 96.0985 118.448 95.8812 117.622 95.4364C116.811 94.9772 116.167 94.3254 115.691 93.4809C115.215 92.6222 114.971 91.6268 114.959 90.4947C114.947 89.3626 115.163 88.3698 115.607 87.5163C116.051 86.6628 116.674 86.0058 117.476 85.5451C118.292 85.0842 119.238 84.8486 120.314 84.8381C121.347 84.828 122.262 85.0455 123.059 85.4906C123.856 85.9216 124.471 86.5313 124.904 87.3196C125.351 88.1078 125.579 88.9972 125.59 89.9878ZM123.718 89.6239C123.711 88.9446 123.549 88.3589 123.232 87.8666C122.93 87.3601 122.515 86.982 121.989 86.7324C121.463 86.4827 120.881 86.361 120.245 86.3672C119.325 86.3762 118.542 86.674 117.898 87.2605C117.267 87.8469 116.914 88.6571 116.84 89.6909L123.718 89.6239ZM129.882 93.3213L127.71 98.6922L126.5 98.704L127.908 93.3406L129.882 93.3213ZM138.971 81.0048L139.125 95.7363L137.299 95.7541L137.145 81.0226L138.971 81.0048ZM141.461 90.2152C141.449 89.0972 141.665 88.1186 142.109 87.2793C142.553 86.4258 143.169 85.7688 143.957 85.3082C144.744 84.8335 145.619 84.5914 146.582 84.5821C147.544 84.5727 148.374 84.7698 149.072 85.1734C149.783 85.5769 150.32 86.0883 150.68 86.7075L150.659 84.7121L152.484 84.6943L152.599 95.605L150.773 95.6227L150.752 93.585C150.391 94.2254 149.858 94.7613 149.155 95.1927C148.452 95.61 147.626 95.8233 146.678 95.8325C145.716 95.8419 144.836 95.6169 144.039 95.1577C143.255 94.6841 142.633 94.0179 142.171 93.1591C141.709 92.3003 141.472 91.319 141.461 90.2152ZM150.716 90.1462C150.707 89.3254 150.53 88.6125 150.184 88.0073C149.852 87.4019 149.401 86.9393 148.832 86.6193C148.262 86.2994 147.638 86.1427 146.959 86.1493C146.28 86.1559 145.659 86.3247 145.096 86.6557C144.547 86.9724 144.113 87.4366 143.794 88.0483C143.475 88.66 143.32 89.3762 143.329 90.197C143.337 91.0319 143.508 91.7591 143.84 92.3786C144.172 92.9839 144.615 93.4466 145.17 93.7667C145.74 94.0867 146.364 94.2434 147.044 94.2367C147.723 94.2301 148.344 94.0613 148.906 93.7303C149.469 93.3993 149.91 92.928 150.229 92.3163C150.562 91.6904 150.724 90.967 150.716 90.1462ZM157.766 86.1289L157.834 92.5606C157.839 93.0984 157.956 93.4794 158.185 93.7036C158.414 93.9136 158.811 94.0159 159.377 94.0104L160.693 93.9976L160.709 95.5259L159.096 95.5416C158.077 95.5516 157.311 95.3255 156.796 94.8635C156.296 94.4013 156.04 93.6396 156.029 92.5782L155.962 86.1465L154.54 86.1604L154.524 84.6745L155.946 84.6606L155.918 81.9223L157.722 81.9048L157.751 84.643L160.595 84.6153L160.611 86.1012L157.766 86.1289ZM172.799 89.5276C172.802 89.8814 172.785 90.2496 172.747 90.632L164.044 90.7169C164.111 91.7918 164.481 92.6303 165.153 93.2323C165.838 93.82 166.662 94.1092 167.624 94.0998C168.403 94.0922 169.052 93.909 169.572 93.5502C170.091 93.1771 170.454 92.6782 170.66 92.0535L172.613 92.0345C172.327 93.0987 171.748 93.9606 170.878 94.6201C170.007 95.2796 168.928 95.6156 167.64 95.6282C166.593 95.6384 165.657 95.4211 164.831 94.9762C164.02 94.5171 163.376 93.8653 162.9 93.0207C162.424 92.1621 162.18 91.1667 162.168 90.0346C162.156 88.9025 162.372 87.9097 162.817 87.0562C163.26 86.2027 163.883 85.5456 164.685 85.0849C165.501 84.6241 166.447 84.3884 167.522 84.3779C168.556 84.3679 169.471 84.5854 170.268 85.0305C171.065 85.4615 171.68 86.0711 172.113 86.8595C172.56 87.6476 172.788 88.537 172.799 89.5276ZM170.927 89.1637C170.92 88.4845 170.758 87.8987 170.441 87.4065C170.139 86.8999 169.724 86.5218 169.198 86.2722C168.672 86.0226 168.09 85.9009 167.454 85.9071C166.534 85.9161 165.751 86.2138 165.106 86.8003C164.476 87.3868 164.123 88.1969 164.049 89.2308L170.927 89.1637ZM179.115 95.5163C178.28 95.5245 177.528 95.3903 176.86 95.1137C176.192 94.8372 175.665 94.4461 175.277 93.9403C174.89 93.4346 174.671 92.8494 174.622 92.1847L176.49 92.1665C176.552 92.7037 176.811 93.147 177.268 93.4963C177.739 93.8314 178.342 93.9954 179.078 93.9882C179.771 93.9814 180.314 93.8276 180.707 93.5265C181.1 93.2113 181.294 92.8202 181.29 92.3533C181.285 91.8721 181.069 91.5204 180.642 91.2981C180.215 91.0758 179.554 90.8558 178.66 90.6381C177.852 90.4337 177.191 90.2278 176.68 90.0205C176.168 89.7991 175.726 89.4779 175.353 89.0569C174.981 88.6218 174.791 88.0505 174.783 87.3429C174.778 86.791 174.935 86.28 175.256 85.8098C175.59 85.3395 176.061 84.967 176.666 84.6922C177.286 84.4172 177.985 84.276 178.764 84.2684C179.966 84.2566 180.939 84.5514 181.681 85.1528C182.438 85.754 182.85 86.585 182.917 87.6458L181.113 87.6634C181.065 87.0977 180.826 86.6471 180.398 86.3116C179.984 85.9619 179.423 85.7904 178.716 85.7973C178.065 85.8037 177.55 85.9502 177.171 86.237C176.791 86.5096 176.604 86.8723 176.609 87.3251C176.613 87.6789 176.729 87.975 176.958 88.2133C177.201 88.4374 177.493 88.6186 177.834 88.7568C178.189 88.8948 178.679 89.0457 179.304 89.2095C180.098 89.414 180.737 89.6201 181.221 89.8277C181.718 90.021 182.146 90.3211 182.504 90.728C182.862 91.1349 183.052 91.6709 183.073 92.3358C183.079 92.9302 182.915 93.4696 182.58 93.9541C182.26 94.4384 181.797 94.8179 181.191 95.0928C180.599 95.3674 179.907 95.5086 179.115 95.5163ZM187.752 85.8366L187.82 92.2683C187.825 92.8061 187.942 93.1871 188.171 93.4113C188.4 93.6214 188.797 93.7236 189.363 93.7181L190.679 93.7053L190.695 95.2336L189.082 95.2493C188.063 95.2593 187.297 95.0332 186.782 94.5712C186.282 94.1091 186.026 93.3473 186.015 92.286L185.948 85.8542L184.526 85.8681L184.51 84.3822L185.932 84.3683L185.904 81.6301L187.708 81.6125L187.737 84.3507L190.581 84.323L190.597 85.8089L187.752 85.8366ZM208.101 89.1835C208.105 89.5373 208.087 89.9055 208.049 90.288L199.346 90.3728C199.414 91.4477 199.783 92.2862 200.455 92.8882C201.14 93.476 201.964 93.7651 202.927 93.7558C203.705 93.7482 204.354 93.5649 204.874 93.206C205.394 92.833 205.756 92.3341 205.962 91.7094L207.915 91.6904C207.629 92.7546 207.051 93.6165 206.18 94.276C205.309 94.9355 204.23 95.2715 202.943 95.2841C201.895 95.2943 200.959 95.077 200.134 94.6321C199.322 94.173 198.678 93.5212 198.202 92.6767C197.726 91.818 197.482 90.8226 197.471 89.6905C197.459 88.5584 197.675 87.5656 198.119 86.7121C198.563 85.8586 199.186 85.2015 199.987 84.7408C200.804 84.28 201.749 84.0443 202.825 84.0339C203.858 84.0238 204.773 84.2413 205.57 84.6864C206.367 85.1174 206.982 85.727 207.415 86.5153C207.862 87.3035 208.091 88.1929 208.101 89.1835ZM206.229 88.8197C206.222 88.1404 206.06 87.5546 205.744 87.0624C205.441 86.5558 205.027 86.1778 204.5 85.9281C203.974 85.6785 203.393 85.5568 202.756 85.563C201.836 85.572 201.054 85.8697 200.409 86.4563C199.778 87.0427 199.426 87.8528 199.352 88.8867L206.229 88.8197ZM214.61 93.3234L217.888 84.0569L219.82 84.038L215.646 94.9904L213.545 95.0109L209.143 84.1421L211.096 84.123L214.61 93.3234ZM231.616 88.9543C231.62 89.3081 231.602 89.6762 231.564 90.0588L222.861 90.1436C222.929 91.2185 223.298 92.057 223.97 92.659C224.655 93.2468 225.479 93.5359 226.442 93.5266C227.22 93.519 227.869 93.3357 228.389 92.9768C228.909 92.6038 229.271 92.1049 229.477 91.4802L231.43 91.4612C231.144 92.5254 230.566 93.3873 229.695 94.0468C228.825 94.7063 227.745 95.0423 226.457 95.0549C225.41 95.0651 224.474 94.8478 223.648 94.4029C222.837 93.9438 222.193 93.292 221.717 92.4475C221.241 91.5888 220.997 90.5934 220.985 89.4613C220.974 88.3292 221.19 87.3364 221.634 86.4829C222.078 85.6294 222.701 84.9723 223.502 84.5116C224.318 84.0508 225.264 83.8151 226.34 83.8047C227.373 83.7946 228.288 84.0121 229.085 84.4572C229.882 84.8882 230.497 85.4978 230.93 86.2861C231.377 87.0743 231.606 87.9637 231.616 88.9543ZM229.744 88.5905C229.737 87.9112 229.575 87.3254 229.259 86.8332C228.956 86.3266 228.542 85.9486 228.015 85.6989C227.489 85.4493 226.908 85.3276 226.271 85.3338C225.351 85.3428 224.569 85.6405 223.924 86.2271C223.293 86.8135 222.941 87.6236 222.866 88.6575L229.744 88.5905ZM239.279 83.6573C240.595 83.6445 241.667 84.0374 242.497 84.836C243.34 85.6203 243.769 86.7696 243.785 88.2838L243.853 94.7155L242.048 94.7331L241.984 88.5561C241.972 87.4664 241.688 86.6413 241.13 86.0806C240.586 85.5056 239.847 85.2227 238.913 85.2318C237.951 85.2412 237.19 85.5458 236.63 86.1457C236.084 86.7454 235.817 87.6184 235.829 88.7647L235.893 94.7931L234.067 94.8109L233.953 83.9003L235.778 83.8825L235.794 85.4321C236.142 84.8767 236.619 84.4475 237.225 84.1444C237.844 83.827 238.529 83.6646 239.279 83.6573ZM248.919 85.2404L248.986 91.6722C248.992 92.2099 249.109 92.5909 249.338 92.8151C249.567 93.0252 249.964 93.1274 250.53 93.1219L251.846 93.1091L251.862 94.6374L250.249 94.6532C249.23 94.6631 248.463 94.437 247.949 93.975C247.449 93.5129 247.193 92.7511 247.182 91.6898L247.115 85.258L245.692 85.2719L245.677 83.786L247.099 83.7722L247.07 81.0339L248.875 81.0163L248.903 83.7545L251.748 83.7268L251.763 85.2127L248.919 85.2404ZM270.03 94.4603L268.206 92.6524C267.534 93.3525 266.811 93.8761 266.036 94.2233C265.276 94.5704 264.414 94.7486 263.452 94.758C262.49 94.7674 261.639 94.6058 260.899 94.2734C260.16 93.9268 259.581 93.4371 259.164 92.8043C258.762 92.1713 258.556 91.4303 258.547 90.5812C258.537 89.6189 258.804 88.7672 259.348 88.0259C259.892 87.2847 260.7 86.6966 261.771 86.2615C261.341 85.7562 261.025 85.2923 260.822 84.8697C260.634 84.4469 260.537 83.9808 260.531 83.4714C260.525 82.8912 260.668 82.3661 260.961 81.8963C261.253 81.4264 261.674 81.0543 262.223 80.78C262.786 80.5057 263.436 80.3649 264.171 80.3577C264.893 80.3507 265.517 80.4861 266.044 80.764C266.584 81.0276 266.985 81.4129 267.245 81.9199C267.519 82.4126 267.645 82.9633 267.623 83.5721L265.819 83.5897C265.827 83.0518 265.667 82.6288 265.338 82.3206C265.024 81.9982 264.612 81.8394 264.102 81.8444C263.578 81.8495 263.156 82.0093 262.833 82.3238C262.511 82.6241 262.352 83.0007 262.357 83.4536C262.361 83.864 262.471 84.2521 262.688 84.618C262.918 84.9837 263.291 85.44 263.806 85.987L267.989 90.1071L268.344 89.5304L269.678 87.2459L271.631 87.2269L270.027 90.0872C269.804 90.4856 269.54 90.9057 269.233 91.3475L272.407 94.4372L270.03 94.4603ZM263.436 93.2084C264.143 93.2015 264.786 93.0608 265.363 92.7863C265.94 92.4976 266.481 92.0536 266.984 91.4543L262.865 87.3972C261.174 88.0647 260.336 89.1061 260.351 90.5212C260.359 91.2995 260.649 91.9477 261.22 92.4658C261.791 92.9697 262.53 93.2172 263.436 93.2084Z" fill="#25282A"/>
<path d="M62.2892 111.524C62.6504 110.87 63.1826 110.334 63.8857 109.917C64.6032 109.499 65.4218 109.286 66.3417 109.277C67.3181 109.268 68.1979 109.492 68.9811 109.952C69.7784 110.397 70.4079 111.042 70.8696 111.887C71.3312 112.717 71.5678 113.691 71.5796 114.809C71.5912 115.913 71.3751 116.899 70.9313 117.766C70.4874 118.634 69.8717 119.312 69.0843 119.801C68.2967 120.276 67.4218 120.518 66.4595 120.527C65.5114 120.537 64.6814 120.339 63.9695 119.936C63.2577 119.532 62.7215 119.014 62.361 118.381L62.3822 120.397L60.5566 120.415L60.4023 105.684L62.2278 105.666L62.2892 111.524ZM69.7329 114.827C69.7243 114.007 69.5469 113.294 69.2009 112.688C68.8691 112.083 68.4185 111.627 67.8491 111.322C67.2797 111.002 66.6553 110.845 65.976 110.852C65.3109 110.858 64.697 111.027 64.1345 111.358C63.5718 111.689 63.124 112.167 62.7908 112.793C62.4717 113.405 62.3164 114.114 62.3248 114.921C62.3334 115.741 62.5038 116.462 62.8358 117.081C63.1817 117.686 63.6395 118.149 64.209 118.469C64.7784 118.789 65.3956 118.946 66.0608 118.939C66.7401 118.932 67.361 118.764 67.9237 118.433C68.4864 118.102 68.9272 117.63 69.2463 117.019C69.5794 116.393 69.7416 115.662 69.7329 114.827ZM78.7732 120.407C77.7543 120.417 76.8249 120.2 75.9852 119.755C75.1596 119.296 74.5018 118.644 74.0117 117.8C73.5357 116.941 73.2917 115.946 73.2798 114.814C73.2682 113.696 73.4985 112.71 73.9707 111.856C74.457 110.988 75.1152 110.324 75.9454 109.863C76.7755 109.402 77.7071 109.166 78.7402 109.156C79.7733 109.146 80.7097 109.363 81.5493 109.808C82.4031 110.253 83.0751 110.897 83.5651 111.742C84.0551 112.586 84.306 113.574 84.3179 114.706C84.3298 115.838 84.0927 116.839 83.6064 117.707C83.1199 118.56 82.4546 119.225 81.6105 119.7C80.7661 120.161 79.8203 120.397 78.7732 120.407ZM78.7565 118.815C79.4075 118.809 80.0144 118.654 80.5773 118.352C81.1543 118.035 81.6165 117.57 81.9639 116.958C82.3113 116.346 82.4804 115.602 82.4712 114.724C82.462 113.847 82.2773 113.106 81.9171 112.501C81.5712 111.895 81.1136 111.447 80.5444 111.155C79.9894 110.864 79.3864 110.721 78.7354 110.727C78.0703 110.734 77.4633 110.888 76.9146 111.191C76.3658 111.493 75.9318 111.95 75.6127 112.562C75.2936 113.174 75.1387 113.918 75.1479 114.796C75.1571 115.687 75.3277 116.436 75.6597 117.041C75.9915 117.646 76.4278 118.095 76.9687 118.387C77.5095 118.679 78.1055 118.822 78.7565 118.815ZM91.5162 120.283C90.4973 120.293 89.568 120.076 88.7283 119.631C87.9026 119.172 87.2448 118.52 86.7548 117.676C86.2787 116.817 86.0347 115.822 86.0229 114.69C86.0112 113.572 86.2414 112.586 86.7137 111.732C87.2 110.864 87.8583 110.2 88.6884 109.739C89.5186 109.278 90.4502 109.042 91.4833 109.032C92.5163 109.022 93.4527 109.239 94.2924 109.684C95.1462 110.129 95.818 110.773 96.3081 111.617C96.7982 112.462 97.0492 113.45 97.061 114.582C97.0728 115.714 96.8356 116.714 96.3494 117.582C95.863 118.436 95.1977 119.101 94.3534 119.576C93.5092 120.037 92.5634 120.273 91.5162 120.283ZM91.4996 118.691C92.1505 118.685 92.7574 118.53 93.3204 118.228C93.8973 117.911 94.3594 117.446 94.7068 116.834C95.0543 116.222 95.2234 115.478 95.2142 114.6C95.205 113.723 95.0203 112.982 94.6602 112.376C94.3142 111.771 93.8566 111.323 93.2874 111.031C92.7324 110.739 92.1294 110.597 91.4785 110.603C90.8134 110.61 90.2064 110.764 89.6575 111.067C89.1088 111.369 88.6749 111.826 88.3558 112.438C88.0366 113.05 87.8817 113.794 87.891 114.672C87.9003 115.563 88.0708 116.311 88.4026 116.917C88.7345 117.522 89.1709 117.971 89.7118 118.263C90.2527 118.555 90.8486 118.697 91.4996 118.691ZM101.611 110.589L101.679 117.021C101.685 117.559 101.802 117.94 102.031 118.164C102.259 118.374 102.657 118.476 103.223 118.471L104.539 118.458L104.555 119.986L102.941 120.002C101.922 120.012 101.156 119.786 100.642 119.324C100.141 118.862 99.8857 118.1 99.8745 117.039L99.8072 110.607L98.3849 110.621L98.3695 109.135L99.7916 109.121L99.7629 106.383L101.567 106.365L101.596 109.103L104.44 109.076L104.456 110.561L101.611 110.589ZM112.047 108.81C112.882 108.802 113.627 108.972 114.281 109.319C114.95 109.652 115.479 110.171 115.869 110.875C116.258 111.579 116.458 112.433 116.469 113.438L116.536 119.869L114.731 119.887L114.667 113.71C114.655 112.62 114.371 111.795 113.813 111.235C113.269 110.66 112.53 110.377 111.596 110.386C110.634 110.395 109.873 110.7 109.313 111.3C108.767 111.899 108.501 112.772 108.513 113.919L108.576 119.947L106.75 119.965L106.596 105.233L108.421 105.216L108.478 110.586C108.826 110.031 109.31 109.601 109.929 109.298C110.563 108.981 111.268 108.818 112.047 108.81ZM118.757 114.371C118.745 113.239 118.961 112.253 119.405 111.413C119.849 110.56 120.472 109.903 121.274 109.442C122.076 108.967 122.993 108.725 124.026 108.715C125.37 108.702 126.478 109.016 127.348 109.659C128.217 110.287 128.8 111.18 129.095 112.338L127.142 112.357C126.951 111.694 126.585 111.174 126.043 110.797C125.501 110.42 124.834 110.235 124.042 110.243C123.009 110.253 122.178 110.615 121.548 111.329C120.919 112.043 120.611 113.051 120.625 114.352C120.638 115.669 120.968 116.684 121.612 117.4C122.256 118.101 123.095 118.447 124.128 118.437C124.92 118.429 125.576 118.239 126.096 117.866C126.63 117.492 126.992 116.958 127.183 116.263L129.136 116.244C128.851 117.365 128.273 118.262 127.402 118.936C126.546 119.609 125.46 119.952 124.144 119.965C123.111 119.975 122.189 119.758 121.377 119.313C120.566 118.854 119.929 118.202 119.467 117.357C119.006 116.512 118.769 115.517 118.757 114.371ZM130.842 114.232C130.831 113.114 131.047 112.135 131.491 111.296C131.935 110.442 132.551 109.785 133.339 109.325C134.126 108.85 135.001 108.608 135.963 108.599C136.926 108.589 137.756 108.786 138.453 109.19C139.165 109.593 139.701 110.105 140.062 110.724L140.041 108.729L141.866 108.711L141.98 119.621L140.155 119.639L140.134 117.601C139.772 118.242 139.24 118.778 138.537 119.209C137.834 119.626 137.008 119.84 136.06 119.849C135.098 119.858 134.218 119.633 133.42 119.174C132.637 118.701 132.014 118.034 131.553 117.176C131.091 116.317 130.854 115.335 130.842 114.232ZM140.098 114.163C140.089 113.342 139.912 112.629 139.566 112.024C139.234 111.418 138.783 110.956 138.214 110.636C137.644 110.316 137.02 110.159 136.341 110.166C135.661 110.172 135.04 110.341 134.478 110.672C133.929 110.989 133.495 111.453 133.176 112.065C132.857 112.676 132.702 113.393 132.71 114.213C132.719 115.048 132.89 115.776 133.221 116.395C133.553 117 133.997 117.463 134.552 117.783C135.122 118.103 135.746 118.26 136.425 118.253C137.105 118.247 137.726 118.078 138.288 117.747C138.851 117.416 139.292 116.944 139.611 116.333C139.944 115.707 140.106 114.983 140.098 114.163ZM158.041 108.362C158.89 108.354 159.649 108.523 160.318 108.871C160.987 109.204 161.516 109.722 161.905 110.426C162.309 111.13 162.516 111.984 162.527 112.989L162.594 119.42L160.79 119.438L160.725 113.261C160.713 112.171 160.436 111.346 159.892 110.785C159.348 110.21 158.617 109.927 157.697 109.936C156.763 109.945 156.016 110.257 155.456 110.871C154.911 111.471 154.644 112.344 154.656 113.49L154.719 119.497L152.936 119.515L152.871 113.338C152.859 112.248 152.582 111.423 152.038 110.862C151.494 110.287 150.763 110.004 149.843 110.013C148.895 110.022 148.148 110.334 147.602 110.948C147.057 111.547 146.79 112.42 146.802 113.567L146.865 119.574L145.039 119.592L144.925 108.681L146.75 108.663L146.767 110.234C147.115 109.664 147.584 109.228 148.175 108.925C148.781 108.608 149.451 108.446 150.187 108.439C151.107 108.43 151.916 108.627 152.613 109.031C153.325 109.434 153.855 110.03 154.203 110.82C154.506 110.052 155.003 109.453 155.692 109.022C156.395 108.59 157.178 108.37 158.041 108.362ZM167.28 110.48C167.627 109.854 168.152 109.332 168.856 108.915C169.559 108.483 170.384 108.263 171.333 108.254C172.295 108.244 173.175 108.469 173.972 108.929C174.769 109.374 175.399 110.019 175.86 110.863C176.322 111.694 176.559 112.668 176.57 113.786C176.582 114.89 176.366 115.875 175.922 116.743C175.478 117.611 174.863 118.289 174.075 118.778C173.288 119.253 172.413 119.495 171.45 119.504C170.516 119.513 169.693 119.316 168.982 118.912C168.27 118.495 167.726 117.976 167.352 117.357L167.427 124.553L165.602 124.571L165.433 108.481L167.259 108.463L167.28 110.48ZM174.724 113.804C174.715 112.983 174.538 112.27 174.192 111.665C173.86 111.06 173.409 110.604 172.84 110.298C172.271 109.978 171.646 109.822 170.967 109.828C170.302 109.835 169.688 110.003 169.125 110.334C168.563 110.665 168.115 111.144 167.782 111.77C167.462 112.382 167.307 113.091 167.316 113.897C167.324 114.718 167.495 115.438 167.826 116.058C168.173 116.663 168.63 117.126 169.2 117.445C169.769 117.765 170.386 117.922 171.052 117.916C171.731 117.909 172.352 117.74 172.915 117.409C173.477 117.078 173.918 116.607 174.237 115.995C174.57 115.369 174.732 114.639 174.724 113.804ZM180.849 116.738L178.676 122.108L177.466 122.12L178.875 116.757L180.849 116.738ZM187.529 113.679C187.517 112.561 187.734 111.583 188.178 110.743C188.622 109.89 189.238 109.233 190.025 108.772C190.813 108.297 191.688 108.055 192.65 108.046C193.612 108.037 194.442 108.234 195.14 108.637C195.852 109.041 196.388 109.552 196.748 110.171L196.727 108.176L198.553 108.158L198.667 119.069L196.842 119.087L196.82 117.049C196.459 117.689 195.927 118.225 195.224 118.657C194.52 119.074 193.695 119.287 192.747 119.296C191.784 119.306 190.904 119.081 190.107 118.622C189.324 118.148 188.701 117.482 188.239 116.623C187.777 115.764 187.541 114.783 187.529 113.679ZM196.784 113.61C196.776 112.789 196.598 112.076 196.252 111.471C195.921 110.866 195.47 110.403 194.9 110.083C194.331 109.763 193.707 109.607 193.027 109.613C192.348 109.62 191.727 109.789 191.165 110.12C190.616 110.436 190.182 110.901 189.863 111.512C189.544 112.124 189.388 112.84 189.397 113.661C189.406 114.496 189.576 115.223 189.908 115.843C190.24 116.448 190.684 116.911 191.239 117.231C191.808 117.551 192.433 117.707 193.112 117.701C193.791 117.694 194.412 117.525 194.975 117.194C195.538 116.863 195.978 116.392 196.298 115.78C196.631 115.154 196.793 114.431 196.784 113.61ZM206.938 107.885C208.254 107.873 209.326 108.266 210.155 109.064C210.999 109.848 211.428 110.998 211.444 112.512L211.511 118.944L209.707 118.961L209.643 112.784C209.631 111.695 209.346 110.869 208.789 110.309C208.245 109.734 207.506 109.451 206.572 109.46C205.61 109.469 204.849 109.774 204.289 110.374C203.743 110.974 203.476 111.847 203.488 112.993L203.551 119.021L201.726 119.039L201.612 108.128L203.437 108.111L203.453 109.66C203.801 109.105 204.278 108.676 204.883 108.373C205.503 108.055 206.188 107.893 206.938 107.885ZM213.732 113.424C213.72 112.306 213.937 111.327 214.381 110.488C214.825 109.634 215.44 108.977 216.228 108.517C217.016 108.042 217.898 107.8 218.874 107.79C219.723 107.782 220.511 107.973 221.237 108.362C221.976 108.737 222.548 109.241 222.951 109.874L222.89 104.1L224.716 104.082L224.87 118.813L223.045 118.831L223.023 116.772C222.662 117.427 222.13 117.97 221.427 118.401C220.738 118.818 219.919 119.032 218.971 119.041C218.008 119.05 217.129 118.825 216.331 118.366C215.534 117.893 214.904 117.226 214.442 116.368C213.98 115.509 213.744 114.528 213.732 113.424ZM222.987 113.355C222.979 112.534 222.801 111.821 222.455 111.216C222.123 110.61 221.673 110.148 221.103 109.828C220.534 109.508 219.91 109.351 219.23 109.358C218.551 109.364 217.93 109.533 217.367 109.864C216.819 110.181 216.385 110.645 216.066 111.257C215.747 111.869 215.591 112.585 215.6 113.406C215.609 114.24 215.779 114.968 216.111 115.587C216.443 116.192 216.887 116.655 217.442 116.975C218.011 117.295 218.636 117.452 219.315 117.445C219.994 117.439 220.615 117.27 221.178 116.939C221.74 116.608 222.181 116.137 222.5 115.525C222.834 114.899 222.996 114.176 222.987 113.355ZM237.629 107.608C238.577 107.598 239.407 107.795 240.119 108.199C240.831 108.602 241.367 109.114 241.727 109.733L241.706 107.738L243.532 107.72L243.649 118.864C243.659 119.869 243.456 120.755 243.04 121.524C242.623 122.306 242.021 122.92 241.233 123.367C240.445 123.813 239.528 124.042 238.481 124.052C237.051 124.066 235.852 123.738 234.883 123.068C233.927 122.412 233.359 121.498 233.177 120.325L234.96 120.307C235.165 120.97 235.581 121.497 236.208 121.887C236.835 122.292 237.587 122.49 238.464 122.481C239.455 122.471 240.265 122.152 240.895 121.523C241.526 120.894 241.835 120.014 241.823 118.882L241.799 116.589C241.438 117.23 240.906 117.766 240.203 118.197C239.514 118.628 238.695 118.849 237.747 118.858C236.785 118.867 235.905 118.642 235.107 118.183C234.31 117.71 233.68 117.043 233.218 116.185C232.756 115.326 232.52 114.345 232.508 113.241C232.496 112.123 232.713 111.144 233.157 110.305C233.601 109.451 234.216 108.794 235.004 108.334C235.792 107.859 236.667 107.617 237.629 107.608ZM241.763 113.172C241.755 112.351 241.577 111.638 241.231 111.033C240.9 110.427 240.449 109.965 239.88 109.645C239.31 109.325 238.686 109.168 238.006 109.175C237.327 109.181 236.706 109.35 236.144 109.681C235.595 109.998 235.161 110.462 234.842 111.074C234.523 111.686 234.368 112.402 234.376 113.223C234.385 114.057 234.555 114.785 234.887 115.404C235.219 116.009 235.663 116.472 236.218 116.792C236.787 117.112 237.412 117.269 238.091 117.262C238.77 117.256 239.391 117.087 239.954 116.756C240.517 116.425 240.957 115.954 241.277 115.342C241.61 114.716 241.772 113.992 241.763 113.172ZM256.599 112.624C256.602 112.978 256.585 113.346 256.547 113.728L247.843 113.813C247.911 114.888 248.281 115.726 248.952 116.328C249.638 116.916 250.462 117.205 251.424 117.196C252.203 117.188 252.852 117.005 253.372 116.646C253.891 116.273 254.254 115.774 254.46 115.15L256.413 115.131C256.127 116.195 255.548 117.057 254.678 117.716C253.807 118.376 252.728 118.712 251.44 118.724C250.393 118.735 249.457 118.517 248.631 118.072C247.82 117.613 247.176 116.961 246.7 116.117C246.224 115.258 245.98 114.263 245.968 113.131C245.956 111.999 246.172 111.006 246.616 110.152C247.06 109.299 247.683 108.642 248.485 108.181C249.301 107.72 250.247 107.485 251.322 107.474C252.355 107.464 253.271 107.682 254.068 108.127C254.865 108.558 255.48 109.167 255.913 109.956C256.36 110.744 256.588 111.633 256.599 112.624ZM254.727 112.26C254.72 111.581 254.558 110.995 254.241 110.503C253.939 109.996 253.524 109.618 252.998 109.368C252.472 109.119 251.89 108.997 251.253 109.003C250.334 109.012 249.551 109.31 248.906 109.897C248.276 110.483 247.923 111.293 247.849 112.327L254.727 112.26ZM261.159 109.034L261.226 115.466C261.232 116.004 261.349 116.385 261.578 116.609C261.806 116.819 262.204 116.921 262.77 116.916L264.086 116.903L264.102 118.431L262.489 118.447C261.47 118.457 260.703 118.231 260.189 117.769C259.688 117.306 259.433 116.545 259.422 115.483L259.354 109.052L257.932 109.066L257.917 107.58L259.339 107.566L259.31 104.828L261.114 104.81L261.143 107.548L263.987 107.52L264.003 109.006L261.159 109.034Z" fill="#25282A"/>
<path d="M70.0969 133.322L63.6845 149.434L61.8166 149.452L63.9266 144.167L59.3984 133.427L61.4149 133.407L64.925 142.204L68.2288 133.341L70.0969 133.322ZM76.7741 144.339C75.7551 144.349 74.8259 144.131 73.9862 143.687C73.1606 143.228 72.5027 142.576 72.0127 141.732C71.5366 140.873 71.2927 139.878 71.2808 138.745C71.2691 137.628 71.4994 136.642 71.9716 135.788C72.4578 134.92 73.1161 134.255 73.9463 133.794C74.7765 133.333 75.7081 133.098 76.7411 133.088C77.7742 133.078 78.7105 133.295 79.5501 133.74C80.404 134.184 81.076 134.829 81.566 135.673C82.056 136.518 82.307 137.506 82.3189 138.638C82.3307 139.77 82.0935 140.77 81.6073 141.638C81.1209 142.492 80.4556 143.157 79.6113 143.632C78.767 144.093 77.8212 144.329 76.7741 144.339ZM76.7573 142.747C77.4083 142.741 78.0153 142.586 78.5783 142.283C79.1552 141.966 79.6174 141.502 79.9647 140.89C80.3121 140.278 80.4812 139.533 80.4721 138.656C80.4629 137.779 80.2782 137.037 79.9181 136.432C79.5721 135.827 79.1145 135.379 78.5453 135.087C77.9903 134.795 77.3873 134.652 76.7364 134.659C76.0713 134.665 75.4643 134.82 74.9155 135.122C74.3667 135.425 73.9328 135.882 73.6136 136.494C73.2945 137.105 73.1396 137.85 73.1487 138.727C73.1581 139.619 73.3287 140.367 73.6605 140.973C73.9924 141.578 74.4288 142.027 74.9697 142.318C75.5106 142.61 76.1064 142.753 76.7573 142.747ZM94.3257 133.086L94.4399 143.997L92.6357 144.014L92.6188 142.401C92.2708 142.957 91.7871 143.4 91.1678 143.732C90.5626 144.049 89.8921 144.211 89.1563 144.218C88.3072 144.226 87.5412 144.057 86.8582 143.71C86.1752 143.363 85.6319 142.837 85.2283 142.134C84.8388 141.43 84.6388 140.575 84.6283 139.571L84.5613 133.181L86.3444 133.164L86.4088 139.32C86.4201 140.395 86.6976 141.221 87.2415 141.796C87.7993 142.356 88.5452 142.632 89.4792 142.623C90.4556 142.613 91.2167 142.309 91.7624 141.709C92.3222 141.109 92.5961 140.236 92.5841 139.09L92.5215 133.104L94.3257 133.086ZM99.2332 134.8C99.538 134.175 99.9858 133.689 100.577 133.344C101.167 132.998 101.887 132.822 102.736 132.813L102.756 134.681L102.268 134.686C100.244 134.706 99.2438 135.812 99.2668 138.006L99.329 143.949L97.5036 143.967L97.3893 133.056L99.2148 133.039L99.2332 134.8ZM123.249 132.613C124.098 132.605 124.857 132.775 125.525 133.122C126.194 133.455 126.723 133.973 127.113 134.677C127.516 135.381 127.723 136.235 127.734 137.24L127.801 143.672L125.997 143.689L125.932 137.512C125.921 136.423 125.643 135.597 125.1 135.037C124.556 134.462 123.824 134.179 122.904 134.188C121.97 134.197 121.223 134.508 120.664 135.122C120.118 135.722 119.851 136.595 119.863 137.741L119.926 143.748L118.143 143.766L118.078 137.589C118.067 136.499 117.789 135.674 117.246 135.113C116.702 134.538 115.97 134.255 115.05 134.264C114.102 134.273 113.355 134.585 112.81 135.199C112.264 135.799 111.997 136.672 112.009 137.818L112.072 143.825L110.247 143.843L110.132 132.932L111.958 132.914L111.974 134.485C112.322 133.916 112.792 133.479 113.383 133.176C113.988 132.859 114.659 132.697 115.395 132.69C116.314 132.681 117.123 132.878 117.821 133.282C118.533 133.685 119.063 134.282 119.411 135.071C119.714 134.304 120.21 133.704 120.899 133.273C121.602 132.842 122.385 132.622 123.249 132.613ZM140.649 137.666C140.653 138.02 140.635 138.388 140.597 138.77L131.894 138.855C131.962 139.93 132.331 140.769 133.003 141.371C133.688 141.958 134.512 142.248 135.474 142.238C136.253 142.231 136.902 142.047 137.422 141.689C137.941 141.316 138.304 140.817 138.51 140.192L140.463 140.173C140.177 141.237 139.598 142.099 138.728 142.759C137.857 143.418 136.778 143.754 135.49 143.767C134.443 143.777 133.507 143.559 132.681 143.115C131.87 142.656 131.226 142.004 130.75 141.159C130.274 140.3 130.03 139.305 130.018 138.173C130.006 137.041 130.222 136.048 130.666 135.195C131.11 134.341 131.733 133.684 132.535 133.223C133.351 132.762 134.297 132.527 135.373 132.516C136.406 132.506 137.321 132.724 138.118 133.169C138.915 133.6 139.53 134.21 139.963 134.998C140.41 135.786 140.638 136.675 140.649 137.666ZM138.777 137.302C138.77 136.623 138.608 136.037 138.291 135.545C137.989 135.038 137.575 134.66 137.048 134.411C136.522 134.161 135.94 134.039 135.304 134.046C134.384 134.054 133.601 134.352 132.957 134.939C132.326 135.525 131.973 136.335 131.899 137.369L138.777 137.302ZM148.312 132.369C149.628 132.356 150.7 132.749 151.529 133.548C152.373 134.332 152.802 135.481 152.818 136.995L152.885 143.427L151.081 143.445L151.016 137.268C151.005 136.178 150.72 135.353 150.163 134.792C149.619 134.217 148.88 133.934 147.946 133.944C146.984 133.953 146.222 134.258 145.663 134.857C145.117 135.457 144.85 136.33 144.862 137.476L144.925 143.505L143.1 143.523L142.985 132.612L144.811 132.594L144.827 134.144C145.175 133.588 145.652 133.159 146.257 132.856C146.877 132.539 147.561 132.376 148.312 132.369ZM157.952 133.952L158.019 140.384C158.025 140.922 158.142 141.303 158.371 141.527C158.599 141.737 158.997 141.839 159.563 141.834L160.879 141.821L160.895 143.349L159.282 143.365C158.263 143.375 157.496 143.149 156.982 142.687C156.482 142.225 156.226 141.463 156.215 140.401L156.147 133.97L154.725 133.984L154.71 132.498L156.132 132.484L156.103 129.746L157.907 129.728L157.936 132.466L160.781 132.439L160.796 133.924L157.952 133.952ZM167.847 143.451C166.828 143.461 165.899 143.244 165.059 142.799C164.234 142.34 163.576 141.688 163.086 140.844C162.61 139.985 162.366 138.99 162.354 137.858C162.342 136.74 162.572 135.754 163.045 134.9C163.531 134.032 164.189 133.368 165.019 132.907C165.85 132.446 166.781 132.21 167.814 132.2C168.847 132.19 169.784 132.407 170.623 132.852C171.477 133.297 172.149 133.941 172.639 134.786C173.129 135.63 173.38 136.618 173.392 137.75C173.404 138.882 173.167 139.882 172.68 140.75C172.194 141.604 171.529 142.269 170.684 142.744C169.84 143.205 168.894 143.441 167.847 143.451ZM167.83 141.859C168.481 141.853 169.088 141.698 169.651 141.396C170.228 141.079 170.69 140.614 171.038 140.002C171.385 139.39 171.554 138.646 171.545 137.768C171.536 136.891 171.351 136.15 170.991 135.545C170.645 134.939 170.188 134.491 169.618 134.199C169.063 133.908 168.46 133.765 167.809 133.771C167.144 133.778 166.537 133.932 165.989 134.235C165.44 134.537 165.006 134.994 164.687 135.606C164.368 136.218 164.213 136.962 164.222 137.84C164.231 138.731 164.402 139.48 164.734 140.085C165.065 140.69 165.502 141.139 166.043 141.431C166.583 141.723 167.179 141.866 167.83 141.859ZM177.563 134.037C177.868 133.411 178.316 132.926 178.907 132.58C179.497 132.235 180.217 132.058 181.066 132.05L181.086 133.918L180.598 133.922C178.574 133.942 177.574 135.049 177.597 137.242L177.659 143.186L175.834 143.204L175.719 132.293L177.545 132.275L177.563 134.037ZM193.873 131.925C194.708 131.917 195.453 132.086 196.108 132.434C196.776 132.767 197.305 133.285 197.695 133.989C198.084 134.693 198.284 135.547 198.295 136.552L198.362 142.984L196.558 143.002L196.493 136.825C196.482 135.735 196.197 134.91 195.639 134.349C195.096 133.774 194.357 133.491 193.423 133.5C192.46 133.51 191.699 133.814 191.139 134.414C190.594 135.014 190.327 135.887 190.339 137.033L190.402 143.062L188.576 143.079L188.422 128.348L190.248 128.33L190.304 133.7C190.652 133.145 191.136 132.716 191.755 132.413C192.389 132.095 193.095 131.933 193.873 131.925ZM211.214 136.978C211.217 137.332 211.2 137.7 211.161 138.083L202.458 138.167C202.526 139.242 202.896 140.081 203.567 140.683C204.253 141.271 205.077 141.56 206.039 141.55C206.817 141.543 207.466 141.36 207.986 141.001C208.506 140.628 208.869 140.129 209.075 139.504L211.027 139.485C210.741 140.549 210.163 141.411 209.293 142.071C208.422 142.73 207.343 143.066 206.055 143.079C205.008 143.089 204.071 142.872 203.246 142.427C202.434 141.968 201.791 141.316 201.315 140.471C200.839 139.613 200.595 138.617 200.583 137.485C200.571 136.353 200.787 135.36 201.231 134.507C201.675 133.653 202.298 132.996 203.1 132.536C203.916 132.075 204.862 131.839 205.937 131.829C206.97 131.818 207.885 132.036 208.683 132.481C209.48 132.912 210.095 133.522 210.527 134.31C210.974 135.098 211.203 135.988 211.214 136.978ZM209.341 136.614C209.334 135.935 209.173 135.349 208.856 134.857C208.554 134.351 208.139 133.972 207.613 133.723C207.087 133.473 206.505 133.352 205.868 133.358C204.948 133.367 204.166 133.664 203.521 134.251C202.89 134.837 202.538 135.648 202.464 136.681L209.341 136.614ZM215.394 133.668C215.699 133.043 216.147 132.557 216.738 132.212C217.328 131.866 218.048 131.689 218.897 131.681L218.917 133.549L218.429 133.554C216.405 133.573 215.405 134.68 215.428 136.873L215.49 142.817L213.665 142.835L213.55 131.924L215.376 131.906L215.394 133.668ZM230.985 136.786C230.989 137.139 230.971 137.507 230.933 137.89L222.23 137.975C222.298 139.05 222.667 139.888 223.339 140.49C224.025 141.078 224.848 141.367 225.811 141.358C226.589 141.35 227.238 141.167 227.758 140.808C228.278 140.435 228.64 139.936 228.846 139.311L230.799 139.292C230.513 140.357 229.935 141.218 229.064 141.878C228.194 142.538 227.114 142.874 225.827 142.886C224.779 142.896 223.843 142.679 223.018 142.234C222.206 141.775 221.562 141.123 221.087 140.279C220.61 139.42 220.366 138.425 220.355 137.292C220.343 136.16 220.559 135.168 221.003 134.314C221.447 133.461 222.07 132.804 222.872 132.343C223.688 131.882 224.633 131.646 225.709 131.636C226.742 131.626 227.657 131.843 228.454 132.288C229.251 132.719 229.866 133.329 230.299 134.117C230.746 134.906 230.975 135.795 230.985 136.786ZM229.113 136.422C229.106 135.742 228.944 135.157 228.628 134.664C228.325 134.158 227.911 133.78 227.384 133.53C226.858 133.28 226.277 133.159 225.64 133.165C224.72 133.174 223.938 133.472 223.293 134.058C222.662 134.645 222.31 135.455 222.236 136.489L229.113 136.422ZM235.647 128.737L235.539 138.694L234.011 138.709L233.694 128.756L235.647 128.737ZM234.902 142.755C234.548 142.759 234.25 142.641 234.007 142.403C233.778 142.165 233.661 141.869 233.658 141.515C233.654 141.175 233.764 140.884 233.988 140.641C234.226 140.398 234.522 140.275 234.876 140.272C235.202 140.268 235.479 140.386 235.708 140.624C235.951 140.863 236.074 141.152 236.078 141.491C236.081 141.845 235.964 142.143 235.726 142.386C235.502 142.629 235.228 142.752 234.902 142.755ZM241.58 128.679L241.472 138.636L239.944 138.651L239.628 128.698L241.58 128.679ZM240.836 142.697C240.482 142.701 240.183 142.583 239.94 142.345C239.711 142.107 239.595 141.811 239.591 141.457C239.588 141.117 239.698 140.826 239.922 140.583C240.16 140.34 240.456 140.217 240.81 140.214C241.135 140.211 241.412 140.328 241.641 140.567C241.884 140.805 242.008 141.094 242.011 141.433C242.015 141.787 241.898 142.085 241.66 142.328C241.436 142.571 241.161 142.694 240.836 142.697ZM247.514 128.621L247.406 138.579L245.878 138.593L245.561 128.64L247.514 128.621ZM246.769 142.64C246.415 142.643 246.117 142.526 245.874 142.287C245.645 142.049 245.528 141.753 245.525 141.399C245.521 141.059 245.631 140.768 245.855 140.525C246.093 140.283 246.389 140.159 246.743 140.156C247.069 140.153 247.346 140.27 247.575 140.509C247.818 140.747 247.941 141.036 247.945 141.376C247.948 141.729 247.831 142.028 247.593 142.271C247.369 142.513 247.095 142.636 246.769 142.64Z" fill="#25282A"/>
<path fill-rule="evenodd" clip-rule="evenodd" d="M53.9375 191.417C53.9375 177.852 64.9341 166.855 78.4992 166.855H264.637C271.151 166.855 277.399 169.443 282.005 174.049C286.611 178.656 289.199 184.903 289.199 191.417C289.199 204.982 278.202 215.979 264.637 215.979H78.4992C64.9341 215.979 53.9375 204.982 53.9375 191.417Z" fill="#980000"/>
<path fill-rule="evenodd" clip-rule="evenodd" d="M53.9375 191.417C53.9375 177.852 64.9341 166.855 78.4992 166.855H264.637C271.151 166.855 277.399 169.443 282.005 174.049C286.611 178.656 289.199 184.903 289.199 191.417C289.199 204.982 278.202 215.979 264.637 215.979H78.4992C64.9341 215.979 53.9375 204.982 53.9375 191.417Z" stroke="#44546A" stroke-width="1.35859" stroke-miterlimit="10" stroke-linejoin="round"/>
<path d="M97.6313 186.491V190.1H103.448V193.454H97.6313V197.339H104.191V200.82H93.3008V183.031H104.191V186.491H97.6313ZM115.632 186.534C117.287 186.534 118.611 187.072 119.601 188.147C120.592 189.209 121.087 190.68 121.087 192.563V200.82H116.778V193.136C116.778 192.188 116.53 191.452 116.035 190.928C115.54 190.404 114.882 190.143 114.061 190.143C113.226 190.143 112.561 190.404 112.065 190.928C111.584 191.452 111.344 192.188 111.344 193.136V200.82H107.013V186.682H111.344V188.551C111.782 187.928 112.37 187.44 113.106 187.086C113.856 186.718 114.698 186.534 115.632 186.534ZM128.427 189.039C128.937 188.26 129.566 187.652 130.316 187.213C131.081 186.76 131.93 186.534 132.864 186.534V191.119H131.675C130.599 191.119 129.786 191.353 129.234 191.82C128.696 192.272 128.427 193.086 128.427 194.261V200.82H124.097V186.682H128.427V189.039ZM141.377 201.033C139.99 201.033 138.745 200.735 137.641 200.141C136.537 199.547 135.666 198.705 135.03 197.615C134.393 196.511 134.074 195.223 134.074 193.751C134.074 192.294 134.393 191.013 135.03 189.909C135.681 188.805 136.565 187.956 137.683 187.362C138.801 186.767 140.054 186.47 141.44 186.47C142.827 186.47 144.073 186.767 145.177 187.362C146.295 187.956 147.172 188.805 147.809 189.909C148.46 191.013 148.785 192.294 148.785 193.751C148.785 195.209 148.46 196.49 147.809 197.594C147.158 198.698 146.266 199.547 145.134 200.141C144.016 200.735 142.764 201.033 141.377 201.033ZM141.377 197.275C142.212 197.275 142.919 196.971 143.5 196.362C144.08 195.754 144.37 194.884 144.37 193.751C144.37 192.619 144.087 191.749 143.521 191.14C142.955 190.532 142.261 190.228 141.44 190.228C140.591 190.228 139.884 190.532 139.318 191.14C138.766 191.735 138.49 192.605 138.49 193.751C138.49 194.884 138.766 195.754 139.318 196.362C139.87 196.971 140.556 197.275 141.377 197.275ZM155.421 182.055V200.82H151.09V182.055H155.421ZM162.898 182.055V200.82H158.567V182.055H162.898ZM184.218 183.031V186.491H179.506V200.82H175.175V186.491H170.463V183.031H184.218ZM192.83 201.033C191.443 201.033 190.197 200.735 189.094 200.141C187.99 199.547 187.119 198.705 186.483 197.615C185.846 196.511 185.527 195.223 185.527 193.751C185.527 192.294 185.846 191.013 186.483 189.909C187.134 188.805 188.018 187.956 189.136 187.362C190.254 186.767 191.507 186.47 192.893 186.47C194.28 186.47 195.526 186.767 196.63 187.362C197.748 187.956 198.625 188.805 199.262 189.909C199.913 191.013 200.238 192.294 200.238 193.751C200.238 195.209 199.913 196.49 199.262 197.594C198.611 198.698 197.719 199.547 196.587 200.141C195.469 200.735 194.217 201.033 192.83 201.033ZM192.83 197.275C193.665 197.275 194.372 196.971 194.953 196.362C195.533 195.754 195.823 194.884 195.823 193.751C195.823 192.619 195.54 191.749 194.974 191.14C194.408 190.532 193.714 190.228 192.893 190.228C192.044 190.228 191.337 190.532 190.771 191.14C190.219 191.735 189.943 192.605 189.943 193.751C189.943 194.884 190.219 195.754 190.771 196.362C191.323 196.971 192.009 197.275 192.83 197.275ZM201.673 193.73C201.673 192.272 201.949 190.999 202.501 189.909C203.053 188.805 203.803 187.956 204.751 187.362C205.699 186.767 206.753 186.47 207.914 186.47C208.848 186.47 209.697 186.668 210.461 187.065C211.225 187.447 211.834 187.97 212.287 188.635V182.055H216.617V200.82H212.287V198.782C211.876 199.462 211.296 200.007 210.546 200.417C209.796 200.827 208.919 201.033 207.914 201.033C206.753 201.033 205.699 200.735 204.751 200.141C203.803 199.532 203.053 198.676 202.501 197.572C201.949 196.454 201.673 195.174 201.673 193.73ZM212.287 193.751C212.287 192.662 211.983 191.805 211.374 191.183C210.78 190.56 210.051 190.249 209.188 190.249C208.324 190.249 207.588 190.56 206.98 191.183C206.385 191.791 206.088 192.64 206.088 193.73C206.088 194.806 206.385 195.662 206.98 196.299C207.588 196.936 208.324 197.254 209.188 197.254C210.051 197.254 210.78 196.943 211.374 196.32C211.983 195.683 212.287 194.827 212.287 193.751ZM218.883 193.73C218.883 192.272 219.159 190.999 219.711 189.909C220.263 188.805 221.013 187.956 221.961 187.362C222.909 186.767 223.964 186.47 225.124 186.47C226.129 186.47 227.006 186.675 227.756 187.086C228.506 187.496 229.087 188.027 229.497 188.678V186.682H233.828V200.82H229.497V198.825C229.072 199.476 228.478 200.007 227.714 200.417C226.964 200.827 226.093 201.033 225.103 201.033C223.956 201.033 222.909 200.735 221.961 200.141C221.013 199.532 220.263 198.676 219.711 197.572C219.159 196.454 218.883 195.174 218.883 193.73ZM229.497 193.751C229.497 192.662 229.193 191.805 228.584 191.183C227.99 190.56 227.261 190.249 226.398 190.249C225.534 190.249 224.799 190.56 224.19 191.183C223.596 191.791 223.298 192.64 223.298 193.73C223.298 194.806 223.596 195.662 224.19 196.299C224.799 196.936 225.534 197.254 226.398 197.254C227.261 197.254 227.99 196.943 228.584 196.32C229.193 195.683 229.497 194.827 229.497 193.751ZM251.42 186.682L242.546 207.528H237.876L241.124 200.332L235.371 186.682H240.211L243.48 195.513L246.728 186.682H251.42Z" fill="white"/>
</svg>
