<svg width="99" height="100" viewBox="0 0 99 100" fill="none" xmlns="http://www.w3.org/2000/svg">
<g filter="url(#filter0_d_2971_7942)">
<circle cx="47.5" cy="47.5" r="47.5" transform="matrix(-1 0 0 1 95 0)" fill="#F2EEE9"/>
<circle cx="47.5" cy="47.5" r="47.2471" transform="matrix(-1 0 0 1 95 0)" stroke="#F08C03" stroke-width="0.5058"/>
</g>
<path d="M54.5948 28.6884L54.5947 28.6884C53.983 29.2786 53.7874 30.179 54.0883 30.9738L57.9088 41.0742L57.9088 41.0743C58.2452 41.9618 59.1276 42.5233 60.0696 42.4342L60.0698 42.4341C60.605 42.3828 61.2125 42.27 61.8581 42.0458C61.8582 42.0458 61.8583 42.0457 61.8584 42.0457L61.8024 41.8818C62.6374 41.5933 63.3144 41.1924 63.84 40.8022L54.5948 28.6884ZM54.5948 28.6884C55.1047 28.1965 55.8301 27.6664 56.8005 27.3346M54.5948 28.6884L64.6377 38.4933L60.8159 28.3897C60.5218 27.6106 59.8015 27.0615 58.9675 27.0256C58.3566 26.9986 57.6079 27.0584 56.8005 27.3346M56.8005 27.3346L56.8558 27.4987M56.8005 27.3346C56.8005 27.3346 56.8005 27.3346 56.8005 27.3346L56.8558 27.4987M56.8558 27.4987C55.9142 27.8208 55.21 28.3352 54.7143 28.8133M56.8558 27.4987C57.6392 27.2307 58.3659 27.1726 58.9595 27.1989C59.7211 27.2316 60.3833 27.7338 60.6542 28.4516L54.7143 28.8133M54.7143 28.8133C54.1535 29.3543 53.9732 30.1809 54.2499 30.9117L58.0704 41.0122C58.3797 41.8284 59.1906 42.3431 60.054 42.2615L54.7143 28.8133ZM35.1081 50.9454C35.1081 50.9455 35.1081 50.9455 35.1081 50.9456C35.5188 51.7887 35.3384 52.8163 34.6374 53.446L34.6372 53.4462C34.1382 53.893 33.4857 54.3636 32.6618 54.7368L32.6618 54.7369C32.0392 55.0186 31.4448 55.188 30.9162 55.288L30.916 55.2881C29.9854 55.4629 29.0557 54.9861 28.6414 54.1318L23.9217 44.4227L23.9216 44.4225C23.5517 43.6591 23.6638 42.7452 24.2199 42.1019C24.6834 41.5655 25.3573 40.9702 26.2941 40.5502L26.2943 40.5501L34.9528 51.022L35.1081 50.9454ZM35.1081 50.9454L30.3881 41.2328C30.388 41.2327 30.388 41.2327 30.388 41.2327C30.0254 40.4856 29.2577 40.0044 28.4249 40.0447C28.4248 40.0447 28.4248 40.0447 28.4248 40.0447L28.4325 40.218L35.1081 50.9454ZM41.4363 47.2232L41.4364 47.2234C41.5406 48.7736 41.3474 50.2622 40.8621 51.6871C40.6111 52.4238 40.2863 53.1255 39.887 53.7903C39.8057 53.9252 39.7229 54.0571 39.6366 54.1908C39.3219 54.6656 38.9685 55.122 38.5726 55.5605L38.5725 55.5607C37.5337 56.7146 36.2546 57.6664 34.732 58.4169C33.192 59.1753 31.6555 59.6109 30.1213 59.7231L30.1209 59.7232C29.5408 59.7671 28.9673 59.7658 28.405 59.7238C28.3004 59.7144 28.199 59.7041 28.0983 59.6913L28.094 59.6908L28.094 59.6908C27.2782 59.608 26.4792 59.4294 25.695 59.1591C24.2806 58.67 22.9937 57.91 21.8406 56.876C20.6902 55.843 19.7381 54.5547 18.9839 53.0023C18.2312 51.4532 17.8033 49.9029 17.6992 48.3549C17.596 46.8044 17.7901 45.3179 18.2745 43.8907C18.762 42.4646 19.5169 41.1692 20.5422 40.0106C21.5682 38.8524 22.8485 37.8898 24.3868 37.1323C25.9285 36.3732 27.4691 35.9447 29.0036 35.8424L29.0039 35.8424C30.5444 35.737 32.0229 35.9314 33.4405 36.419L41.4363 47.2232ZM41.4363 47.2232C41.3333 45.6746 40.9106 44.1362 40.1662 42.6057L40.1661 42.6056C39.4032 41.0334 38.4461 39.7344 37.2949 38.7021L37.2948 38.7021M41.4363 47.2232L37.2948 38.7021M37.2948 38.7021C36.143 37.6678 34.8573 36.91 33.4408 36.4191L37.2948 38.7021ZM71.2762 35.3667L71.2762 35.3667C71.313 33.8154 71.0312 32.2447 70.4292 30.6529C69.8105 29.0173 68.9747 27.6356 67.9225 26.5027L67.9224 26.5026C66.8692 25.3664 65.6571 24.4936 64.2909 23.8754C62.9237 23.2603 61.4682 22.9314 59.9256 22.8942L59.9255 22.8942C58.3871 22.8562 56.8145 23.1403 55.2104 23.7553L55.2104 23.7553C53.6096 24.3688 52.2462 25.2099 51.1208 26.2693C49.9959 27.3292 49.1265 28.5492 48.5113 29.9248C47.9003 31.3014 47.5726 32.7646 47.5357 34.3178C47.4989 35.8688 47.7848 37.4519 48.3944 39.064C49.0055 40.6794 49.8364 42.0503 50.8888 43.1834L50.8888 43.1834C51.9432 44.3193 53.1563 45.1942 54.5214 45.8102L54.5215 45.8103C55.2775 46.152 56.0562 46.4024 56.8612 46.5605L56.8612 46.5605L56.864 46.5611C56.9654 46.5828 57.0648 46.6018 57.1686 46.6207C57.7247 46.7152 58.2944 46.7681 58.8772 46.7782L58.8774 46.7782C60.4153 46.8062 61.9855 46.5131 63.587 45.8993C65.1716 45.2918 66.5326 44.462 67.6697 43.4074L67.6702 43.4069C68.1046 43.0076 68.498 42.5845 68.8533 42.1415C68.9521 42.0148 69.0466 41.8916 69.1406 41.7651C69.5977 41.1397 69.9837 40.4707 70.3011 39.7606C70.913 38.3864 71.2398 36.9211 71.2762 35.3667Z" fill="#F08C03" stroke="#F08C03" stroke-width="0.346267"/>
<mask id="path-4-inside-1_2971_7942" fill="white">
<path d="M67.3218 11.7613C67.2159 11.7321 67.1112 11.7024 67.0047 11.6747C67.2776 11.746 66.9268 11.659 66.8939 11.6517C66.7156 11.6134 66.5367 11.5793 66.357 11.5494C65.9604 11.4842 65.5613 11.4396 65.1598 11.413C64.9588 11.3992 64.757 11.3922 64.5556 11.389C64.4628 11.3864 64.3715 11.387 64.2797 11.3866C63.9136 11.3818 64.5289 11.3723 64.163 11.3883C63.7537 11.4054 63.3471 11.4343 62.9402 11.4829C62.1184 11.5798 61.3042 11.7433 60.5041 11.9591C60.3946 11.9887 60.2855 12.0194 60.1759 12.0516C60.4123 11.982 60.2192 12.0387 60.1732 12.0541C59.9563 12.124 59.739 12.1929 59.523 12.2676C59.1285 12.4055 58.7381 12.5558 58.3525 12.7169C57.5873 13.0378 56.8417 13.4032 56.1185 13.8105C55.9561 13.9014 55.7947 13.9946 55.6354 14.0894C55.5996 14.1106 55.2843 14.3052 55.5449 14.1416C55.4824 14.1813 55.4195 14.2199 55.3586 14.2602C54.9925 14.4945 54.6322 14.7391 54.2815 14.9963C53.6297 15.4717 53.0052 15.9854 52.4109 16.5324C52.1402 16.7811 51.875 17.0364 51.6184 17.2995C51.541 17.3783 51.4662 17.4573 51.3888 17.5362C51.1448 17.7897 51.494 17.415 51.3522 17.576C51.196 17.7538 51.0368 17.9278 50.8842 18.1079C50.3857 18.6964 49.9217 19.3162 49.5008 19.9635C49.2963 20.2773 49.1037 20.5975 48.9203 20.9239C48.9014 20.9571 48.7344 21.271 48.8693 21.013C48.8364 21.0758 48.8046 21.1381 48.7718 21.2009C48.6752 21.391 48.5817 21.5823 48.4929 21.7754C48.1647 22.4864 47.8892 23.2204 47.6706 23.9719C47.6152 24.1617 47.565 24.3518 47.5164 24.5424C47.4629 24.7483 47.5751 24.255 47.5051 24.5956C47.4835 24.7014 47.4592 24.8071 47.4377 24.9129C47.3584 25.3057 47.2944 25.7007 47.2467 26.0976C46.8057 29.7107 47.686 33.6474 48.866 37.0042C49.5279 38.8861 50.3219 40.7193 51.1807 42.5182C52.0603 44.3584 52.8121 45.9299 54.2395 47.366C54.4341 47.5608 54.307 47.3553 54.2358 47.3664C54.2576 47.3631 54.3937 47.5074 54.4161 47.5259C54.5157 47.6112 54.6187 47.6923 54.7234 47.7714C54.9491 47.9405 55.1863 48.0888 55.4291 48.232C55.6646 48.3707 55.1648 48.1101 55.4127 48.2212C55.4804 48.2519 55.5469 48.2883 55.6151 48.3201C55.7278 48.3735 55.8432 48.4244 55.9583 48.4716C56.2122 48.576 56.472 48.6674 56.7344 48.7473C56.8667 48.7867 57.0005 48.8177 57.1322 48.8587C57.2982 48.9103 56.8191 48.7899 57.0758 48.845C57.1484 48.8605 57.2221 48.8782 57.2963 48.8943C57.5686 48.9528 57.8419 49.0018 58.117 49.046C58.6726 49.1322 59.2319 49.1946 59.7909 49.2506C62.1195 49.4826 64.5426 49.6658 66.5536 51.0002C69.2873 52.8136 70.575 56.5131 69.8873 59.682C69.0767 63.4166 66.0397 65.8808 62.8534 67.6195C62.372 67.882 61.8858 68.1364 61.4088 68.406C61.169 68.5408 60.9317 68.6809 60.6963 68.8228C60.4404 68.9765 60.9501 68.6584 60.6985 68.8218C60.6392 68.8601 60.5806 68.8968 60.5219 68.9361C60.3686 69.036 60.2178 69.1386 60.0685 69.2445C59.8429 69.4054 59.6217 69.5734 59.4095 69.753C59.2944 69.8487 59.1823 69.9483 59.0738 70.0502C59.0247 70.0969 58.9768 70.1431 58.9293 70.1904C58.6758 70.443 59.0228 70.0692 58.8818 70.2376C58.7195 70.4338 58.5598 70.6301 58.423 70.846C58.3883 70.9018 58.3291 70.9751 58.3105 71.038C58.3944 70.7549 58.3926 70.8648 58.3625 70.9484C58.3101 71.0954 58.2456 71.2386 58.1937 71.3866C58.1284 71.5717 58.1221 71.4057 58.2079 71.3166C58.1786 71.3466 58.1764 71.4905 58.1709 71.5306C58.1651 71.5787 58.1634 71.6275 58.1565 71.6761C58.1432 71.7743 58.0717 71.9804 58.1437 71.6441C58.1209 71.7531 58.1639 71.9144 58.1826 72.0268C58.1955 72.1055 58.2153 72.1824 58.2323 72.2618C58.2919 72.5482 58.1365 71.9721 58.2336 72.256C58.4485 72.882 58.267 73.6649 57.596 73.9305C57.0046 74.1631 56.1619 73.9588 55.9322 73.2876C55.4333 71.8327 55.6347 70.3653 56.5462 69.1175C57.3769 67.9787 58.5566 67.1797 59.7427 66.4623C60.7856 65.8325 61.8896 65.3117 62.924 64.6687C62.6831 64.8183 63.0148 64.6085 63.0377 64.5931C63.1382 64.5285 63.2367 64.4623 63.3351 64.3961C63.5 64.2845 63.6618 64.1717 63.8227 64.0541C64.2061 63.7744 64.5776 63.4793 64.9325 63.1643C65.0787 63.0339 65.2224 62.9006 65.3626 62.7624C65.4464 62.6807 65.5293 62.5967 65.6107 62.5122C65.8705 62.2477 65.5249 62.6247 65.6656 62.4525C65.9485 62.1061 66.2363 61.7706 66.4856 61.3977C66.6033 61.2203 66.7132 61.0398 66.8185 60.8549C66.9273 60.6632 66.6992 61.1162 66.8561 60.7822C66.9061 60.6766 66.9578 60.5716 67.0052 60.4659C67.0834 60.2867 67.1569 60.1056 67.2211 59.921C67.2622 59.8038 67.3006 59.6865 67.3355 59.567C67.3585 59.4878 67.3805 59.4091 67.4015 59.3282C67.3778 59.4233 67.376 59.428 67.3951 59.3428C67.4842 58.917 67.5377 58.4864 67.5522 58.0525C67.5532 58.0429 67.5539 57.636 67.5597 57.8854C67.5569 57.7828 67.5509 57.6789 67.5428 57.576C67.5236 57.3079 67.4901 57.0423 67.4427 56.7777C67.4058 56.5747 67.3605 56.3729 67.3071 56.1734C67.3762 56.4347 67.2637 56.046 67.2577 56.0266C67.2235 55.9289 67.1882 55.8317 67.1508 55.7355C67.003 55.3574 66.8178 55 66.6193 54.6473C66.4652 54.3747 66.7844 54.8864 66.6093 54.6336C66.5676 54.5743 66.5287 54.5125 66.4875 54.4544C66.3992 54.3276 66.307 54.204 66.21 54.0838C66.125 53.979 66.0367 53.8756 65.945 53.7764C65.8917 53.7172 65.8372 53.661 65.7812 53.6043C65.7443 53.5676 65.7074 53.5309 65.6694 53.4946C65.8057 53.6219 65.8376 53.6531 65.7666 53.5888C65.5557 53.43 65.3642 53.2508 65.1444 53.1012C65.0225 53.0181 64.8976 52.9429 64.7707 52.8659C64.7332 52.8425 64.684 52.81 64.6435 52.7943C65.0027 52.9295 64.6882 52.8224 64.603 52.7813C64.1183 52.5491 63.611 52.3854 63.0943 52.2442C62.8357 52.173 63.3845 52.3051 63.1204 52.2507C63.0608 52.2384 63.0002 52.224 62.9401 52.2106C62.8068 52.1834 62.6723 52.1566 62.5378 52.1325C62.2545 52.0814 61.9688 52.0393 61.6834 52.001C61.1147 51.9259 60.5434 51.8714 59.9733 51.8165C57.5897 51.5858 55.0775 51.2711 53.1287 49.736C51.5425 48.4866 50.4609 46.6914 49.5505 44.913C48.6187 43.0949 47.7737 41.2222 47.0374 39.3152C45.5591 35.488 44.5116 31.395 44.6332 27.2612C44.7326 23.9026 45.9165 20.636 47.8455 17.9071C49.8341 15.0944 52.5595 12.8243 55.5866 11.2246C58.6466 9.60616 62.182 8.62174 65.656 8.90805C66.5278 8.97978 67.3834 9.15491 68.2245 9.39367C68.8608 9.57485 69.2022 10.443 68.949 11.0319C68.6566 11.7099 68.0008 11.9545 67.3218 11.7613Z"/>
</mask>
<path d="M67.3218 11.7613C67.2159 11.7321 67.1112 11.7024 67.0047 11.6747C67.2776 11.746 66.9268 11.659 66.8939 11.6517C66.7156 11.6134 66.5367 11.5793 66.357 11.5494C65.9604 11.4842 65.5613 11.4396 65.1598 11.413C64.9588 11.3992 64.757 11.3922 64.5556 11.389C64.4628 11.3864 64.3715 11.387 64.2797 11.3866C63.9136 11.3818 64.5289 11.3723 64.163 11.3883C63.7537 11.4054 63.3471 11.4343 62.9402 11.4829C62.1184 11.5798 61.3042 11.7433 60.5041 11.9591C60.3946 11.9887 60.2855 12.0194 60.1759 12.0516C60.4123 11.982 60.2192 12.0387 60.1732 12.0541C59.9563 12.124 59.739 12.1929 59.523 12.2676C59.1285 12.4055 58.7381 12.5558 58.3525 12.7169C57.5873 13.0378 56.8417 13.4032 56.1185 13.8105C55.9561 13.9014 55.7947 13.9946 55.6354 14.0894C55.5996 14.1106 55.2843 14.3052 55.5449 14.1416C55.4824 14.1813 55.4195 14.2199 55.3586 14.2602C54.9925 14.4945 54.6322 14.7391 54.2815 14.9963C53.6297 15.4717 53.0052 15.9854 52.4109 16.5324C52.1402 16.7811 51.875 17.0364 51.6184 17.2995C51.541 17.3783 51.4662 17.4573 51.3888 17.5362C51.1448 17.7897 51.494 17.415 51.3522 17.576C51.196 17.7538 51.0368 17.9278 50.8842 18.1079C50.3857 18.6964 49.9217 19.3162 49.5008 19.9635C49.2963 20.2773 49.1037 20.5975 48.9203 20.9239C48.9014 20.9571 48.7344 21.271 48.8693 21.013C48.8364 21.0758 48.8046 21.1381 48.7718 21.2009C48.6752 21.391 48.5817 21.5823 48.4929 21.7754C48.1647 22.4864 47.8892 23.2204 47.6706 23.9719C47.6152 24.1617 47.565 24.3518 47.5164 24.5424C47.4629 24.7483 47.5751 24.255 47.5051 24.5956C47.4835 24.7014 47.4592 24.8071 47.4377 24.9129C47.3584 25.3057 47.2944 25.7007 47.2467 26.0976C46.8057 29.7107 47.686 33.6474 48.866 37.0042C49.5279 38.8861 50.3219 40.7193 51.1807 42.5182C52.0603 44.3584 52.8121 45.9299 54.2395 47.366C54.4341 47.5608 54.307 47.3553 54.2358 47.3664C54.2576 47.3631 54.3937 47.5074 54.4161 47.5259C54.5157 47.6112 54.6187 47.6923 54.7234 47.7714C54.9491 47.9405 55.1863 48.0888 55.4291 48.232C55.6646 48.3707 55.1648 48.1101 55.4127 48.2212C55.4804 48.2519 55.5469 48.2883 55.6151 48.3201C55.7278 48.3735 55.8432 48.4244 55.9583 48.4716C56.2122 48.576 56.472 48.6674 56.7344 48.7473C56.8667 48.7867 57.0005 48.8177 57.1322 48.8587C57.2982 48.9103 56.8191 48.7899 57.0758 48.845C57.1484 48.8605 57.2221 48.8782 57.2963 48.8943C57.5686 48.9528 57.8419 49.0018 58.117 49.046C58.6726 49.1322 59.2319 49.1946 59.7909 49.2506C62.1195 49.4826 64.5426 49.6658 66.5536 51.0002C69.2873 52.8136 70.575 56.5131 69.8873 59.682C69.0767 63.4166 66.0397 65.8808 62.8534 67.6195C62.372 67.882 61.8858 68.1364 61.4088 68.406C61.169 68.5408 60.9317 68.6809 60.6963 68.8228C60.4404 68.9765 60.9501 68.6584 60.6985 68.8218C60.6392 68.8601 60.5806 68.8968 60.5219 68.9361C60.3686 69.036 60.2178 69.1386 60.0685 69.2445C59.8429 69.4054 59.6217 69.5734 59.4095 69.753C59.2944 69.8487 59.1823 69.9483 59.0738 70.0502C59.0247 70.0969 58.9768 70.1431 58.9293 70.1904C58.6758 70.443 59.0228 70.0692 58.8818 70.2376C58.7195 70.4338 58.5598 70.6301 58.423 70.846C58.3883 70.9018 58.3291 70.9751 58.3105 71.038C58.3944 70.7549 58.3926 70.8648 58.3625 70.9484C58.3101 71.0954 58.2456 71.2386 58.1937 71.3866C58.1284 71.5717 58.1221 71.4057 58.2079 71.3166C58.1786 71.3466 58.1764 71.4905 58.1709 71.5306C58.1651 71.5787 58.1634 71.6275 58.1565 71.6761C58.1432 71.7743 58.0717 71.9804 58.1437 71.6441C58.1209 71.7531 58.1639 71.9144 58.1826 72.0268C58.1955 72.1055 58.2153 72.1824 58.2323 72.2618C58.2919 72.5482 58.1365 71.9721 58.2336 72.256C58.4485 72.882 58.267 73.6649 57.596 73.9305C57.0046 74.1631 56.1619 73.9588 55.9322 73.2876C55.4333 71.8327 55.6347 70.3653 56.5462 69.1175C57.3769 67.9787 58.5566 67.1797 59.7427 66.4623C60.7856 65.8325 61.8896 65.3117 62.924 64.6687C62.6831 64.8183 63.0148 64.6085 63.0377 64.5931C63.1382 64.5285 63.2367 64.4623 63.3351 64.3961C63.5 64.2845 63.6618 64.1717 63.8227 64.0541C64.2061 63.7744 64.5776 63.4793 64.9325 63.1643C65.0787 63.0339 65.2224 62.9006 65.3626 62.7624C65.4464 62.6807 65.5293 62.5967 65.6107 62.5122C65.8705 62.2477 65.5249 62.6247 65.6656 62.4525C65.9485 62.1061 66.2363 61.7706 66.4856 61.3977C66.6033 61.2203 66.7132 61.0398 66.8185 60.8549C66.9273 60.6632 66.6992 61.1162 66.8561 60.7822C66.9061 60.6766 66.9578 60.5716 67.0052 60.4659C67.0834 60.2867 67.1569 60.1056 67.2211 59.921C67.2622 59.8038 67.3006 59.6865 67.3355 59.567C67.3585 59.4878 67.3805 59.4091 67.4015 59.3282C67.3778 59.4233 67.376 59.428 67.3951 59.3428C67.4842 58.917 67.5377 58.4864 67.5522 58.0525C67.5532 58.0429 67.5539 57.636 67.5597 57.8854C67.5569 57.7828 67.5509 57.6789 67.5428 57.576C67.5236 57.3079 67.4901 57.0423 67.4427 56.7777C67.4058 56.5747 67.3605 56.3729 67.3071 56.1734C67.3762 56.4347 67.2637 56.046 67.2577 56.0266C67.2235 55.9289 67.1882 55.8317 67.1508 55.7355C67.003 55.3574 66.8178 55 66.6193 54.6473C66.4652 54.3747 66.7844 54.8864 66.6093 54.6336C66.5676 54.5743 66.5287 54.5125 66.4875 54.4544C66.3992 54.3276 66.307 54.204 66.21 54.0838C66.125 53.979 66.0367 53.8756 65.945 53.7764C65.8917 53.7172 65.8372 53.661 65.7812 53.6043C65.7443 53.5676 65.7074 53.5309 65.6694 53.4946C65.8057 53.6219 65.8376 53.6531 65.7666 53.5888C65.5557 53.43 65.3642 53.2508 65.1444 53.1012C65.0225 53.0181 64.8976 52.9429 64.7707 52.8659C64.7332 52.8425 64.684 52.81 64.6435 52.7943C65.0027 52.9295 64.6882 52.8224 64.603 52.7813C64.1183 52.5491 63.611 52.3854 63.0943 52.2442C62.8357 52.173 63.3845 52.3051 63.1204 52.2507C63.0608 52.2384 63.0002 52.224 62.9401 52.2106C62.8068 52.1834 62.6723 52.1566 62.5378 52.1325C62.2545 52.0814 61.9688 52.0393 61.6834 52.001C61.1147 51.9259 60.5434 51.8714 59.9733 51.8165C57.5897 51.5858 55.0775 51.2711 53.1287 49.736C51.5425 48.4866 50.4609 46.6914 49.5505 44.913C48.6187 43.0949 47.7737 41.2222 47.0374 39.3152C45.5591 35.488 44.5116 31.395 44.6332 27.2612C44.7326 23.9026 45.9165 20.636 47.8455 17.9071C49.8341 15.0944 52.5595 12.8243 55.5866 11.2246C58.6466 9.60616 62.182 8.62174 65.656 8.90805C66.5278 8.97978 67.3834 9.15491 68.2245 9.39367C68.8608 9.57485 69.2022 10.443 68.949 11.0319C68.6566 11.7099 68.0008 11.9545 67.3218 11.7613Z" fill="#15172A" stroke="#F08C03" stroke-width="0.692535" mask="url(#path-4-inside-1_2971_7942)"/>
<path d="M33.6131 80.9481C33.6123 80.9478 33.6115 80.9475 33.6107 80.9471C33.2682 81.4382 32.9258 81.9293 32.5837 82.4211C36.1358 84.2832 39.9976 85.5528 43.9186 85.9988L43.9187 85.9988C49.8871 86.6814 56.0371 85.3272 61.1591 82.2967C61.5594 82.0593 61.9162 81.812 62.0412 81.4347L62.0413 81.4345C62.13 81.1679 62.1158 80.9668 62.0531 80.8186C61.99 80.6695 61.8689 80.5528 61.705 80.4726C61.37 80.3086 60.8904 80.3155 60.5338 80.4932L60.5336 80.4933C60.4537 80.5331 60.3737 80.5728 60.2936 80.6127C58.6708 81.4198 57.029 82.2364 55.3199 82.8742C53.5856 83.5215 51.6771 83.8466 49.8512 84.0394C46.9002 84.3508 43.964 84.1346 41.0405 83.5431C39.5864 83.2497 38.1553 82.8405 36.7537 82.3241L36.7536 82.3241C36.627 82.2774 35.9008 81.9557 35.172 81.6329L35.0183 81.5649C34.6268 81.3915 34.2434 81.2219 33.9571 81.0967C33.8139 81.0341 33.6957 80.983 33.6131 80.9481Z" fill="#F08C03" stroke="#F08C03" stroke-width="0.346267"/>
<path d="M30.8839 85.2684L30.8843 85.2678L30.9368 85.1978C31.7386 84.1219 32.542 83.0453 33.3454 81.9687L33.3471 81.9664C34.1499 80.8906 34.9526 79.8149 35.7538 78.7399L35.7536 78.7397L35.7595 78.7326C35.781 78.7068 35.7962 78.6855 35.8135 78.6612C35.8266 78.643 35.8409 78.623 35.8599 78.5982L36.2627 78.0559L36.2633 78.0552C36.4782 77.769 36.3013 77.3566 35.9555 77.3113L35.9548 77.3112L26.6869 76.0568C26.3754 76.0303 26.0854 76.1693 25.9141 76.4209C25.6955 76.7529 25.808 77.1106 25.8373 77.2016C25.8427 77.2126 25.8471 77.2215 25.8516 77.2306C25.8569 77.2413 25.8624 77.2524 25.87 77.2679L25.8701 77.2678L25.873 77.2745L29.6123 85.8201L29.6125 85.8206C29.7535 86.1457 30.1898 86.1978 30.4071 85.9105C30.4073 85.9103 30.4074 85.9101 30.4075 85.91L30.8839 85.2684Z" fill="#F08C03" stroke="#F08C03" stroke-width="0.346267"/>
<defs>
<filter id="filter0_d_2971_7942" x="0" y="0" width="98.3822" height="99.2278" filterUnits="userSpaceOnUse" color-interpolation-filters="sRGB">
<feFlood flood-opacity="0" result="BackgroundImageFix"/>
<feColorMatrix in="SourceAlpha" type="matrix" values="0 0 0 0 0 0 0 0 0 0 0 0 0 0 0 0 0 0 127 0" result="hardAlpha"/>
<feOffset dx="3.38224" dy="4.22781"/>
<feComposite in2="hardAlpha" operator="out"/>
<feColorMatrix type="matrix" values="0 0 0 0 0.0823529 0 0 0 0 0.0901961 0 0 0 0 0.168627 0 0 0 1 0"/>
<feBlend mode="normal" in2="BackgroundImageFix" result="effect1_dropShadow_2971_7942"/>
<feBlend mode="normal" in="SourceGraphic" in2="effect1_dropShadow_2971_7942" result="shape"/>
</filter>
</defs>
</svg>
