<svg width="314" height="355" viewBox="0 0 314 355" fill="none" xmlns="http://www.w3.org/2000/svg">
<path fill-rule="evenodd" clip-rule="evenodd" d="M17.0137 73.712L259.46 49.0787C264.113 48.6059 268.764 50.001 272.39 52.9571C276.015 55.9133 278.317 60.1883 278.79 64.8418L305.333 325.861C305.333 325.862 305.332 325.864 305.331 325.864L27.7949 354.06C27.7937 354.06 27.7925 354.059 27.7924 354.058L1.252 93.0406C0.266559 83.3503 7.3233 74.6966 17.0137 73.712Z" fill="#EFC083"/>
<path fill-rule="evenodd" clip-rule="evenodd" d="M17.0137 73.712L259.46 49.0787C264.113 48.6059 268.764 50.001 272.39 52.9571C276.015 55.9133 278.317 60.1883 278.79 64.8418L305.333 325.861C305.333 325.862 305.332 325.864 305.331 325.864L27.7949 354.06C27.7937 354.06 27.7925 354.059 27.7924 354.058L1.252 93.0406C0.266559 83.3503 7.3233 74.6966 17.0137 73.712Z" stroke="black" stroke-width="1.35859" stroke-miterlimit="10" stroke-linejoin="round"/>
<path fill-rule="evenodd" clip-rule="evenodd" d="M49.1627 2.39644L292.88 1.08815C297.558 1.06303 302.054 2.89723 305.38 6.18722C308.706 9.47722 310.589 13.9535 310.615 18.6314L312.358 336.855C312.358 336.856 312.357 336.857 312.356 336.857L33.3648 338.353C33.3635 338.353 33.3624 338.352 33.3624 338.35L31.6214 20.129C31.568 10.3879 39.4216 2.44873 49.1627 2.39644Z" fill="white"/>
<path fill-rule="evenodd" clip-rule="evenodd" d="M49.1627 2.39644L292.88 1.08815C297.558 1.06303 302.054 2.89723 305.38 6.18723C308.706 9.47722 310.589 13.9535 310.615 18.6314L312.358 336.855C312.358 336.856 312.357 336.857 312.356 336.857L33.3648 338.353C33.3635 338.353 33.3624 338.352 33.3624 338.35L31.6214 20.129C31.568 10.3879 39.4216 2.44873 49.1627 2.39644Z" stroke="black" stroke-width="1.35859" stroke-miterlimit="10" stroke-linejoin="round"/>
<path d="M68.3615 56.3492L62.3119 56.4081L61.219 59.497L59.3086 59.5156L64.1736 45.6693L66.2751 45.6489L71.408 59.3977L69.4976 59.4163L68.3615 56.3492ZM67.8153 54.8685L65.2371 47.888L62.8057 54.9173L67.8153 54.8685ZM77.464 59.5085C76.6291 59.5166 75.8776 59.3824 75.2095 59.1059C74.5415 58.8294 74.0137 58.4382 73.6263 57.9325C73.2389 57.4268 73.0204 56.8416 72.971 56.1769L74.839 56.1587C74.9012 56.6959 75.1606 57.1392 75.6172 57.4885C76.0877 57.8236 76.6909 57.9876 77.4268 57.9804C78.1202 57.9736 78.6635 57.8197 79.0566 57.5187C79.4496 57.2035 79.6437 56.8124 79.6387 56.3454C79.6337 55.8643 79.4177 55.5126 78.9908 55.2903C78.5639 55.068 77.9035 54.848 77.0096 54.6303C76.2007 54.4259 75.5405 54.22 75.0288 54.0127C74.517 53.7912 74.0749 53.47 73.7025 53.0491C73.33 52.614 73.14 52.0427 73.1326 51.3351C73.1268 50.7832 73.2842 50.2722 73.6048 49.802C73.9396 49.3317 74.4098 48.9591 75.0154 48.6843C75.6353 48.4094 76.3344 48.2681 77.1127 48.2606C78.3156 48.2488 79.2881 48.5436 80.0304 49.145C80.7867 49.7462 81.1988 50.5772 81.2666 51.6379L79.4623 51.6555C79.4139 51.0899 79.1756 50.6393 78.7475 50.3038C78.3334 49.954 77.7726 49.7826 77.065 49.7895C76.4141 49.7958 75.899 49.9424 75.5199 50.2291C75.1406 50.5017 74.9534 50.8645 74.9581 51.3173C74.9618 51.6711 75.0781 51.9671 75.3071 52.2055C75.55 52.4296 75.8421 52.6107 76.1832 52.7489C76.5385 52.887 77.0283 53.0379 77.6528 53.2016C78.4474 53.4062 79.0865 53.6123 79.5698 53.8198C80.0672 54.0131 80.4949 54.3132 80.8531 54.7202C81.2111 55.1271 81.4007 55.6631 81.4218 56.328C81.4281 56.9224 81.2639 57.4618 80.9293 57.9463C80.6088 58.4306 80.1458 58.8101 79.5401 59.0849C78.9485 59.3596 78.2565 59.5008 77.464 59.5085ZM90.0847 59.2157L85.7676 54.4388L85.818 59.2573L83.9925 59.2751L83.8382 44.5436L85.6637 44.5258L85.7544 53.1864L89.9067 48.3057L92.4327 48.2811L87.3526 53.7652L92.5682 59.1915L90.0847 59.2157ZM98.8261 53.6322C98.8143 52.5142 99.0305 51.5356 99.4747 50.6963C99.9186 49.8428 100.534 49.1857 101.322 48.7252C102.11 48.2505 102.985 48.0084 103.947 47.999C104.909 47.9896 105.739 48.1868 106.437 48.5904C107.149 48.9939 107.685 49.5052 108.045 50.1245L108.024 48.1291L109.85 48.1113L109.964 59.0219L108.139 59.0397L108.117 57.002C107.756 57.6424 107.224 58.1783 106.521 58.6097C105.817 59.027 104.992 59.2402 104.044 59.2495C103.081 59.2589 102.201 59.0339 101.404 58.5746C100.621 58.1011 99.9982 57.4349 99.5363 56.5761C99.0744 55.7173 98.8376 54.736 98.8261 53.6322ZM108.081 53.5632C108.073 52.7424 107.895 52.0294 107.549 51.4243C107.218 50.8189 106.767 50.3563 106.197 50.0363C105.628 49.7164 105.004 49.5597 104.324 49.5663C103.645 49.5729 103.024 49.7417 102.461 50.0727C101.913 50.3894 101.479 50.8536 101.16 51.4653C100.841 52.077 100.685 52.7932 100.694 53.614C100.703 54.4489 100.873 55.1761 101.205 55.7956C101.537 56.4009 101.981 56.8636 102.536 57.1837C103.105 57.5037 103.73 57.6604 104.409 57.6537C105.088 57.6471 105.709 57.4783 106.272 57.1473C106.835 56.8163 107.275 56.345 107.594 55.7333C107.928 55.1073 108.09 54.384 108.081 53.5632ZM118.234 47.8386C119.551 47.8257 120.623 48.2186 121.452 49.0173C122.296 49.8016 122.725 50.9508 122.741 52.465L122.808 58.8968L121.004 58.9144L120.939 52.7373C120.928 51.6477 120.643 50.8225 120.086 50.2619C119.542 49.6869 118.803 49.404 117.869 49.4131C116.907 49.4225 116.146 49.7271 115.586 50.3269C115.04 50.9267 114.773 51.7997 114.785 52.9459L114.848 58.9744L113.023 58.9921L112.909 48.0815L114.734 48.0637L114.75 49.6133C115.098 49.058 115.575 48.6287 116.18 48.3256C116.8 48.0082 117.484 47.8459 118.234 47.8386ZM135.055 47.8657L128.643 63.9773L126.775 63.9955L128.885 58.7102L124.357 47.97L126.373 47.9503L129.883 56.7474L133.187 47.8839L135.055 47.8657ZM141.555 53.2158C141.543 52.0978 141.76 51.1192 142.204 50.2798C142.648 49.4263 143.263 48.7693 144.051 48.3088C144.839 47.834 145.721 47.5919 146.697 47.5824C147.645 47.5732 148.476 47.7774 149.188 48.195C149.899 48.5985 150.428 49.1028 150.774 49.708L150.753 47.7127L152.579 47.6949L152.747 63.7849L150.922 63.8027L150.847 56.6068C150.499 57.2187 149.967 57.7405 149.25 58.1721C148.546 58.6035 147.714 58.8239 146.751 58.8333C145.803 58.8425 144.931 58.6175 144.133 58.1582C143.35 57.6847 142.727 57.0185 142.265 56.1597C141.803 55.3009 141.567 54.3195 141.555 53.2158ZM150.81 53.1468C150.802 52.326 150.624 51.613 150.278 51.0078C149.947 50.4025 149.496 49.9399 148.927 49.6199C148.357 49.2999 147.733 49.1433 147.053 49.1499C146.374 49.1565 145.753 49.3253 145.191 49.6563C144.642 49.973 144.208 50.4372 143.889 51.0489C143.57 51.6606 143.415 52.3768 143.423 53.1976C143.432 54.0325 143.602 54.7597 143.934 55.3792C144.266 55.9845 144.71 56.4472 145.265 56.7673C145.834 57.0873 146.459 57.2439 147.138 57.2373C147.817 57.2307 148.438 57.0619 149.001 56.7309C149.564 56.3999 150.005 55.9286 150.324 55.3169C150.657 54.6909 150.819 53.9676 150.81 53.1468ZM165.317 47.5708L165.431 58.4814L163.627 58.499L163.61 56.8857C163.262 57.4411 162.778 57.8845 162.159 58.2161C161.554 58.5333 160.883 58.6955 160.148 58.7027C159.299 58.711 158.533 58.5415 157.85 58.1944C157.167 57.8472 156.623 57.3218 156.22 56.6181C155.83 55.9142 155.63 55.06 155.62 54.0552L155.553 47.6659L157.336 47.6486L157.4 53.8044C157.411 54.8798 157.689 55.7051 158.233 56.28C158.791 56.8407 159.537 57.1165 160.471 57.1074C161.447 57.0979 162.208 56.7932 162.754 56.1935C163.314 55.5936 163.587 54.7206 163.576 53.5743L163.513 47.5884L165.317 47.5708ZM178.389 52.4747C178.392 52.8284 178.375 53.1966 178.337 53.5791L169.634 53.6639C169.702 54.7388 170.071 55.5773 170.743 56.1793C171.428 56.7671 172.252 57.0563 173.214 57.0469C173.993 57.0393 174.642 56.8561 175.162 56.4972C175.681 56.1241 176.044 55.6253 176.25 55.0005L178.203 54.9815C177.917 56.0457 177.338 56.9076 176.468 57.5671C175.597 58.2266 174.518 58.5627 173.23 58.5752C172.183 58.5854 171.247 58.3681 170.421 57.9233C169.61 57.4641 168.966 56.8123 168.49 55.9678C168.014 55.1091 167.77 54.1137 167.758 52.9816C167.746 51.8495 167.962 50.8567 168.406 50.0032C168.85 49.1497 169.473 48.4926 170.275 48.0319C171.091 47.5711 172.037 47.3355 173.112 47.325C174.145 47.3149 175.061 47.5324 175.858 47.9775C176.655 48.4085 177.27 49.0182 177.703 49.8065C178.15 50.5947 178.378 51.4841 178.389 52.4747ZM176.517 52.1108C176.51 51.4315 176.348 50.8458 176.031 50.3535C175.729 49.847 175.315 49.4689 174.788 49.2193C174.262 48.9696 173.68 48.8479 173.044 48.8541C172.124 48.8631 171.341 49.1609 170.697 49.7474C170.066 50.3338 169.713 51.1439 169.639 52.1778L176.517 52.1108ZM184.705 58.4634C183.87 58.4715 183.118 58.3373 182.45 58.0608C181.782 57.7842 181.254 57.3931 180.867 56.8874C180.48 56.3817 180.261 55.7965 180.212 55.1318L182.08 55.1135C182.142 55.6507 182.401 56.094 182.858 56.4434C183.329 56.7785 183.932 56.9424 184.668 56.9353C185.361 56.9285 185.904 56.7746 186.297 56.4736C186.69 56.1584 186.884 55.7673 186.88 55.3003C186.875 54.8191 186.659 54.4674 186.232 54.2452C185.805 54.0229 185.144 53.8029 184.25 53.5851C183.442 53.3807 182.781 53.1749 182.27 52.9676C181.758 52.7461 181.316 52.4249 180.943 52.004C180.571 51.5689 180.381 50.9975 180.373 50.29C180.368 49.7381 180.525 49.227 180.846 48.7569C181.18 48.2866 181.651 47.914 182.256 47.6392C182.876 47.3643 183.575 47.223 184.353 47.2154C185.556 47.2037 186.529 47.4985 187.271 48.0998C188.028 48.701 188.44 49.532 188.507 50.5928L186.703 50.6104C186.655 50.0448 186.416 49.5942 185.988 49.2587C185.574 48.9089 185.013 48.7375 184.306 48.7444C183.655 48.7507 183.14 48.8973 182.761 49.184C182.381 49.4566 182.194 49.8193 182.199 50.2722C182.203 50.6259 182.319 50.922 182.548 51.1604C182.791 51.3845 183.083 51.5656 183.424 51.7038C183.779 51.8419 184.269 51.9928 184.894 52.1565C185.688 52.3611 186.327 52.5671 186.811 52.7747C187.308 52.968 187.736 53.2681 188.094 53.6751C188.452 54.082 188.641 54.6179 188.663 55.2829C188.669 55.8773 188.505 56.4167 188.17 56.9011C187.85 57.3854 187.387 57.765 186.781 58.0398C186.189 58.3145 185.497 58.4557 184.705 58.4634ZM193.342 48.7837L193.41 55.2154C193.415 55.7532 193.532 56.1342 193.761 56.3584C193.99 56.5684 194.387 56.6707 194.953 56.6652L196.269 56.6524L196.285 58.1807L194.672 58.1964C193.653 58.2063 192.887 57.9803 192.372 57.5183C191.872 57.0561 191.616 56.2944 191.605 55.233L191.538 48.8013L190.116 48.8151L190.1 47.3292L191.522 47.3154L191.494 44.5771L193.298 44.5595L193.327 47.2978L196.171 47.2701L196.187 48.756L193.342 48.7837ZM199.282 45.4565C198.942 45.4598 198.651 45.3495 198.408 45.1254C198.165 44.8871 198.042 44.5911 198.038 44.2374C198.034 43.8977 198.152 43.6065 198.39 43.3635C198.628 43.1206 198.917 42.9975 199.256 42.9942C199.596 42.9909 199.88 43.1084 200.109 43.3468C200.352 43.585 200.475 43.8739 200.479 44.2136C200.483 44.5674 200.366 44.8657 200.128 45.1086C199.903 45.3372 199.622 45.4532 199.282 45.4565ZM200.192 47.2309L200.306 58.1415L198.481 58.1593L198.367 47.2487L200.192 47.2309ZM208.136 58.235C207.117 58.245 206.187 58.0276 205.348 57.5829C204.522 57.1239 203.864 56.4722 203.374 55.6278C202.898 54.7691 202.654 53.7738 202.642 52.6417C202.631 51.5237 202.861 50.5378 203.333 49.6841C203.819 48.816 204.478 48.1515 205.308 47.6905C206.138 47.2296 207.07 46.994 208.103 46.984C209.136 46.9739 210.072 47.1912 210.912 47.6359C211.766 48.0805 212.438 48.725 212.928 49.5694C213.418 50.4137 213.669 51.402 213.68 52.5341C213.692 53.6662 213.455 54.6662 212.969 55.5343C212.482 56.3882 211.817 57.0528 210.973 57.5281C210.129 57.9892 209.183 58.2248 208.136 58.235ZM208.119 56.643C208.77 56.6367 209.377 56.4822 209.94 56.1795C210.517 55.8625 210.979 55.398 211.326 54.7861C211.674 54.1741 211.843 53.4295 211.834 52.5521C211.824 51.6747 211.64 50.9335 211.28 50.3284C210.934 49.7232 210.476 49.2748 209.907 48.9831C209.352 48.6913 208.749 48.5486 208.098 48.555C207.433 48.5614 206.826 48.716 206.277 49.0185C205.728 49.3211 205.294 49.7782 204.975 50.3899C204.656 51.0015 204.501 51.7461 204.51 52.6234C204.52 53.515 204.69 54.2634 205.022 54.8687C205.354 55.4741 205.79 55.9227 206.331 56.2146C206.872 56.5066 207.468 56.6494 208.119 56.643ZM221.334 46.8338C222.65 46.821 223.722 47.2139 224.552 48.0125C225.395 48.7968 225.825 49.9461 225.84 51.4603L225.908 57.892L224.103 57.9096L224.039 51.7326C224.027 50.6429 223.743 49.8178 223.185 49.2571C222.641 48.6821 221.902 48.3992 220.968 48.4083C220.006 48.4177 219.245 48.7223 218.685 49.3222C218.139 49.9219 217.872 50.7949 217.884 51.9411L217.948 57.9696L216.122 57.9874L216.008 47.0768L217.833 47.059L217.85 48.6085C218.198 48.0532 218.674 47.624 219.28 47.3208C219.899 47.0035 220.584 46.8411 221.334 46.8338ZM232.73 57.9953C231.895 58.0035 231.144 57.8693 230.476 57.5927C229.808 57.3162 229.28 56.9251 228.893 56.4193C228.505 55.9136 228.287 55.3284 228.237 54.6637L230.105 54.6455C230.167 55.1827 230.427 55.626 230.883 55.9754C231.354 56.3104 231.957 56.4744 232.693 56.4672C233.386 56.4605 233.93 56.3066 234.323 56.0055C234.716 55.6903 234.91 55.2992 234.905 54.8323C234.9 54.3511 234.684 53.9994 234.257 53.7771C233.83 53.5548 233.17 53.3348 232.276 53.1171C231.467 52.9127 230.807 52.7068 230.295 52.4995C229.783 52.2781 229.341 51.9569 228.969 51.5359C228.596 51.1008 228.406 50.5295 228.399 49.8219C228.393 49.27 228.55 48.759 228.871 48.2888C229.206 47.8185 229.676 47.446 230.282 47.1712C230.901 46.8962 231.601 46.755 232.379 46.7474C233.582 46.7357 234.554 47.0305 235.297 47.6318C236.053 48.233 236.465 49.064 236.533 50.1248L234.728 50.1424C234.68 49.5767 234.442 49.1262 234.014 48.7907C233.6 48.4409 233.039 48.2694 232.331 48.2763C231.68 48.2827 231.165 48.4292 230.786 48.716C230.407 48.9886 230.219 49.3513 230.224 49.8041C230.228 50.1579 230.344 50.454 230.573 50.6924C230.816 50.9164 231.108 51.0976 231.449 51.2358C231.805 51.3738 232.294 51.5247 232.919 51.6885C233.714 51.893 234.353 52.0991 234.836 52.3067C235.333 52.5 235.761 52.8001 236.119 53.207C236.477 53.614 236.667 54.1499 236.688 54.8149C236.694 55.4092 236.53 55.9486 236.195 56.4331C235.875 56.9174 235.412 57.297 234.806 57.5718C234.215 57.8464 233.523 57.9876 232.73 57.9953Z" fill="#25282A"/>
<path d="M62.1603 74.2483C62.4652 73.6226 62.913 73.1371 63.5038 72.7916C64.0946 72.4462 64.8145 72.2694 65.6635 72.2611L65.6831 74.1291L65.195 74.1338C63.1713 74.1535 62.1709 75.2601 62.1939 77.4536L62.2562 83.3971L60.4307 83.4149L60.3164 72.5043L62.1419 72.4865L62.1603 74.2483ZM77.7513 77.3656C77.755 77.7194 77.7377 78.0876 77.6993 78.4701L68.9962 78.5549C69.064 79.6298 69.4337 80.4683 70.1052 81.0703C70.7907 81.6581 71.6146 81.9472 72.5768 81.9379C73.3552 81.9303 74.0043 81.747 74.5242 81.3881C75.0439 81.0151 75.4067 80.5162 75.6124 79.8915L77.5653 79.8725C77.2793 80.9367 76.7009 81.7986 75.8304 82.4581C74.9598 83.1176 73.8806 83.4536 72.5928 83.4662C71.5456 83.4764 70.6093 83.2591 69.7838 82.8142C68.9722 82.3551 68.3285 81.7033 67.8527 80.8587C67.3767 80.0001 67.1327 79.0047 67.1208 77.8726C67.109 76.7405 67.325 75.7477 67.7689 74.8942C68.2129 74.0407 68.8358 73.3836 69.6377 72.9229C70.4538 72.4621 71.3995 72.2264 72.475 72.2159C73.508 72.2059 74.4232 72.4234 75.2204 72.8685C76.0175 73.2995 76.6325 73.9091 77.0653 74.6975C77.5123 75.4857 77.7409 76.3751 77.7513 77.3656ZM75.8794 77.0018C75.8722 76.3225 75.7104 75.7367 75.3939 75.2445C75.0914 74.7379 74.677 74.3598 74.1508 74.1102C73.6245 73.8606 73.0429 73.7389 72.4061 73.7451C71.4863 73.7541 70.7039 74.0518 70.0591 74.6384C69.4283 75.2248 69.0759 76.0349 69.0018 77.0688L75.8794 77.0018ZM81.8736 68.473L82.0278 83.2044L80.2023 83.2222L80.048 68.4907L81.8736 68.473ZM84.3635 77.6833C84.3519 76.5654 84.5681 75.5867 85.0121 74.7474C85.4561 73.8939 86.0719 73.2369 86.8597 72.7763C87.6472 72.3016 88.5222 72.0596 89.4845 72.0502C90.4467 72.0408 91.2768 72.2379 91.9745 72.6416C92.6864 73.045 93.2225 73.5564 93.5827 74.1756L93.5618 72.1803L95.3873 72.1625L95.5016 83.0731L93.6761 83.0909L93.6548 81.0531C93.2935 81.6935 92.7613 82.2294 92.0582 82.6608C91.3549 83.0781 90.5292 83.2914 89.5811 83.3006C88.6188 83.31 87.739 83.0851 86.9416 82.6258C86.1582 82.1522 85.5356 81.486 85.0738 80.6272C84.6118 79.7684 84.3751 78.7871 84.3635 77.6833ZM93.6188 77.6144C93.6102 76.7936 93.4328 76.0806 93.0868 75.4754C92.755 74.8701 92.3043 74.4074 91.7349 74.0875C91.1654 73.7675 90.5411 73.6108 89.8618 73.6174C89.1825 73.6241 88.5616 73.7929 87.9989 74.1239C87.4503 74.4406 87.0164 74.9048 86.6973 75.5164C86.3782 76.1281 86.2229 76.8443 86.2315 77.6651C86.2403 78.5 86.4106 79.2272 86.7426 79.8467C87.0745 80.4521 87.5181 80.9148 88.0734 81.2349C88.6429 81.5548 89.2673 81.7115 89.9465 81.7049C90.6257 81.6983 91.2467 81.5295 91.8093 81.1985C92.372 80.8675 92.8129 80.3961 93.132 79.7845C93.4651 79.1585 93.6274 78.4351 93.6188 77.6144ZM100.669 73.597L100.737 80.0288C100.742 80.5665 100.859 80.9475 101.088 81.1717C101.317 81.3818 101.714 81.4841 102.28 81.4785L103.596 81.4657L103.612 82.9941L101.999 83.0098C100.98 83.0197 100.214 82.7937 99.6992 82.3316C99.199 81.8695 98.9434 81.1077 98.9323 80.0464L98.8648 73.6146L97.4427 73.6285L97.4271 72.1426L98.8493 72.1287L98.8206 69.3905L100.625 69.3729L100.654 72.1112L103.498 72.0834L103.514 73.5693L100.669 73.597ZM115.702 76.9958C115.705 77.3496 115.688 77.7177 115.65 78.1002L106.947 78.185C107.014 79.26 107.384 80.0984 108.056 80.7005C108.741 81.2882 109.565 81.5774 110.527 81.568C111.306 81.5604 111.955 81.3772 112.475 81.0183C112.994 80.6453 113.357 80.1464 113.563 79.5217L115.516 79.5026C115.23 80.5669 114.651 81.4287 113.781 82.0883C112.91 82.7478 111.831 83.0838 110.543 83.0963C109.496 83.1065 108.56 82.8892 107.734 82.4444C106.923 81.9852 106.279 81.3334 105.803 80.4889C105.327 79.6302 105.083 78.6348 105.071 77.5027C105.059 76.3706 105.275 75.3778 105.719 74.5244C106.163 73.6709 106.786 73.0138 107.588 72.5531C108.404 72.0922 109.35 71.8566 110.425 71.8461C111.459 71.836 112.374 72.0535 113.171 72.4987C113.968 72.9296 114.583 73.5393 115.016 74.3276C115.463 75.1158 115.691 76.0052 115.702 76.9958ZM113.83 76.6319C113.823 75.9526 113.661 75.3669 113.344 74.8746C113.042 74.3681 112.627 73.99 112.101 73.7404C111.575 73.4908 110.993 73.369 110.357 73.3753C109.437 73.3842 108.654 73.682 108.009 74.2685C107.379 74.8549 107.026 75.6651 106.952 76.6989L113.83 76.6319ZM117.416 77.3612C117.404 76.2433 117.62 75.2646 118.064 74.4253C118.508 73.5718 119.124 72.9148 119.912 72.4542C120.7 71.9795 121.582 71.7374 122.558 71.7279C123.407 71.7196 124.195 71.91 124.92 72.2992C125.66 72.6742 126.232 73.1781 126.635 73.811L126.574 68.0373L128.4 68.0195L128.554 82.751L126.728 82.7688L126.707 80.7098C126.346 81.3643 125.814 81.9073 125.11 82.3387C124.421 82.7559 123.603 82.9691 122.655 82.9783C121.692 82.9877 120.812 82.7627 120.015 82.3035C119.218 81.83 118.588 81.1639 118.126 80.3051C117.664 79.4463 117.427 78.465 117.416 77.3612ZM126.671 77.2922C126.663 76.4715 126.485 75.7585 126.139 75.1533C125.807 74.548 125.357 74.0853 124.787 73.7653C124.218 73.4454 123.593 73.2887 122.914 73.2953C122.235 73.3019 121.614 73.4708 121.051 73.8018C120.503 74.1185 120.069 74.5827 119.75 75.1943C119.431 75.806 119.275 76.5222 119.284 77.343C119.293 78.1779 119.463 78.9051 119.795 79.5246C120.127 80.1299 120.57 80.5927 121.126 80.9128C121.695 81.2327 122.32 81.3894 122.999 81.3828C123.678 81.3762 124.299 81.2073 124.862 80.8763C125.424 80.5454 125.865 80.074 126.184 79.4623C126.517 78.8364 126.68 78.113 126.671 77.2922ZM139.038 73.2231L139.105 79.6549C139.111 80.1926 139.228 80.5736 139.457 80.7978C139.685 81.0079 140.083 81.1101 140.649 81.1046L141.965 81.0918L141.981 82.6201L140.368 82.6358C139.349 82.6458 138.582 82.4197 138.068 81.9577C137.568 81.4955 137.312 80.7338 137.301 79.6724L137.234 73.2407L135.811 73.2546L135.796 71.7687L137.218 71.7548L137.189 69.0166L138.993 68.999L139.022 71.7372L141.867 71.7095L141.882 73.1954L139.038 73.2231ZM148.933 82.7222C147.914 82.7321 146.985 82.5147 146.145 82.07C145.32 81.611 144.662 80.9594 144.172 80.115C143.696 79.2563 143.452 78.2609 143.44 77.1288C143.428 76.0109 143.658 75.025 144.131 74.1712C144.617 73.3032 145.275 72.6387 146.105 72.1777C146.936 71.7167 147.867 71.4812 148.9 71.4711C149.933 71.4611 150.87 71.6784 151.709 72.1231C152.563 72.5676 153.235 73.2121 153.725 74.0565C154.215 74.9009 154.466 75.8891 154.478 77.0212C154.49 78.1533 154.253 79.1534 153.766 80.0215C153.28 80.8754 152.615 81.54 151.77 82.0152C150.926 82.4763 149.98 82.712 148.933 82.7222ZM148.916 81.1302C149.567 81.1238 150.174 80.9693 150.737 80.6666C151.314 80.3497 151.776 79.8852 152.124 79.2732C152.471 78.6613 152.64 77.9166 152.631 77.0392C152.622 76.1619 152.437 75.4206 152.077 74.8156C151.731 74.2104 151.274 73.762 150.704 73.4703C150.149 73.1785 149.546 73.0358 148.895 73.0421C148.23 73.0486 147.623 73.2031 147.075 73.5057C146.526 73.8082 146.092 74.2654 145.773 74.877C145.454 75.4887 145.299 76.2332 145.308 77.1106C145.317 78.0021 145.488 78.7506 145.82 79.3559C146.151 79.9612 146.588 80.4099 147.129 80.7018C147.669 80.9937 148.265 81.1365 148.916 81.1302Z" fill="#25282A"/>
<path d="M161.293 75.4277C161.279 74.0409 161.563 72.8068 162.146 71.7255C162.729 70.6301 163.548 69.78 164.604 69.1753C165.673 68.5563 166.887 68.2402 168.245 68.227C169.901 68.2108 171.32 68.6357 172.504 69.5017C173.702 70.3675 174.507 71.5555 174.919 73.0658L171.183 73.1022C170.894 72.5107 170.493 72.0688 169.981 71.7765C169.468 71.4702 168.886 71.3202 168.235 71.3265C167.188 71.3367 166.343 71.7129 165.699 72.4551C165.056 73.1973 164.741 74.177 164.753 75.394C164.766 76.611 165.102 77.5842 165.761 78.3138C166.419 79.0291 167.272 79.3817 168.319 79.3715C168.97 79.3652 169.549 79.2109 170.055 78.9088C170.561 78.5925 170.953 78.1429 171.23 77.5599L174.966 77.5235C174.586 79.0415 173.806 80.245 172.626 81.134C171.461 82.0087 170.05 82.4541 168.394 82.4702C167.036 82.4834 165.815 82.1911 164.734 81.593C163.666 80.9949 162.829 80.1609 162.224 79.0912C161.618 78.0215 161.308 76.8004 161.293 75.4277ZM182.166 82.3997C181.076 82.4103 180.097 82.1863 179.229 81.7277C178.361 81.2692 177.668 80.6107 177.15 79.7525C176.645 78.8941 176.387 77.8847 176.375 76.7243C176.363 75.5922 176.607 74.592 177.108 73.7238C177.608 72.8415 178.287 72.1626 179.145 71.6872C180.018 71.2117 180.999 70.9686 182.089 70.958C183.178 70.9474 184.164 71.1713 185.047 71.6297C185.929 72.0882 186.622 72.7537 187.127 73.6262C187.645 74.4845 187.91 75.4796 187.922 76.6117C187.934 77.758 187.69 78.7723 187.19 79.6546C186.689 80.5228 185.996 81.1948 185.109 81.6704C184.237 82.146 183.256 82.3891 182.166 82.3997ZM182.135 79.4491C182.786 79.4428 183.335 79.1969 183.783 78.7113C184.245 78.2256 184.472 77.537 184.462 76.6455C184.453 75.7539 184.219 75.0769 183.762 74.6143C183.318 74.1374 182.771 73.9022 182.12 73.9085C181.454 73.915 180.905 74.161 180.472 74.6464C180.038 75.1176 179.825 75.799 179.835 76.6906C179.844 77.5821 180.064 78.2664 180.493 78.7434C180.937 79.2202 181.484 79.4555 182.135 79.4491ZM193.059 67.3907L193.213 82.1222L189.796 82.1555L189.641 67.4241L193.059 67.3907ZM198.933 67.3335L199.087 82.0649L195.669 82.0982L195.515 67.3668L198.933 67.3335ZM211.969 76.2076C211.972 76.5189 211.955 76.8516 211.916 77.2058L204.211 77.2809C204.26 77.9739 204.485 78.5025 204.885 78.8665C205.285 79.2165 205.768 79.3887 206.334 79.3831C207.183 79.3749 207.774 79.0082 208.106 78.2832L211.715 78.248C211.538 78.9857 211.213 79.654 210.738 80.2531C210.263 80.838 209.659 81.3038 208.927 81.6506C208.208 81.9831 207.396 82.1538 206.491 82.1626C205.401 82.1732 204.429 81.9492 203.575 81.4905C202.721 81.0318 202.049 80.3731 201.559 79.5146C201.069 78.6561 200.818 77.6466 200.805 76.4862C200.794 75.3399 201.017 74.3329 201.474 73.4651C201.947 72.5972 202.605 71.9256 203.449 71.4504C204.293 70.9751 205.267 70.7321 206.371 70.7213C207.446 70.7109 208.404 70.928 209.244 71.3727C210.083 71.8174 210.741 72.4549 211.217 73.2853C211.707 74.1155 211.958 75.0896 211.969 76.2076ZM208.457 75.3502C208.451 74.7558 208.248 74.2908 207.848 73.955C207.449 73.6192 206.951 73.4542 206.357 73.46C205.791 73.4655 205.312 73.633 204.919 73.9623C204.526 74.2916 204.29 74.7681 204.212 75.3915L208.457 75.3502ZM217.914 70.6088C218.693 70.6013 219.381 70.7573 219.979 71.077C220.576 71.3825 221.033 71.7956 221.35 72.3161L221.334 70.7453L224.751 70.712L224.867 81.7925C224.878 82.8114 224.683 83.7403 224.281 84.5792C223.893 85.418 223.285 86.082 222.455 86.5713C221.625 87.0747 220.595 87.3324 219.363 87.3444C217.722 87.3604 216.381 86.9843 215.339 86.216C214.312 85.4477 213.721 84.399 213.566 83.0702L216.919 83.0375C217.037 83.461 217.295 83.791 217.694 84.0277C218.093 84.2786 218.59 84.4011 219.184 84.3953C219.877 84.3886 220.427 84.178 220.833 83.7636C221.254 83.3633 221.459 82.7173 221.45 81.8258L221.433 80.255C221.113 80.7818 220.658 81.2108 220.067 81.542C219.49 81.8732 218.813 82.0425 218.034 82.0501C217.114 82.0591 216.277 81.8337 215.522 81.374C214.781 80.9001 214.187 80.2336 213.739 79.3747C213.305 78.5014 213.083 77.4917 213.07 76.3454C213.059 75.2133 213.26 74.2136 213.676 73.3462C214.106 72.4787 214.686 71.8079 215.417 71.3337C216.162 70.8594 216.995 70.6178 217.914 70.6088ZM221.392 76.2856C221.383 75.4365 221.142 74.7737 220.67 74.2971C220.198 73.8063 219.622 73.5643 218.943 73.5709C218.264 73.5775 217.686 73.8237 217.21 74.3096C216.748 74.7952 216.522 75.4626 216.53 76.3117C216.539 77.1608 216.78 77.8378 217.252 78.3427C217.739 78.8333 218.322 79.0753 219.001 79.0686C219.68 79.062 220.251 78.8088 220.712 78.3089C221.174 77.8091 221.401 77.1346 221.392 76.2856ZM237.754 75.9563C237.757 76.2676 237.739 76.6004 237.701 76.9546L229.995 77.0297C230.045 77.7226 230.27 78.2512 230.67 78.6153C231.07 78.9652 231.553 79.1374 232.119 79.1319C232.968 79.1236 233.559 78.7569 233.891 78.0319L237.499 77.9967C237.323 78.7344 236.998 79.4027 236.523 80.0018C236.048 80.5867 235.444 81.0525 234.711 81.3993C233.993 81.7318 233.181 81.9025 232.276 81.9113C231.186 81.922 230.214 81.6979 229.36 81.2392C228.506 80.7805 227.834 80.1218 227.344 79.2633C226.854 78.4048 226.602 77.3953 226.59 76.2349C226.578 75.0886 226.801 74.0816 227.259 73.2139C227.731 72.3459 228.389 71.6744 229.234 71.1991C230.078 70.7238 231.052 70.4808 232.156 70.47C233.231 70.4596 234.189 70.6767 235.028 71.1214C235.868 71.5661 236.526 72.2036 237.002 73.034C237.492 73.8642 237.742 74.8383 237.754 75.9563ZM234.242 75.0989C234.236 74.5045 234.033 74.0395 233.633 73.7037C233.233 73.3679 232.736 73.2029 232.142 73.2087C231.576 73.2142 231.097 73.3817 230.704 73.711C230.311 74.0404 230.075 74.5168 229.997 75.1403L234.242 75.0989ZM254.513 81.5248L253.205 80.285C251.927 81.274 250.39 81.7773 248.592 81.7948C247.517 81.8053 246.581 81.6445 245.785 81.3126C244.989 80.9666 244.368 80.4773 243.923 79.8447C243.492 79.1979 243.271 78.4429 243.262 77.5797C243.253 76.7023 243.478 75.9076 243.938 75.1954C244.397 74.4692 245.099 73.875 246.042 73.4129C245.698 72.9917 245.446 72.5908 245.286 72.2102C245.141 71.8154 245.065 71.3845 245.061 70.9175C245.054 70.2524 245.217 69.6493 245.551 69.1082C245.899 68.5529 246.397 68.1164 247.045 67.7987C247.707 67.4809 248.483 67.3176 249.375 67.3089C250.295 67.3 251.075 67.4622 251.715 67.7956C252.355 68.1149 252.834 68.5561 253.151 69.1191C253.483 69.6678 253.638 70.2748 253.616 70.9402L250.411 70.9715C250.421 70.6175 250.327 70.3425 250.126 70.1463C249.94 69.95 249.685 69.8534 249.359 69.8566C249.048 69.8596 248.787 69.9612 248.577 70.1614C248.366 70.3474 248.263 70.582 248.266 70.865C248.269 71.148 248.357 71.4444 248.53 71.7541C248.717 72.0494 249.004 72.3934 249.39 72.7859L252.842 76.0852C252.87 76.0142 252.904 75.936 252.946 75.8507C252.987 75.7512 253.036 75.6446 253.091 75.5308L253.821 74.2712L257.217 74.2381L256.28 75.9668C255.935 76.7627 255.532 77.5096 255.072 78.2076L258.482 81.4861L254.513 81.5248ZM248.734 79.0549C249.625 79.0462 250.408 78.7838 251.082 78.2677L247.951 75.3049C247.008 75.7953 246.541 76.458 246.55 77.2929C246.555 77.8023 246.751 78.225 247.136 78.5609C247.536 78.8967 248.069 79.0613 248.734 79.0549Z" fill="#25282A"/>
<path d="M70.9374 97.7592C70.9459 98.5658 70.7626 99.3035 70.3874 99.9723C70.0265 100.641 69.4662 101.191 68.7064 101.623C67.9465 102.041 66.9935 102.256 65.8472 102.267L63.7457 102.287L63.7982 107.297L60.3806 107.33L60.2344 93.3629L65.7534 93.3091C66.8714 93.2982 67.8144 93.4801 68.5825 93.8547C69.3649 94.2292 69.9507 94.7543 70.3399 95.4298C70.7291 96.1053 70.9283 96.8818 70.9374 97.7592ZM65.564 99.5523C66.215 99.546 66.6946 99.3927 67.0028 99.0925C67.325 98.778 67.4832 98.3448 67.4774 97.7929C67.4715 97.2268 67.3043 96.7968 66.9757 96.5028C66.6611 96.1945 66.1783 96.0435 65.5274 96.0499L63.6806 96.0679L63.7173 99.5703L65.564 99.5523ZM76.1258 97.9209C76.5156 97.3085 77.0059 96.8225 77.5965 96.463C78.1872 96.1034 78.8504 95.92 79.5863 95.9129L79.6241 99.5214L78.6902 99.5305C77.841 99.5388 77.2061 99.729 76.7854 100.101C76.3646 100.459 76.159 101.098 76.1687 102.018L76.2227 107.176L72.8052 107.209L72.6888 96.1075L76.1064 96.0741L76.1258 97.9209ZM86.3808 107.247C85.2912 107.257 84.3123 107.033 83.4442 106.575C82.5761 106.116 81.8828 105.458 81.3643 104.599C80.86 103.741 80.6017 102.732 80.5896 101.571C80.5777 100.439 80.8219 99.439 81.3223 98.5708C81.8226 97.6885 82.5019 97.0096 83.3602 96.5342C84.2327 96.0586 85.2138 95.8156 86.3035 95.8049C87.3931 95.7943 88.3791 96.0182 89.2614 96.4767C90.1437 96.9351 90.8371 97.6006 91.3416 98.4732C91.86 99.3314 92.1252 100.327 92.137 101.459C92.149 102.605 91.9049 103.619 91.4047 104.502C90.9043 105.37 90.2107 106.042 89.3241 106.517C88.4516 106.993 87.4705 107.236 86.3808 107.247ZM86.35 104.296C87.0009 104.29 87.5503 104.044 87.9981 103.558C88.4601 103.073 88.6864 102.384 88.677 101.492C88.6677 100.601 88.4342 99.9238 87.9764 99.4613C87.5327 98.9844 86.9853 98.7491 86.3344 98.7555C85.6693 98.762 85.1199 99.0079 84.6862 99.4933C84.2524 99.9646 84.0402 100.646 84.0496 101.538C84.0589 102.429 84.2784 103.113 84.708 103.59C85.1517 104.067 85.699 104.302 86.35 104.296ZM99.5064 98.6696L97.6809 98.6874L97.7675 106.966L94.35 106.999L94.2633 98.7207L93.0321 98.7327L93.0026 95.9095L94.2337 95.8975L94.2304 95.5791C94.216 94.2064 94.5943 93.1625 95.3652 92.4474C96.1502 91.7321 97.2999 91.3671 98.8141 91.3523C99.0688 91.3498 99.2528 91.3551 99.3662 91.3681L99.3964 94.255C98.7451 94.2189 98.2861 94.3153 98.0196 94.5444C97.7672 94.7733 97.6441 95.1778 97.6502 95.758L97.6513 95.8642L99.4768 95.8464L99.5064 98.6696ZM111.604 101.099C111.608 101.41 111.59 101.743 111.551 102.097L103.846 102.173C103.896 102.866 104.12 103.394 104.521 103.758C104.92 104.108 105.403 104.28 105.969 104.275C106.819 104.266 107.409 103.9 107.741 103.175L111.35 103.14C111.174 103.877 110.848 104.546 110.373 105.145C109.898 105.73 109.294 106.195 108.562 106.542C107.844 106.875 107.032 107.045 106.126 107.054C105.036 107.065 104.065 106.841 103.211 106.382C102.357 105.923 101.685 105.265 101.194 104.406C100.704 103.548 100.453 102.538 100.441 101.378C100.429 100.232 100.652 99.2245 101.11 98.3567C101.582 97.4888 102.24 96.8172 103.084 96.342C103.928 95.8667 104.902 95.6237 106.006 95.6129C107.082 95.6024 108.039 95.8196 108.879 96.2643C109.719 96.709 110.376 97.3465 110.852 98.1769C111.342 99.0071 111.593 99.9812 111.604 101.099ZM108.093 100.242C108.086 99.6474 107.883 99.1823 107.484 98.8466C107.084 98.5108 106.587 98.3458 105.992 98.3516C105.426 98.3571 104.947 98.5246 104.554 98.8539C104.161 99.1832 103.926 99.6596 103.847 100.283L108.093 100.242ZM117.967 106.939C117.004 106.948 116.139 106.794 115.372 106.476C114.618 106.144 114.019 105.689 113.574 105.113C113.13 104.538 112.875 103.889 112.811 103.168L116.186 103.135C116.219 103.531 116.392 103.848 116.705 104.085C117.033 104.308 117.431 104.418 117.898 104.413C118.322 104.409 118.647 104.328 118.872 104.17C119.111 103.998 119.229 103.778 119.226 103.509C119.222 103.197 119.05 102.965 118.709 102.813C118.382 102.661 117.849 102.496 117.112 102.319C116.303 102.143 115.629 101.959 115.089 101.766C114.563 101.559 114.107 101.238 113.72 100.803C113.333 100.353 113.136 99.7468 113.128 98.9826C113.121 98.3458 113.292 97.7639 113.64 97.2368C113.989 96.7098 114.501 96.2944 115.177 95.9906C115.853 95.6726 116.665 95.509 117.613 95.4998C119 95.4863 120.101 95.8223 120.914 96.5079C121.728 97.1934 122.198 98.1017 122.323 99.2327L119.181 99.2633C119.121 98.8818 118.948 98.5792 118.662 98.3555C118.377 98.1318 118.001 98.0223 117.534 98.0268C117.137 98.0307 116.834 98.1115 116.623 98.2692C116.413 98.427 116.309 98.6403 116.312 98.9091C116.315 99.2205 116.487 99.4594 116.829 99.6259C117.17 99.7782 117.695 99.9288 118.404 100.078C119.241 100.282 119.916 100.487 120.428 100.695C120.953 100.888 121.41 101.216 121.797 101.679C122.198 102.128 122.409 102.735 122.431 103.499C122.438 104.15 122.26 104.732 121.898 105.245C121.535 105.758 121.016 106.166 120.339 106.47C119.663 106.774 118.872 106.93 117.967 106.939ZM129.077 106.831C128.115 106.84 127.25 106.686 126.482 106.368C125.729 106.035 125.129 105.581 124.685 105.005C124.24 104.429 123.985 103.781 123.921 103.06L127.296 103.027C127.329 103.423 127.502 103.739 127.816 103.977C128.144 104.2 128.541 104.31 129.008 104.305C129.433 104.301 129.757 104.22 129.982 104.062C130.221 103.89 130.339 103.669 130.336 103.4C130.333 103.089 130.161 102.857 129.819 102.705C129.492 102.552 128.96 102.388 128.222 102.211C127.413 102.035 126.739 101.85 126.199 101.657C125.674 101.45 125.217 101.129 124.831 100.694C124.444 100.245 124.246 99.6385 124.238 98.8743C124.232 98.2375 124.402 97.6556 124.751 97.1286C125.099 96.6015 125.611 96.1861 126.287 95.8823C126.963 95.5644 127.776 95.4008 128.724 95.3915C130.111 95.378 131.211 95.714 132.025 96.3996C132.839 97.0851 133.308 97.9934 133.433 99.1244L130.292 99.155C130.231 98.7735 130.058 98.4709 129.773 98.2472C129.487 98.0236 129.111 97.914 128.644 97.9186C128.248 97.9224 127.944 98.0032 127.734 98.161C127.523 98.3187 127.419 98.532 127.422 98.8009C127.425 99.1122 127.598 99.3511 127.939 99.5176C128.28 99.67 128.805 99.8205 129.515 99.9693C130.352 100.173 131.026 100.379 131.538 100.586C132.064 100.779 132.52 101.108 132.907 101.571C133.308 102.02 133.519 102.626 133.542 103.39C133.548 104.041 133.371 104.623 133.008 105.136C132.645 105.649 132.126 106.058 131.45 106.362C130.774 106.665 129.983 106.822 129.077 106.831ZM137.255 94.3106C136.661 94.3164 136.171 94.1443 135.785 93.7942C135.399 93.4442 135.204 93.0144 135.198 92.505C135.193 91.9672 135.379 91.5267 135.758 91.1833C136.136 90.8258 136.622 90.6442 137.217 90.6384C137.797 90.6327 138.28 90.8049 138.666 91.155C139.051 91.4909 139.247 91.9277 139.253 92.4655C139.258 92.9749 139.071 93.4084 138.693 93.7659C138.315 94.1234 137.835 94.305 137.255 94.3106ZM138.965 95.4616L139.082 106.563L135.664 106.597L135.548 95.4949L138.965 95.4616ZM146.592 106.66C145.502 106.67 144.523 106.446 143.655 105.988C142.787 105.529 142.094 104.871 141.575 104.013C141.071 103.154 140.813 102.145 140.801 100.984C140.789 99.8523 141.033 98.8522 141.533 97.984C142.034 97.1017 142.713 96.4228 143.571 95.9474C144.444 95.4718 145.425 95.2288 146.514 95.2181C147.604 95.2075 148.59 95.4314 149.472 95.8899C150.355 96.3483 151.048 97.0138 151.553 97.8864C152.071 98.7446 152.336 99.7398 152.348 100.872C152.36 102.018 152.116 103.032 151.616 103.915C151.115 104.783 150.422 105.455 149.535 105.931C148.663 106.406 147.682 106.649 146.592 106.66ZM146.561 103.709C147.212 103.703 147.761 103.457 148.209 102.971C148.671 102.486 148.897 101.797 148.888 100.906C148.879 100.014 148.645 99.337 148.187 98.8745C147.744 98.3976 147.196 98.1623 146.545 98.1687C145.88 98.1752 145.331 98.4211 144.897 98.9065C144.463 99.3778 144.251 100.059 144.261 100.951C144.27 101.842 144.489 102.527 144.919 103.004C145.363 103.48 145.91 103.716 146.561 103.709ZM160.875 95.1206C162.177 95.108 163.222 95.5224 164.009 96.3639C164.796 97.1912 165.197 98.3407 165.213 99.8125L165.281 106.308L161.884 106.341L161.821 100.313C161.813 99.5625 161.616 98.9842 161.23 98.5775C160.843 98.1709 160.325 97.9707 159.674 97.9771C159.023 97.9834 158.508 98.1936 158.131 98.6077C157.753 99.0218 157.568 99.6039 157.576 100.354L157.639 106.382L154.221 106.416L154.105 95.314L157.523 95.2807L157.538 96.7453C157.872 96.2467 158.328 95.8531 158.905 95.5644C159.483 95.2757 160.139 95.1278 160.875 95.1206ZM166.904 100.709C166.892 99.5767 167.094 98.577 167.509 97.7096C167.939 96.8421 168.519 96.1713 169.25 95.6971C169.995 95.2228 170.828 94.9812 171.748 94.9722C172.526 94.9647 173.214 95.1207 173.812 95.4404C174.409 95.7459 174.866 96.159 175.183 96.6795L175.167 95.1087L178.584 95.0754L178.701 106.177L175.283 106.21L175.267 104.64C174.946 105.152 174.491 105.574 173.9 105.905C173.309 106.237 172.624 106.406 171.846 106.414C170.94 106.423 170.11 106.197 169.355 105.737C168.614 105.263 168.02 104.597 167.572 103.738C167.138 102.865 166.916 101.855 166.904 100.709ZM175.225 100.649C175.216 99.7999 174.975 99.137 174.503 98.6605C174.031 98.1697 173.456 97.9277 172.776 97.9343C172.097 97.9409 171.519 98.1871 171.043 98.673C170.581 99.1586 170.355 99.826 170.364 100.675C170.373 101.524 170.613 102.201 171.085 102.706C171.572 103.197 172.155 103.439 172.834 103.432C173.513 103.425 174.084 103.172 174.545 102.672C175.007 102.172 175.234 101.498 175.225 100.649ZM184.424 91.3884L184.579 106.12L181.161 106.153L181.007 91.4217L184.424 91.3884ZM194.646 103.389L199.103 103.346L199.131 105.978L191.256 106.055L191.109 92.0875L194.527 92.0541L194.646 103.389ZM202.344 93.6763C201.75 93.6821 201.26 93.5099 200.874 93.1599C200.488 92.8098 200.293 92.3801 200.287 91.8706C200.282 91.3329 200.468 90.8923 200.847 90.549C201.225 90.1915 201.711 90.0098 202.306 90.004C202.886 89.9984 203.369 90.1706 203.755 90.5206C204.14 90.8565 204.336 91.2934 204.342 91.8311C204.347 92.3406 204.16 92.774 203.782 93.1315C203.404 93.4891 202.924 93.6706 202.344 93.6763ZM204.055 94.8272L204.171 105.929L200.753 105.962L200.637 94.8605L204.055 94.8272ZM212.123 97.572L210.298 97.5898L210.384 105.868L206.967 105.902L206.88 97.6231L205.649 97.6351L205.619 94.812L206.85 94.8L206.847 94.4816C206.833 93.1089 207.211 92.065 207.982 91.3498C208.767 90.6345 209.917 90.2695 211.431 90.2548C211.686 90.2523 211.87 90.2576 211.983 90.2706L212.013 93.1575C211.362 93.1214 210.903 93.2178 210.636 93.4469C210.384 93.6758 210.261 94.0803 210.267 94.6605L210.268 94.7667L212.094 94.7489L212.123 97.572ZM224.221 100.002C224.224 100.313 224.207 100.646 224.168 101L216.463 101.075C216.512 101.768 216.737 102.297 217.137 102.661C217.537 103.011 218.02 103.183 218.586 103.177C219.435 103.169 220.026 102.802 220.358 102.077L223.967 102.042C223.79 102.78 223.465 103.448 222.99 104.047C222.515 104.632 221.911 105.098 221.179 105.445C220.46 105.777 219.648 105.948 218.743 105.957C217.653 105.967 216.681 105.743 215.827 105.285C214.973 104.826 214.301 104.167 213.811 103.309C213.321 102.45 213.07 101.441 213.058 100.28C213.046 99.134 213.268 98.127 213.726 97.2592C214.199 96.3913 214.857 95.7197 215.701 95.2444C216.545 94.7692 217.519 94.5262 218.623 94.5154C219.698 94.5049 220.656 94.722 221.496 95.1667C222.335 95.6114 222.993 96.249 223.469 97.0793C223.959 97.9096 224.209 98.8837 224.221 100.002ZM220.709 99.1442C220.703 98.5499 220.5 98.0848 220.1 97.749C219.701 97.4133 219.203 97.2483 218.609 97.2541C218.043 97.2596 217.564 97.427 217.171 97.7564C216.778 98.0857 216.542 98.5621 216.464 99.1856L220.709 99.1442ZM240.328 100.142L236.868 100.176L236.906 103.72L233.679 103.752L233.642 100.207L230.161 100.241L230.129 97.1843L233.61 97.1504L233.573 93.6055L236.799 93.574L236.836 97.1189L240.296 97.0852L240.328 100.142Z" fill="#25282A"/>
<path d="M62.6146 117.337L62.76 131.22L60.9344 131.237L60.7891 117.355L62.6146 117.337ZM71.0443 120.036C72.3604 120.023 73.433 120.416 74.2622 121.215C75.1054 121.999 75.535 123.148 75.5508 124.662L75.6182 131.094L73.8139 131.112L73.7492 124.935C73.7378 123.845 73.4532 123.02 72.8953 122.459C72.3515 121.884 71.6126 121.601 70.6786 121.611C69.7163 121.62 68.9552 121.925 68.3954 122.524C67.8497 123.124 67.5829 123.997 67.595 125.143L67.6581 131.172L65.8325 131.19L65.7183 120.279L67.5438 120.261L67.5601 121.811C67.9081 121.255 68.3847 120.826 68.9901 120.523C69.6095 120.206 70.2942 120.043 71.0443 120.036ZM82.6336 129.349L85.912 120.082L87.8437 120.063L83.6701 131.016L81.5686 131.036L77.1665 120.167L79.1194 120.148L82.6336 129.349ZM90.5467 118.254C90.207 118.257 89.9158 118.147 89.6729 117.923C89.4297 117.684 89.3063 117.388 89.3026 117.035C89.2991 116.695 89.4163 116.404 89.6544 116.161C89.8924 115.918 90.1813 115.795 90.5209 115.791C90.8606 115.788 91.1448 115.906 91.3738 116.144C91.6169 116.382 91.7402 116.671 91.7438 117.011C91.7475 117.365 91.6303 117.663 91.3922 117.906C91.1682 118.134 90.8863 118.25 90.5467 118.254ZM91.4569 120.028L91.5712 130.939L89.7457 130.957L89.6314 120.046L91.4569 120.028ZM96.7527 121.463L96.8201 127.894C96.8257 128.432 96.9429 128.813 97.1717 129.037C97.4003 129.247 97.7977 129.35 98.3637 129.344L99.6798 129.331L99.6958 130.86L98.0826 130.875C97.0637 130.885 96.2971 130.659 95.7827 130.197C95.2825 129.735 95.0269 128.973 95.0158 127.912L94.9484 121.48L93.5262 121.494L93.5106 120.008L94.9328 119.994L94.9042 117.256L96.7085 117.238L96.7371 119.977L99.5815 119.949L99.5971 121.435L96.7527 121.463ZM111.785 124.861C111.789 125.215 111.772 125.583 111.733 125.966L103.03 126.051C103.098 127.125 103.468 127.964 104.139 128.566C104.825 129.154 105.648 129.443 106.611 129.434C107.389 129.426 108.038 129.243 108.558 128.884C109.078 128.511 109.441 128.012 109.646 127.387L111.599 127.368C111.313 128.432 110.735 129.294 109.864 129.954C108.994 130.613 107.915 130.949 106.627 130.962C105.58 130.972 104.643 130.755 103.818 130.31C103.006 129.851 102.363 129.199 101.887 128.354C101.411 127.496 101.167 126.5 101.155 125.368C101.143 124.236 101.359 123.243 101.803 122.39C102.247 121.536 102.87 120.879 103.672 120.419C104.488 119.958 105.434 119.722 106.509 119.712C107.542 119.702 108.457 119.919 109.254 120.364C110.051 120.795 110.666 121.405 111.099 122.193C111.546 122.981 111.775 123.871 111.785 124.861ZM109.913 124.497C109.906 123.818 109.744 123.232 109.428 122.74C109.125 122.234 108.711 121.856 108.185 121.606C107.658 121.356 107.077 121.235 106.44 121.241C105.52 121.25 104.738 121.547 104.093 122.134C103.462 122.72 103.11 123.531 103.036 124.564L109.913 124.497ZM113.499 125.227C113.488 124.109 113.704 123.13 114.148 122.291C114.592 121.437 115.208 120.78 115.996 120.32C116.783 119.845 117.665 119.603 118.642 119.593C119.491 119.585 120.278 119.776 121.004 120.165C121.744 120.54 122.315 121.044 122.718 121.677L122.658 115.903L124.483 115.885L124.637 130.616L122.812 130.634L122.79 128.575C122.429 129.23 121.897 129.773 121.194 130.204C120.505 130.621 119.686 130.835 118.738 130.844C117.776 130.853 116.896 130.628 116.099 130.169C115.301 129.696 114.671 129.029 114.21 128.171C113.748 127.312 113.511 126.331 113.499 125.227ZM122.755 125.158C122.746 124.337 122.569 123.624 122.223 123.019C121.891 122.413 121.44 121.951 120.871 121.631C120.301 121.311 119.677 121.154 118.998 121.161C118.318 121.167 117.697 121.336 117.135 121.667C116.586 121.984 116.152 122.448 115.833 123.06C115.514 123.672 115.359 124.388 115.367 125.209C115.376 126.043 115.547 126.771 115.879 127.39C116.21 127.995 116.654 128.458 117.209 128.778C117.779 129.098 118.403 129.255 119.082 129.248C119.762 129.242 120.383 129.073 120.945 128.742C121.508 128.411 121.949 127.94 122.268 127.328C122.601 126.702 122.763 125.979 122.755 125.158ZM141.195 127.377L135.145 127.436L134.053 130.525L132.142 130.543L137.007 116.697L139.109 116.677L144.241 130.425L142.331 130.444L141.195 127.377ZM140.649 125.896L138.071 118.916L135.639 125.945L140.649 125.896ZM159.434 119.175C160.283 119.166 161.042 119.336 161.711 119.683C162.38 120.016 162.909 120.535 163.298 121.239C163.702 121.942 163.909 122.797 163.92 123.801L163.987 130.233L162.183 130.251L162.118 124.074C162.107 122.984 161.829 122.159 161.285 121.598C160.742 121.023 160.01 120.74 159.09 120.749C158.156 120.758 157.409 121.07 156.849 121.684C156.304 122.283 156.037 123.156 156.049 124.303L156.112 130.31L154.329 130.327L154.264 124.15C154.253 123.06 153.975 122.235 153.432 121.674C152.888 121.099 152.156 120.816 151.236 120.825C150.288 120.835 149.541 121.146 148.996 121.76C148.45 122.36 148.183 123.233 148.195 124.379L148.258 130.386L146.432 130.404L146.318 119.493L148.144 119.476L148.16 121.046C148.508 120.477 148.977 120.041 149.569 119.738C150.174 119.421 150.845 119.258 151.58 119.251C152.5 119.242 153.309 119.439 154.007 119.843C154.719 120.247 155.249 120.843 155.596 121.632C155.9 120.865 156.396 120.266 157.085 119.834C157.788 119.403 158.571 119.183 159.434 119.175ZM166.204 124.713C166.192 123.595 166.408 122.616 166.852 121.777C167.296 120.924 167.912 120.267 168.7 119.806C169.488 119.331 170.362 119.089 171.325 119.08C172.287 119.071 173.117 119.268 173.815 119.671C174.527 120.075 175.063 120.586 175.423 121.205L175.402 119.21L177.228 119.192L177.342 130.103L175.517 130.121L175.495 128.083C175.134 128.723 174.602 129.259 173.899 129.691C173.195 130.108 172.37 130.321 171.421 130.33C170.459 130.34 169.579 130.115 168.782 129.656C167.999 129.182 167.376 128.516 166.914 127.657C166.452 126.798 166.215 125.817 166.204 124.713ZM175.459 124.644C175.451 123.823 175.273 123.11 174.927 122.505C174.595 121.9 174.145 121.437 173.575 121.117C173.006 120.797 172.381 120.641 171.702 120.647C171.023 120.654 170.402 120.823 169.839 121.154C169.291 121.47 168.857 121.935 168.538 122.546C168.219 123.158 168.063 123.874 168.072 124.695C168.081 125.53 168.251 126.257 168.583 126.876C168.915 127.482 169.358 127.945 169.914 128.265C170.483 128.585 171.108 128.741 171.787 128.735C172.466 128.728 173.087 128.559 173.65 128.228C174.212 127.897 174.653 127.426 174.972 126.814C175.305 126.188 175.468 125.465 175.459 124.644ZM181.744 128.574L187.093 128.522L187.108 130.008L179.679 130.08L179.663 128.594L184.887 120.582L179.622 120.634L179.607 119.169L186.952 119.097L186.967 120.562L181.744 128.574ZM190.261 117.282C189.922 117.285 189.63 117.175 189.387 116.951C189.144 116.713 189.021 116.417 189.017 116.063C189.014 115.723 189.131 115.432 189.369 115.189C189.607 114.946 189.896 114.823 190.235 114.82C190.575 114.816 190.859 114.934 191.088 115.172C191.331 115.41 191.455 115.699 191.458 116.039C191.462 116.393 191.345 116.691 191.107 116.934C190.883 117.163 190.601 117.279 190.261 117.282ZM191.171 119.056L191.286 129.967L189.46 129.985L189.346 119.074L191.171 119.056ZM199.57 118.783C200.886 118.771 201.959 119.164 202.788 119.962C203.631 120.746 204.061 121.896 204.077 123.41L204.144 129.842L202.34 129.859L202.275 123.682C202.263 122.593 201.979 121.767 201.421 121.207C200.877 120.632 200.138 120.349 199.204 120.358C198.242 120.367 197.481 120.672 196.921 121.272C196.375 121.872 196.109 122.745 196.121 123.891L196.184 129.919L194.358 129.937L194.244 119.026L196.069 119.009L196.086 120.558C196.434 120.003 196.91 119.574 197.516 119.27C198.135 118.953 198.82 118.791 199.57 118.783ZM211.485 118.689C212.433 118.679 213.263 118.876 213.975 119.28C214.687 119.683 215.223 120.195 215.584 120.814L215.563 118.819L217.388 118.801L217.505 129.945C217.516 130.95 217.312 131.836 216.896 132.605C216.48 133.387 215.877 134.001 215.09 134.448C214.302 134.894 213.384 135.123 212.337 135.133C210.908 135.147 209.708 134.819 208.739 134.149C207.784 133.493 207.215 132.579 207.033 131.406L208.816 131.388C209.021 132.051 209.437 132.578 210.064 132.968C210.691 133.373 211.443 133.571 212.32 133.562C213.311 133.552 214.122 133.233 214.752 132.604C215.382 131.975 215.691 131.095 215.679 129.963L215.655 127.67C215.294 128.311 214.762 128.847 214.059 129.278C213.37 129.709 212.551 129.93 211.603 129.939C210.641 129.948 209.761 129.723 208.964 129.264C208.166 128.791 207.536 128.124 207.075 127.266C206.613 126.407 206.376 125.425 206.364 124.322C206.353 123.204 206.569 122.225 207.013 121.386C207.457 120.532 208.073 119.875 208.861 119.415C209.648 118.94 210.523 118.698 211.485 118.689ZM215.62 124.253C215.611 123.432 215.434 122.719 215.088 122.114C214.756 121.508 214.305 121.046 213.736 120.726C213.166 120.406 212.542 120.249 211.863 120.256C211.183 120.262 210.562 120.431 210 120.762C209.451 121.079 209.017 121.543 208.698 122.155C208.379 122.766 208.224 123.483 208.232 124.303C208.241 125.138 208.411 125.866 208.744 126.485C209.075 127.09 209.519 127.553 210.074 127.873C210.644 128.193 211.268 128.35 211.947 128.343C212.627 128.337 213.248 128.168 213.81 127.837C214.373 127.506 214.814 127.034 215.133 126.423C215.466 125.797 215.628 125.073 215.62 124.253ZM235.051 119.733C235.063 120.879 234.677 121.838 233.892 122.61C233.122 123.382 231.923 123.775 230.296 123.791L227.642 123.817L227.703 129.612L225.877 129.63L225.732 115.747L230.211 115.704C231.782 115.689 232.974 116.059 233.789 116.815C234.618 117.557 235.038 118.53 235.051 119.733ZM230.28 122.305C231.299 122.295 232.04 122.069 232.502 121.626C232.979 121.182 233.213 120.557 233.204 119.751C233.186 118.038 232.194 117.192 230.227 117.211L227.573 117.237L227.627 122.331L230.28 122.305ZM247.3 123.541C247.304 123.894 247.286 124.263 247.248 124.645L238.545 124.73C238.612 125.805 238.982 126.643 239.654 127.245C240.339 127.833 241.163 128.122 242.125 128.113C242.904 128.105 243.553 127.922 244.073 127.563C244.592 127.19 244.955 126.691 245.161 126.067L247.114 126.047C246.828 127.112 246.249 127.974 245.379 128.633C244.508 129.293 243.429 129.629 242.141 129.641C241.094 129.651 240.158 129.434 239.332 128.989C238.521 128.53 237.877 127.878 237.401 127.034C236.925 126.175 236.681 125.18 236.669 124.048C236.657 122.915 236.873 121.923 237.317 121.069C237.761 120.216 238.384 119.559 239.186 119.098C240.002 118.637 240.948 118.401 242.023 118.391C243.057 118.381 243.972 118.598 244.769 119.044C245.566 119.474 246.181 120.084 246.614 120.872C247.061 121.661 247.289 122.55 247.3 123.541ZM245.428 123.177C245.421 122.497 245.259 121.912 244.942 121.419C244.64 120.913 244.225 120.535 243.699 120.285C243.173 120.036 242.591 119.914 241.955 119.92C241.035 119.929 240.252 120.227 239.607 120.813C238.977 121.4 238.624 122.21 238.55 123.244L245.428 123.177ZM254.507 129.521C253.488 129.531 252.559 129.313 251.719 128.868C250.894 128.41 250.236 127.758 249.746 126.913C249.27 126.055 249.026 125.059 249.014 123.927C249.002 122.809 249.233 121.823 249.705 120.97C250.191 120.102 250.849 119.437 251.68 118.976C252.51 118.515 253.441 118.28 254.474 118.27C255.507 118.26 256.444 118.477 257.284 118.922C258.137 119.366 258.809 120.011 259.299 120.855C259.789 121.699 260.04 122.688 260.052 123.82C260.064 124.952 259.827 125.952 259.341 126.82C258.854 127.674 258.189 128.338 257.345 128.814C256.5 129.275 255.555 129.51 254.507 129.521ZM254.491 127.929C255.142 127.922 255.749 127.768 256.312 127.465C256.888 127.148 257.351 126.684 257.698 126.072C258.046 125.46 258.215 124.715 258.205 123.838C258.196 122.96 258.012 122.219 257.651 121.614C257.305 121.009 256.848 120.56 256.279 120.269C255.724 119.977 255.121 119.834 254.47 119.841C253.805 119.847 253.198 120.002 252.649 120.304C252.1 120.607 251.666 121.064 251.347 121.675C251.028 122.287 250.873 123.032 250.882 123.909C250.891 124.801 251.062 125.549 251.394 126.154C251.726 126.76 252.162 127.208 252.703 127.5C253.244 127.792 253.84 127.935 254.491 127.929ZM264.226 120.361C264.573 119.735 265.099 119.213 265.802 118.796C266.505 118.365 267.331 118.144 268.279 118.135C269.241 118.126 270.121 118.351 270.918 118.81C271.716 119.255 272.345 119.9 272.807 120.745C273.268 121.575 273.505 122.549 273.517 123.667C273.528 124.771 273.312 125.757 272.868 126.624C272.424 127.492 271.809 128.17 271.021 128.659C270.234 129.134 269.359 129.376 268.397 129.385C267.463 129.394 266.64 129.197 265.928 128.794C265.216 128.376 264.673 127.858 264.298 127.239L264.374 134.435L262.548 134.452L262.379 118.362L264.205 118.345L264.226 120.361ZM271.67 123.685C271.661 122.864 271.484 122.151 271.138 121.546C270.806 120.941 270.356 120.485 269.786 120.18C269.217 119.86 268.592 119.703 267.913 119.71C267.248 119.716 266.634 119.885 266.072 120.216C265.509 120.547 265.061 121.025 264.728 121.651C264.409 122.263 264.254 122.972 264.262 123.779C264.271 124.599 264.441 125.32 264.773 125.939C265.119 126.544 265.577 127.007 266.146 127.327C266.715 127.647 267.333 127.803 267.998 127.797C268.677 127.79 269.298 127.622 269.861 127.291C270.423 126.96 270.864 126.488 271.183 125.877C271.517 125.251 271.679 124.52 271.67 123.685ZM277.625 114.393L277.779 129.124L275.954 129.142L275.799 114.41L277.625 114.393ZM290.746 123.117C290.749 123.471 290.732 123.839 290.693 124.222L281.99 124.306C282.058 125.381 282.428 126.22 283.099 126.822C283.785 127.41 284.609 127.699 285.571 127.689C286.349 127.682 286.999 127.499 287.518 127.14C288.038 126.767 288.401 126.268 288.607 125.643L290.56 125.624C290.274 126.688 289.695 127.55 288.825 128.21C287.954 128.869 286.875 129.205 285.587 129.218C284.54 129.228 283.604 129.011 282.778 128.566C281.967 128.107 281.323 127.455 280.847 126.61C280.371 125.752 280.127 124.756 280.115 123.624C280.103 122.492 280.319 121.499 280.763 120.646C281.207 119.792 281.83 119.135 282.632 118.675C283.448 118.214 284.394 117.978 285.469 117.968C286.502 117.957 287.418 118.175 288.215 118.62C289.012 119.051 289.627 119.661 290.06 120.449C290.507 121.237 290.735 122.127 290.746 123.117ZM288.874 122.753C288.866 122.074 288.705 121.488 288.388 120.996C288.086 120.49 287.671 120.111 287.145 119.862C286.619 119.612 286.037 119.49 285.4 119.497C284.481 119.506 283.698 119.803 283.053 120.39C282.423 120.976 282.07 121.786 281.996 122.82L288.874 122.753Z" fill="#25282A"/>
<path d="M63.2929 145.698L63.3602 152.13C63.3658 152.668 63.4831 153.049 63.7119 153.273C63.9405 153.483 64.3378 153.585 64.9039 153.58L66.2199 153.567L66.2359 155.095L64.6227 155.111C63.6038 155.121 62.8372 154.895 62.3228 154.433C61.8227 153.971 61.567 153.209 61.5559 152.148L61.4886 145.716L60.0663 145.73L60.0508 144.244L61.473 144.23L61.4443 141.492L63.2486 141.474L63.2773 144.212L66.1217 144.185L66.1373 145.67L63.2929 145.698ZM73.1882 155.197C72.1693 155.207 71.24 154.99 70.4004 154.545C69.5747 154.086 68.9168 153.434 68.4267 152.59C67.9507 151.731 67.7068 150.736 67.6949 149.604C67.6832 148.486 67.9135 147.5 68.3858 146.646C68.872 145.778 69.5302 145.114 70.3604 144.653C71.1906 144.192 72.1222 143.956 73.1553 143.946C74.1883 143.936 75.1247 144.153 75.9643 144.598C76.8182 145.043 77.4901 145.687 77.9801 146.532C78.4702 147.376 78.7211 148.364 78.7329 149.496C78.7448 150.628 78.5076 151.628 78.0214 152.497C77.535 153.35 76.8697 154.015 76.0255 154.49C75.1811 154.951 74.2354 155.187 73.1882 155.197ZM73.1715 153.605C73.8225 153.599 74.4294 153.444 74.9923 153.142C75.5693 152.825 76.0315 152.36 76.3789 151.748C76.7263 151.136 76.8954 150.392 76.8863 149.514C76.877 148.637 76.6923 147.896 76.3322 147.291C75.9862 146.685 75.5286 146.237 74.9594 145.945C74.4044 145.654 73.8015 145.511 73.1505 145.517C72.4854 145.524 71.8784 145.678 71.3297 145.981C70.7808 146.283 70.3469 146.74 70.0278 147.352C69.7086 147.964 69.5537 148.708 69.5629 149.586C69.5723 150.477 69.7429 151.226 70.0747 151.831C70.4066 152.436 70.8429 152.885 71.3837 153.177C71.9246 153.469 72.5205 153.612 73.1715 153.605ZM85.7542 149.428C85.7424 148.296 85.9585 147.31 86.4026 146.471C86.8465 145.617 87.4695 144.96 88.2714 144.499C89.0731 144.025 89.9905 143.782 91.0236 143.772C92.3679 143.759 93.4751 144.074 94.3452 144.716C95.2151 145.345 95.7976 146.238 96.0927 147.395L94.1399 147.414C93.949 146.751 93.5826 146.231 93.0409 145.854C92.4991 145.477 91.832 145.293 91.0396 145.3C90.0065 145.31 89.1752 145.672 88.5458 146.386C87.9165 147.1 87.6086 148.108 87.6222 149.41C87.636 150.726 87.9651 151.742 88.6094 152.457C89.2536 153.158 90.0923 153.504 91.1254 153.494C91.9178 153.486 92.5739 153.296 93.0937 152.923C93.6276 152.55 93.99 152.015 94.1808 151.32L96.1337 151.301C95.8482 152.422 95.2703 153.319 94.3999 153.993C93.5436 154.666 92.4574 155.009 91.1414 155.022C90.1083 155.032 89.1861 154.815 88.3747 154.37C87.5632 153.911 86.9266 153.259 86.4648 152.414C86.0031 151.57 85.7662 150.574 85.7542 149.428ZM103.333 154.903C102.315 154.913 101.385 154.696 100.546 154.251C99.72 153.792 99.0621 153.141 98.572 152.296C98.096 151.438 97.8521 150.442 97.8402 149.31C97.8285 148.192 98.0588 147.206 98.5311 146.353C99.0173 145.484 99.6755 144.82 100.506 144.359C101.336 143.898 102.268 143.662 103.301 143.652C104.334 143.642 105.27 143.86 106.11 144.304C106.963 144.749 107.635 145.393 108.125 146.238C108.615 147.082 108.866 148.07 108.878 149.203C108.89 150.335 108.653 151.335 108.167 152.203C107.68 153.057 107.015 153.721 106.171 154.197C105.326 154.658 104.381 154.893 103.333 154.903ZM103.317 153.311C103.968 153.305 104.575 153.151 105.138 152.848C105.715 152.531 106.177 152.066 106.524 151.455C106.872 150.843 107.041 150.098 107.031 149.221C107.022 148.343 106.838 147.602 106.477 146.997C106.131 146.392 105.674 145.943 105.105 145.652C104.55 145.36 103.947 145.217 103.296 145.223C102.631 145.23 102.024 145.384 101.475 145.687C100.926 145.99 100.492 146.447 100.173 147.058C99.8539 147.67 99.699 148.415 99.7082 149.292C99.7176 150.183 99.8882 150.932 100.22 151.537C100.552 152.143 100.988 152.591 101.529 152.883C102.07 153.175 102.666 153.318 103.317 153.311ZM124.322 143.426C125.171 143.418 125.93 143.588 126.599 143.935C127.267 144.268 127.797 144.787 128.186 145.49C128.59 146.194 128.797 147.048 128.807 148.053L128.875 154.485L127.07 154.502L127.006 148.325C126.994 147.236 126.717 146.41 126.173 145.85C125.629 145.275 124.897 144.992 123.977 145.001C123.044 145.01 122.297 145.321 121.737 145.935C121.191 146.535 120.925 147.408 120.936 148.554L120.999 154.561L119.216 154.579L119.152 148.402C119.14 147.312 118.863 146.487 118.319 145.926C117.775 145.351 117.043 145.068 116.124 145.077C115.175 145.086 114.429 145.398 113.883 146.012C113.337 146.612 113.07 147.485 113.082 148.631L113.145 154.638L111.32 154.656L111.206 143.745L113.031 143.727L113.048 145.298C113.395 144.729 113.865 144.292 114.456 143.989C115.062 143.672 115.732 143.51 116.468 143.503C117.388 143.494 118.197 143.691 118.894 144.095C119.606 144.498 120.136 145.095 120.484 145.884C120.787 145.117 121.283 144.517 121.972 144.086C122.675 143.655 123.459 143.435 124.322 143.426ZM141.722 148.479C141.726 148.833 141.708 149.201 141.67 149.583L132.967 149.668C133.035 150.743 133.405 151.582 134.076 152.184C134.761 152.772 135.585 153.061 136.548 153.051C137.326 153.044 137.975 152.86 138.495 152.502C139.015 152.129 139.377 151.63 139.583 151.005L141.536 150.986C141.25 152.05 140.672 152.912 139.801 153.572C138.931 154.231 137.851 154.567 136.564 154.58C135.516 154.59 134.58 154.373 133.755 153.928C132.943 153.469 132.299 152.817 131.823 151.972C131.347 151.114 131.103 150.118 131.092 148.986C131.08 147.854 131.296 146.861 131.74 146.008C132.184 145.154 132.807 144.497 133.608 144.036C134.425 143.576 135.37 143.34 136.446 143.329C137.479 143.319 138.394 143.537 139.191 143.982C139.988 144.413 140.603 145.023 141.036 145.811C141.483 146.599 141.712 147.488 141.722 148.479ZM139.85 148.115C139.843 147.436 139.681 146.85 139.365 146.358C139.062 145.851 138.648 145.473 138.122 145.224C137.595 144.974 137.014 144.852 136.377 144.859C135.457 144.868 134.675 145.165 134.03 145.752C133.399 146.338 133.047 147.148 132.973 148.182L139.85 148.115ZM160.145 154.18L158.322 152.372C157.65 153.072 156.927 153.596 156.152 153.943C155.391 154.29 154.53 154.468 153.567 154.478C152.605 154.487 151.754 154.325 151.015 153.993C150.275 153.646 149.697 153.157 149.28 152.524C148.877 151.891 148.671 151.15 148.662 150.301C148.652 149.339 148.919 148.487 149.463 147.746C150.008 147.004 150.815 146.416 151.886 145.981C151.456 145.476 151.14 145.012 150.938 144.589C150.749 144.167 150.652 143.7 150.647 143.191C150.641 142.611 150.784 142.086 151.076 141.616C151.368 141.146 151.789 140.774 152.338 140.5C152.902 140.225 153.551 140.084 154.287 140.077C155.009 140.07 155.633 140.206 156.159 140.484C156.7 140.747 157.1 141.133 157.36 141.64C157.634 142.132 157.76 142.683 157.738 143.292L155.934 143.309C155.943 142.771 155.783 142.348 155.454 142.04C155.139 141.718 154.727 141.559 154.218 141.564C153.694 141.569 153.271 141.729 152.949 142.043C152.626 142.344 152.468 142.72 152.472 143.173C152.477 143.584 152.587 143.972 152.803 144.338C153.033 144.703 153.406 145.16 153.921 145.707L158.104 149.827L158.459 149.25L159.794 146.966L161.747 146.947L160.142 149.807C159.92 150.205 159.655 150.625 159.348 151.067L162.523 154.157L160.145 154.18ZM153.551 152.928C154.259 152.921 154.901 152.78 155.479 152.506C156.056 152.217 156.596 151.773 157.099 151.174L152.981 147.117C151.289 147.784 150.451 148.826 150.466 150.241C150.474 151.019 150.764 151.667 151.336 152.185C151.907 152.689 152.645 152.937 153.551 152.928ZM171.629 144.642L171.696 151.074C171.702 151.612 171.819 151.993 172.048 152.217C172.276 152.427 172.674 152.529 173.24 152.524L174.556 152.511L174.572 154.039L172.959 154.055C171.94 154.065 171.173 153.839 170.659 153.377C170.158 152.915 169.903 152.153 169.892 151.092L169.824 144.66L168.402 144.674L168.387 143.188L169.809 143.174L169.78 140.436L171.584 140.418L171.613 143.157L174.457 143.129L174.473 144.615L171.629 144.642ZM176.031 148.527C176.019 147.409 176.235 146.43 176.679 145.591C177.123 144.737 177.739 144.08 178.527 143.62C179.314 143.145 180.189 142.903 181.151 142.894C182.114 142.884 182.944 143.081 183.641 143.485C184.353 143.889 184.889 144.4 185.25 145.019L185.229 143.024L187.054 143.006L187.169 153.917L185.343 153.934L185.322 151.897C184.961 152.537 184.428 153.073 183.725 153.504C183.022 153.922 182.196 154.135 181.248 154.144C180.286 154.154 179.406 153.929 178.609 153.469C177.825 152.996 177.203 152.33 176.741 151.471C176.279 150.612 176.042 149.631 176.031 148.527ZM185.286 148.458C185.277 147.637 185.1 146.924 184.754 146.319C184.422 145.714 183.971 145.251 183.402 144.931C182.832 144.611 182.208 144.454 181.529 144.461C180.85 144.468 180.229 144.636 179.666 144.967C179.117 145.284 178.683 145.748 178.364 146.36C178.045 146.972 177.89 147.688 177.899 148.509C177.907 149.344 178.078 150.071 178.41 150.69C178.742 151.296 179.185 151.758 179.74 152.078C180.31 152.398 180.934 152.555 181.614 152.548C182.293 152.542 182.914 152.373 183.476 152.042C184.039 151.711 184.48 151.24 184.799 150.628C185.132 150.002 185.294 149.279 185.286 148.458ZM191.898 139.138L192.053 153.869L190.227 153.887L190.073 139.155L191.898 139.138ZM201.218 153.78L196.9 149.003L196.951 153.821L195.125 153.839L194.971 139.108L196.797 139.09L196.887 147.75L201.04 142.87L203.566 142.845L198.486 148.329L203.701 153.756L201.218 153.78Z" fill="#25282A"/>
<path fill-rule="evenodd" clip-rule="evenodd" d="M54.3125 201.234C54.3125 187.668 65.3091 176.672 78.8742 176.672H265.012C271.526 176.672 277.774 179.26 282.38 183.866C286.986 188.472 289.574 194.719 289.574 201.234C289.574 214.799 278.577 225.795 265.012 225.795H78.8742C65.3091 225.795 54.3125 214.799 54.3125 201.234Z" fill="#980000"/>
<path fill-rule="evenodd" clip-rule="evenodd" d="M54.3125 201.234C54.3125 187.668 65.3091 176.672 78.8742 176.672H265.012C271.526 176.672 277.774 179.26 282.38 183.866C286.986 188.472 289.574 194.719 289.574 201.234C289.574 214.799 278.577 225.795 265.012 225.795H78.8742C65.3091 225.795 54.3125 214.799 54.3125 201.234Z" stroke="#44546A" stroke-width="1.35859" stroke-miterlimit="10" stroke-linejoin="round"/>
<path d="M125.714 192.845V204.966C125.714 206.834 125.183 208.278 124.122 209.296C123.074 210.301 121.659 210.804 119.876 210.804C117.994 210.804 116.487 210.273 115.354 209.212C114.222 208.15 113.656 206.636 113.656 204.669H117.966C117.966 205.419 118.114 205.985 118.411 206.367C118.723 206.749 119.168 206.94 119.749 206.94C120.272 206.94 120.676 206.77 120.959 206.431C121.242 206.091 121.383 205.603 121.383 204.966V192.845H125.714ZM135.651 210.846C134.264 210.846 133.019 210.549 131.915 209.955C130.811 209.36 129.941 208.518 129.304 207.428C128.667 206.325 128.349 205.037 128.349 203.565C128.349 202.107 128.667 200.826 129.304 199.723C129.955 198.619 130.84 197.77 131.958 197.175C133.076 196.581 134.328 196.284 135.715 196.284C137.102 196.284 138.347 196.581 139.451 197.175C140.569 197.77 141.447 198.619 142.083 199.723C142.734 200.826 143.06 202.107 143.06 203.565C143.06 205.023 142.734 206.303 142.083 207.407C141.432 208.511 140.541 209.36 139.409 209.955C138.291 210.549 137.038 210.846 135.651 210.846ZM135.651 207.089C136.486 207.089 137.194 206.784 137.774 206.176C138.354 205.567 138.644 204.697 138.644 203.565C138.644 202.433 138.361 201.562 137.795 200.954C137.229 200.345 136.536 200.041 135.715 200.041C134.866 200.041 134.158 200.345 133.592 200.954C133.04 201.548 132.764 202.419 132.764 203.565C132.764 204.697 133.04 205.567 133.592 206.176C134.144 206.784 134.83 207.089 135.651 207.089ZM147.551 195.01C146.787 195.01 146.164 194.791 145.683 194.352C145.202 193.899 144.961 193.347 144.961 192.696C144.961 192.017 145.202 191.458 145.683 191.019C146.164 190.566 146.787 190.34 147.551 190.34C148.287 190.34 148.896 190.566 149.377 191.019C149.858 191.458 150.099 192.017 150.099 192.696C150.099 193.347 149.858 193.899 149.377 194.352C148.896 194.791 148.287 195.01 147.551 195.01ZM149.695 196.496V210.634H145.365V196.496H149.695ZM161.46 196.347C163.116 196.347 164.439 196.885 165.43 197.961C166.421 199.022 166.916 200.494 166.916 202.376V210.634H162.607V202.949C162.607 202.001 162.359 201.265 161.864 200.742C161.368 200.218 160.71 199.956 159.89 199.956C159.055 199.956 158.389 200.218 157.894 200.742C157.413 201.265 157.172 202.001 157.172 202.949V210.634H152.842V196.496H157.172V198.364C157.611 197.741 158.198 197.253 158.934 196.899C159.684 196.531 160.526 196.347 161.46 196.347ZM191.22 210.634H186.889L179.629 199.659V210.634H175.299V192.845H179.629L186.889 203.862V192.845H191.22V210.634ZM200.791 210.846C199.404 210.846 198.159 210.549 197.055 209.955C195.951 209.36 195.081 208.518 194.444 207.428C193.807 206.325 193.489 205.037 193.489 203.565C193.489 202.107 193.807 200.826 194.444 199.723C195.095 198.619 195.979 197.77 197.097 197.175C198.215 196.581 199.468 196.284 200.855 196.284C202.242 196.284 203.487 196.581 204.591 197.175C205.709 197.77 206.586 198.619 207.223 199.723C207.874 200.826 208.2 202.107 208.2 203.565C208.2 205.023 207.874 206.303 207.223 207.407C206.572 208.511 205.681 209.36 204.549 209.955C203.431 210.549 202.178 210.846 200.791 210.846ZM200.791 207.089C201.626 207.089 202.334 206.784 202.914 206.176C203.494 205.567 203.784 204.697 203.784 203.565C203.784 202.433 203.501 201.562 202.935 200.954C202.369 200.345 201.676 200.041 200.855 200.041C200.006 200.041 199.298 200.345 198.732 200.954C198.18 201.548 197.904 202.419 197.904 203.565C197.904 204.697 198.18 205.567 198.732 206.176C199.284 206.784 199.97 207.089 200.791 207.089ZM230.799 196.496L226.978 210.634H222.18L219.951 201.463L217.658 210.634H212.882L209.04 196.496H213.37L215.366 206.601L217.765 196.496H222.35L224.749 206.558L226.723 196.496H230.799Z" fill="white"/>
</svg>
