<svg width="313" height="354" viewBox="0 0 313 354" fill="none" xmlns="http://www.w3.org/2000/svg">
<path fill-rule="evenodd" clip-rule="evenodd" d="M17.4744 71.92L260.182 49.9779C264.841 49.5568 269.476 51.0035 273.067 53.9998C276.658 56.9961 278.912 61.2966 279.332 65.9551L302.908 327.255C302.908 327.256 302.907 327.257 302.906 327.257L25.0702 352.373C25.069 352.373 25.0678 352.372 25.0677 352.371L1.49434 91.0731C0.619067 81.3721 7.7736 72.7969 17.4744 71.92Z" fill="#EFC083"/>
<path fill-rule="evenodd" clip-rule="evenodd" d="M17.4744 71.92L260.182 49.9779C264.841 49.5568 269.476 51.0035 273.067 53.9998C276.658 56.9961 278.912 61.2966 279.332 65.9551L302.908 327.255C302.908 327.256 302.907 327.257 302.906 327.257L25.0702 352.373C25.069 352.373 25.0678 352.372 25.0677 352.371L1.49434 91.0731C0.619067 81.3721 7.7736 72.7969 17.4744 71.92Z" stroke="black" stroke-width="1.35859" stroke-miterlimit="10" stroke-linejoin="round"/>
<path fill-rule="evenodd" clip-rule="evenodd" d="M50.4357 0.976885L294.19 2.4347C298.869 2.46268 303.345 4.34808 306.635 7.67615C309.924 11.0042 311.757 15.5023 311.73 20.1809L309.905 338.359C309.905 338.36 309.904 338.361 309.903 338.361L30.8695 336.69C30.8682 336.69 30.8672 336.689 30.8672 336.688L32.6939 18.5121C32.7498 8.76935 40.6931 0.918591 50.4357 0.976885Z" fill="white"/>
<path fill-rule="evenodd" clip-rule="evenodd" d="M50.4357 0.976885L294.19 2.43469C298.869 2.46268 303.345 4.34808 306.635 7.67615C309.924 11.0042 311.757 15.5023 311.73 20.1809L309.905 338.359C309.905 338.36 309.904 338.361 309.903 338.361L30.8695 336.69C30.8682 336.69 30.8672 336.689 30.8672 336.688L32.6939 18.5121C32.7498 8.76935 40.6931 0.918591 50.4357 0.976885Z" stroke="black" stroke-width="1.35859" stroke-miterlimit="10" stroke-linejoin="round"/>
<path d="M62.6463 45.8134L62.6447 50.4411L67.697 50.4489L67.6965 51.9561L62.6442 51.9483L62.6425 56.7246L68.2892 56.7333L68.2887 58.2193L60.8164 58.2078L60.8212 44.3034L68.2935 44.3149L68.293 45.8221L62.6463 45.8134ZM76.7203 58.2323L74.1532 54.1737L71.6469 58.2244L69.7576 58.2215L73.2833 52.8138L69.7614 47.3103L71.8205 47.3135L74.4089 51.3508L76.8727 47.3213L78.762 47.3242L75.2575 52.7107L78.7795 58.2354L76.7203 58.2323ZM79.8917 52.7603C79.8921 51.6281 80.1188 50.6449 80.572 49.8106C81.0252 48.9622 81.6551 48.3122 82.462 47.8606C83.2688 47.3948 84.1888 47.1627 85.2218 47.1643C86.5663 47.1664 87.67 47.4936 88.5331 48.1459C89.3961 48.7841 89.969 49.6836 90.2516 50.8445L88.2986 50.8415C88.1149 50.1761 87.7542 49.6519 87.2165 49.2689C86.6789 48.886 86.0138 48.6939 85.2213 48.6927C84.1882 48.6911 83.3531 49.0436 82.716 49.7503C82.079 50.4569 81.7602 51.4612 81.7597 52.7632C81.7593 54.0793 82.0773 55.0988 82.7139 55.8215C83.3505 56.5301 84.1854 56.8852 85.2185 56.8867C86.011 56.888 86.6691 56.705 87.1929 56.3378C87.7308 55.9707 88.0989 55.4406 88.2973 54.7474L90.2502 54.7505C89.9527 55.868 89.3651 56.7587 88.4874 57.4225C87.6239 58.0863 86.5341 58.4172 85.2179 58.4152C84.1848 58.4136 83.265 58.1857 82.4585 57.7316C81.652 57.2634 81.0225 56.6043 80.5699 55.7545C80.1174 54.9047 79.8913 53.9066 79.8917 52.7603ZM94.4863 43.5273L94.4812 58.2596L92.6556 58.2568L92.6607 43.5245L94.4863 43.5273ZM107.238 47.368L107.234 58.2792L105.43 58.2764L105.43 56.6631C105.076 57.2145 104.588 57.6525 103.965 57.977C103.356 58.2874 102.684 58.442 101.948 58.4409C101.099 58.4396 100.335 58.2615 99.6557 57.9067C98.9765 57.5518 98.4389 57.0203 98.0429 56.3121C97.661 55.6039 97.4703 54.7474 97.4706 53.7426L97.4728 47.353L99.256 47.3557L99.2539 53.5119C99.2535 54.5874 99.5221 55.4157 100.06 55.9968C100.611 56.5637 101.354 56.8479 102.288 56.8493C103.265 56.8508 104.029 56.5548 104.581 55.9613C105.148 55.3678 105.431 54.4978 105.431 53.3515L105.433 47.3652L107.238 47.368ZM114.161 58.4597C113.326 58.4584 112.576 58.3157 111.911 58.0317C111.246 57.7476 110.722 57.3505 110.341 56.8405C109.959 56.3304 109.747 55.7428 109.704 55.0776L111.572 55.0804C111.629 55.6183 111.883 56.0645 112.336 56.419C112.803 56.7594 113.404 56.9301 114.14 56.9312C114.834 56.9323 115.379 56.7845 115.775 56.488C116.171 56.1772 116.37 55.7884 116.37 55.3213C116.37 54.8402 116.158 54.486 115.733 54.259C115.309 54.0319 114.651 53.8044 113.759 53.5766C112.953 53.3631 112.295 53.1498 111.785 52.9367C111.276 52.7095 110.837 52.3834 110.47 51.9582C110.102 51.519 109.918 50.9455 109.918 50.2379C109.918 49.686 110.081 49.1768 110.407 48.7103C110.747 48.2438 111.221 47.8765 111.83 47.6086C112.453 47.3406 113.153 47.2073 113.931 47.2085C115.134 47.2103 116.104 47.5161 116.839 48.1257C117.589 48.7354 117.992 49.571 118.048 50.6325L116.244 50.6297C116.202 50.0636 115.968 49.6104 115.544 49.2701C115.134 48.9157 114.575 48.7379 113.867 48.7368C113.216 48.7358 112.7 48.8765 112.317 49.159C111.935 49.4273 111.744 49.7878 111.744 50.2407C111.744 50.5945 111.857 50.8919 112.083 51.1328C112.324 51.3596 112.614 51.544 112.953 51.6861C113.307 51.8282 113.795 51.9846 114.418 52.1554C115.21 52.3689 115.847 52.5821 116.328 52.7952C116.824 52.994 117.248 53.299 117.602 53.7099C117.955 54.1209 118.139 54.6589 118.153 55.3241C118.153 55.9185 117.983 56.456 117.643 56.9366C117.317 57.4173 116.85 57.7916 116.242 58.0595C115.647 58.3275 114.954 58.4609 114.161 58.4597ZM121.63 45.607C121.29 45.6065 121 45.4928 120.76 45.266C120.519 45.025 120.399 44.7277 120.399 44.3739C120.399 44.0342 120.52 43.7443 120.76 43.5041C121.001 43.2639 121.291 43.144 121.631 43.1445C121.971 43.1451 122.254 43.2658 122.48 43.5067C122.72 43.7477 122.841 44.038 122.84 44.3776C122.84 44.7314 122.72 45.0284 122.479 45.2687C122.253 45.4947 121.97 45.6075 121.63 45.607ZM122.521 47.3915L122.517 58.3027L120.692 58.2999L120.695 47.3887L122.521 47.3915ZM129.666 56.6367L133.045 47.4077L134.977 47.4107L130.685 58.3153L128.583 58.3121L124.299 47.3942L126.252 47.3973L129.666 56.6367ZM146.719 52.4598C146.718 52.8136 146.697 53.1815 146.654 53.5636L137.951 53.5502C138.007 54.6258 138.368 55.4684 139.033 56.078C139.712 56.6734 140.533 56.9719 141.495 56.9733C142.273 56.9745 142.924 56.7986 143.448 56.4456C143.972 56.0785 144.34 55.5837 144.552 54.9614L146.505 54.9644C146.208 56.0253 145.62 56.8806 144.743 57.5303C143.865 58.1799 142.782 58.5037 141.494 58.5018C140.447 58.5001 139.513 58.2723 138.692 57.8182C137.886 57.3499 137.249 56.6908 136.783 55.841C136.316 54.977 136.083 53.9789 136.083 52.8468C136.084 51.7146 136.31 50.7243 136.763 49.8759C137.217 49.0275 137.847 48.3774 138.653 47.9258C139.474 47.4742 140.423 47.2493 141.498 47.2509C142.531 47.2525 143.444 47.4803 144.236 47.9344C145.029 48.3743 145.637 48.9909 146.061 49.7841C146.5 50.5772 146.719 51.4691 146.719 52.4598ZM144.851 52.0748C144.851 51.3955 144.695 50.808 144.384 50.3122C144.087 49.8022 143.677 49.4195 143.153 49.164C142.63 48.9084 142.05 48.7802 141.413 48.7792C140.493 48.7778 139.707 49.0667 139.056 49.6459C138.419 50.2252 138.058 51.0313 137.973 52.0642L144.851 52.0748ZM153.745 52.8527C153.745 51.7347 153.972 50.7586 154.425 49.9243C154.879 49.0759 155.501 48.4258 156.294 47.9742C157.087 47.5084 157.964 47.2762 158.927 47.2777C159.889 47.2792 160.717 47.4857 161.41 47.8972C162.118 48.3087 162.648 48.826 163.002 49.4493L163.002 47.4538L164.828 47.4566L164.824 58.3678L162.999 58.365L162.999 56.3271C162.631 56.9634 162.093 57.4933 161.385 57.9168C160.678 58.3261 159.85 58.53 158.901 58.5286C157.939 58.5271 157.062 58.2922 156.269 57.824C155.491 57.3416 154.876 56.6684 154.423 55.8044C153.971 54.9405 153.745 53.9566 153.745 52.8527ZM163 52.8882C163.001 52.0674 162.831 51.3524 162.492 50.7434C162.166 50.1343 161.721 49.6666 161.155 49.3403C160.589 49.0139 159.966 48.8502 159.287 48.8492C158.608 48.8481 157.985 49.0099 157.419 49.3345C156.867 49.645 156.428 50.1043 156.102 50.7123C155.776 51.3204 155.613 52.0348 155.613 52.8556C155.613 53.6906 155.775 54.4197 156.101 55.0428C156.426 55.6519 156.864 56.1196 157.416 56.4459C157.982 56.7723 158.605 56.936 159.284 56.937C159.963 56.9381 160.586 56.7763 161.152 56.4516C161.719 56.127 162.165 55.6607 162.49 55.0527C162.83 54.4305 163 53.709 163 52.8882ZM167.206 52.8947C167.206 51.7625 167.433 50.7793 167.886 49.945C168.339 49.0966 168.969 48.4466 169.776 47.9949C170.583 47.5292 171.503 47.2971 172.536 47.2986C173.88 47.3007 174.984 47.6279 175.847 48.2802C176.71 48.9184 177.283 49.8179 177.565 50.9788L175.613 50.9759C175.429 50.3104 175.068 49.7862 174.53 49.4033C173.993 49.0204 173.328 48.8283 172.535 48.8271C171.502 48.8255 170.667 49.178 170.03 49.8846C169.393 50.5912 169.074 51.5955 169.074 52.8975C169.073 54.2137 169.391 55.2331 170.028 55.9559C170.664 56.6644 171.499 57.0195 172.532 57.0211C173.325 57.0223 173.983 56.8394 174.507 56.4722C175.045 56.1051 175.413 55.575 175.611 54.8818L177.564 54.8848C177.267 56.0024 176.679 56.893 175.801 57.5568C174.938 58.2206 173.848 58.5515 172.532 58.5495C171.499 58.5479 170.579 58.3201 169.772 57.866C168.966 57.3977 168.336 56.7387 167.884 55.8889C167.431 55.039 167.205 54.041 167.206 52.8947ZM179.292 52.9132C179.292 51.7811 179.519 50.7979 179.972 49.9636C180.426 49.1152 181.056 48.4652 181.862 48.0135C182.669 47.5477 183.589 47.3156 184.622 47.3173C185.967 47.3193 187.07 47.6465 187.934 48.2988C188.797 48.937 189.369 49.8365 189.652 50.9975L187.699 50.9944C187.515 50.329 187.155 49.8048 186.617 49.4219C186.079 49.039 185.414 48.8469 184.622 48.8457C183.589 48.8441 182.754 49.1966 182.116 49.9032C181.479 50.6098 181.161 51.6142 181.16 52.9161C181.16 54.2323 181.478 55.2517 182.114 55.9744C182.751 56.683 183.586 57.0381 184.619 57.0397C185.411 57.0409 186.07 56.8579 186.593 56.4908C187.131 56.1237 187.499 55.5935 187.698 54.9004L189.651 54.9034C189.353 56.0209 188.765 56.9116 187.888 57.5754C187.024 58.2392 185.935 58.5701 184.618 58.5681C183.585 58.5665 182.665 58.3387 181.859 57.8846C181.052 57.4163 180.423 56.7573 179.97 55.9075C179.518 55.0576 179.292 54.0596 179.292 52.9132ZM202.014 52.5449C202.014 52.8987 201.993 53.2666 201.95 53.6486L193.246 53.6352C193.303 54.7109 193.663 55.5535 194.328 56.163C195.007 56.7585 195.828 57.0569 196.79 57.0584C197.569 57.0596 198.22 56.8837 198.744 56.5307C199.267 56.1636 199.635 55.6688 199.848 55.0464L201.801 55.0495C201.503 56.1104 200.916 56.9657 200.038 57.6153C199.16 58.265 198.078 58.5888 196.79 58.5868C195.743 58.5852 194.809 58.3574 193.988 57.9032C193.181 57.435 192.545 56.7759 192.078 55.9261C191.611 55.0621 191.378 54.064 191.379 52.9319C191.379 51.7997 191.606 50.8094 192.059 49.961C192.512 49.1125 193.142 48.4625 193.949 48.0109C194.77 47.5593 195.718 47.3343 196.794 47.336C197.827 47.3376 198.74 47.5654 199.532 48.0195C200.324 48.4594 200.933 49.076 201.357 49.8691C201.795 50.6623 202.014 51.5543 202.014 52.5449ZM200.146 52.1599C200.146 51.4806 199.991 50.8931 199.68 50.3973C199.383 49.8873 198.972 49.5046 198.449 49.249C197.925 48.9935 197.345 48.8653 196.708 48.8643C195.788 48.8628 195.003 49.1517 194.352 49.731C193.715 50.3103 193.354 51.1164 193.268 52.1493L200.146 52.1599ZM208.265 58.6045C207.43 58.6032 206.68 58.4605 206.015 58.1765C205.35 57.8924 204.826 57.4953 204.444 56.9853C204.062 56.4752 203.85 55.8876 203.808 55.2224L205.676 55.2253C205.733 55.7631 205.987 56.2093 206.44 56.5638C206.907 56.9042 207.508 57.0749 208.244 57.076C208.938 57.0771 209.483 56.9294 209.879 56.6328C210.275 56.3221 210.474 55.9332 210.474 55.4662C210.474 54.985 210.262 54.6309 209.837 54.4038C209.413 54.1767 208.755 53.9492 207.863 53.7214C207.057 53.5079 206.399 53.2946 205.889 53.0815C205.38 52.8543 204.941 52.5282 204.573 52.1031C204.206 51.6638 204.022 51.0903 204.022 50.3827C204.022 49.8308 204.185 49.3216 204.511 48.855C204.851 48.3885 205.325 48.0213 205.934 47.7534C206.556 47.4855 207.257 47.3521 208.035 47.3533C209.238 47.3551 210.208 47.6609 210.943 48.2706C211.693 48.8803 212.096 49.7159 212.152 50.7773L210.348 50.7746C210.306 50.2084 210.072 49.7552 209.648 49.4149C209.238 49.0605 208.679 48.8827 207.971 48.8816C207.32 48.8806 206.803 49.0213 206.421 49.3038C206.039 49.5721 205.848 49.9327 205.848 50.3855C205.848 50.7393 205.961 51.0367 206.187 51.2776C206.428 51.5044 206.718 51.6889 207.057 51.8309C207.411 51.9729 207.899 52.1294 208.522 52.3002C209.314 52.5137 209.951 52.7269 210.432 52.9399C210.927 53.1388 211.352 53.4438 211.705 53.8547C212.059 54.2657 212.243 54.8037 212.257 55.4689C212.257 56.0633 212.087 56.6008 211.747 57.0814C211.421 57.5621 210.954 57.9364 210.345 58.2044C209.751 58.4723 209.057 58.6057 208.265 58.6045ZM218.659 58.6205C217.824 58.6192 217.074 58.4765 216.409 58.1925C215.744 57.9084 215.22 57.5113 214.838 57.0013C214.456 56.4912 214.244 55.9036 214.202 55.2384L216.07 55.2412C216.127 55.7791 216.381 56.2253 216.834 56.5798C217.301 56.9202 217.902 57.0909 218.638 57.0921C219.332 57.0931 219.877 56.9453 220.273 56.6488C220.669 56.338 220.868 55.9491 220.868 55.4821C220.868 55.001 220.656 54.6468 220.231 54.4198C219.807 54.1927 219.149 53.9652 218.257 53.7374C217.451 53.5239 216.793 53.3106 216.283 53.0975C215.774 52.8703 215.335 52.5442 214.967 52.119C214.6 51.6797 214.416 51.1063 214.416 50.3987C214.416 49.8468 214.579 49.3376 214.905 48.871C215.245 48.4046 215.719 48.0373 216.328 47.7694C216.95 47.5014 217.651 47.3681 218.429 47.3693C219.632 47.3711 220.602 47.6769 221.337 48.2866C222.087 48.8962 222.49 49.7318 222.546 50.7933L220.742 50.7906C220.7 50.2244 220.466 49.7712 220.042 49.4309C219.632 49.0765 219.073 48.8987 218.365 48.8976C217.714 48.8966 217.198 49.0373 216.815 49.3198C216.433 49.5881 216.242 49.9487 216.242 50.4015C216.242 50.7553 216.355 51.0527 216.581 51.2936C216.822 51.5204 217.112 51.7048 217.451 51.8469C217.805 51.9889 218.293 52.1454 218.916 52.3162C219.708 52.5297 220.345 52.7429 220.826 52.9559C221.321 53.1548 221.746 53.4597 222.1 53.8707C222.453 54.2817 222.637 54.8197 222.651 55.4849C222.651 56.0793 222.481 56.6168 222.141 57.0974C221.815 57.5781 221.348 57.9524 220.739 58.2204C220.145 58.4883 219.451 58.6217 218.659 58.6205Z" fill="#25282A"/>
<path d="M62.2365 69.8521C61.6421 69.8512 61.1539 69.6736 60.7719 69.3192C60.3899 68.9648 60.199 68.5329 60.1992 68.0234C60.1994 67.4856 60.3906 67.0472 60.7728 66.7082C61.1551 66.3549 61.6434 66.1788 62.2378 66.1797C62.818 66.1806 63.2991 66.3582 63.6811 66.7126C64.0631 67.0529 64.254 67.4919 64.2538 68.0296C64.2536 68.5391 64.0624 68.9705 63.6802 69.3237C63.2979 69.6769 62.8167 69.8531 62.2365 69.8521ZM63.9343 71.0223L63.9304 82.1246L60.5127 82.1193L60.5166 71.0171L63.9343 71.0223ZM73.1624 70.9091C74.4644 70.9111 75.5044 71.3373 76.2825 72.1876C77.0605 73.0238 77.4493 74.1778 77.4488 75.6496L77.4465 82.1454L74.0501 82.1401L74.0522 76.1114C74.0524 75.3613 73.8616 74.7808 73.4796 74.3698C73.0976 73.9588 72.5812 73.7528 71.9302 73.7518C71.2792 73.7508 70.7626 73.9552 70.3803 74.365C69.9981 74.7748 69.8068 75.3548 69.8066 76.1048L69.8045 82.1336L66.3868 82.1284L66.3906 71.0261L69.8083 71.0313L69.8078 72.4961C70.1476 72.0013 70.6077 71.6128 71.188 71.3307C71.7684 71.0485 72.4265 70.908 73.1624 70.9091ZM85.3933 73.8787L83.5676 73.8758L83.5648 82.1548L80.1471 82.1495L80.1499 73.8706L78.9187 73.8687L78.9197 71.0454L80.1509 71.0473L80.151 70.7288C80.1515 69.3561 80.5411 68.3165 81.3197 67.6101C82.1124 66.9037 83.2659 66.5517 84.7802 66.554C85.0349 66.5544 85.2189 66.5618 85.3321 66.5761L85.3311 69.4631C84.6801 69.4197 84.2202 69.5109 83.9512 69.737C83.6964 69.963 83.5689 70.3661 83.5687 70.9464L83.5686 71.0525L85.3942 71.0553L85.3933 73.8787ZM92.0279 82.3376C90.9382 82.336 89.9618 82.101 89.0987 81.6326C88.2356 81.1643 87.5495 80.4981 87.0403 79.634C86.5453 78.77 86.298 77.7577 86.2984 76.5973C86.2988 75.4651 86.5538 74.4677 87.0636 73.6053C87.5734 72.7286 88.26 72.0575 89.1234 71.5918C90.001 71.1261 90.9847 70.8941 92.0744 70.8958C93.1641 70.8975 94.1476 71.1325 95.0248 71.6008C95.9021 72.0692 96.5882 72.7425 97.0832 73.6207C97.5924 74.4847 97.8468 75.4828 97.8464 76.615C97.846 77.7613 97.5909 78.7728 97.0811 79.6495C96.5714 80.5119 95.8706 81.176 94.9789 81.6417C94.1013 82.1073 93.1176 82.3393 92.0279 82.3376ZM92.029 79.3869C92.6799 79.3879 93.232 79.1482 93.685 78.6677C94.1522 78.1873 94.3859 77.5013 94.3862 76.6097C94.3865 75.7181 94.1603 75.0385 93.7076 74.5707C93.2691 74.0889 92.7243 73.8475 92.0733 73.8465C91.4082 73.8455 90.8562 74.0852 90.4173 74.5657C89.9784 75.032 89.7588 75.711 89.7585 76.6026C89.7582 77.4941 89.9703 78.1809 90.3946 78.6627C90.8332 79.1445 91.378 79.3859 92.029 79.3869ZM103.081 72.9294C103.477 72.3214 103.973 71.841 104.567 71.4881C105.162 71.1353 105.827 70.9594 106.563 70.9605L106.561 74.5693L105.627 74.5679C104.778 74.5666 104.141 74.7496 103.717 75.1169C103.292 75.47 103.079 76.1065 103.079 77.0264L103.077 82.1848L99.6596 82.1796L99.6635 71.0773L103.081 71.0825L103.081 72.9294ZM122.366 70.9849C123.753 70.987 124.85 71.4062 125.656 72.2424C126.477 73.0786 126.887 74.2397 126.886 75.7257L126.884 82.2214L123.487 82.2162L123.489 76.1875C123.49 75.4657 123.299 74.9135 122.917 74.5308C122.549 74.134 122.033 73.935 121.367 73.934C120.702 73.933 120.179 74.1303 119.796 74.526C119.428 74.9075 119.244 75.4592 119.244 76.1809L119.242 82.2097L115.845 82.2044L115.847 76.1757C115.848 75.4539 115.657 74.9017 115.275 74.519C114.907 74.1222 114.39 73.9233 113.725 73.9222C113.06 73.9212 112.536 74.1185 112.154 74.5142C111.786 74.8958 111.602 75.4474 111.602 76.1692L111.6 82.1979L108.182 82.1927L108.186 71.0904L111.604 71.0956L111.603 72.4755C111.943 72.009 112.389 71.6417 112.941 71.3737C113.507 71.1057 114.137 70.9722 114.83 70.9732C115.679 70.9745 116.429 71.1597 117.08 71.5287C117.731 71.8835 118.247 72.3937 118.629 73.0594C119.012 72.4374 119.535 71.9358 120.201 71.5547C120.866 71.1736 121.588 70.9837 122.366 70.9849ZM128.591 76.6411C128.592 75.5089 128.804 74.5115 129.229 73.6489C129.668 72.7863 130.256 72.1221 130.992 71.6562C131.742 71.1903 132.577 70.9581 133.497 70.9595C134.275 70.9607 134.962 71.1245 135.556 71.4509C136.15 71.7632 136.603 72.1814 136.914 72.7055L136.915 71.1346L140.332 71.1399L140.328 82.2421L136.911 82.2369L136.911 80.666C136.586 81.175 136.126 81.5918 135.531 81.9163C134.937 82.2409 134.25 82.4026 133.472 82.4014C132.566 82.4 131.738 82.1652 130.988 81.697C130.253 81.2147 129.666 80.5416 129.227 79.6777C128.803 78.7996 128.591 77.7874 128.591 76.6411ZM136.913 76.6751C136.913 75.826 136.68 75.1605 136.213 74.6786C135.746 74.1826 135.173 73.934 134.494 73.933C133.814 73.9319 133.234 74.1716 132.753 74.652C132.286 75.1325 132.052 75.7973 132.051 76.6464C132.051 77.4956 132.284 78.1752 132.751 78.6854C133.232 79.1814 133.812 79.43 134.492 79.431C135.171 79.4321 135.744 79.1853 136.211 78.6907C136.679 78.1961 136.912 77.5242 136.913 76.6751ZM148.988 79.3684L148.987 82.2554L147.247 82.2528C146.016 82.2509 145.053 81.9522 144.36 81.3567C143.667 80.7471 143.32 79.756 143.321 78.3832L143.322 73.9678L141.985 73.9657L141.986 71.1424L143.323 71.1445L143.324 68.4273L146.742 68.4325L146.741 71.1497L148.97 71.1531L148.969 73.9765L146.74 73.9731L146.739 78.431C146.739 78.7565 146.816 78.9972 146.972 79.153C147.128 79.2948 147.396 79.366 147.778 79.3666L148.988 79.3684ZM152.597 69.9912C152.002 69.9903 151.514 69.8126 151.132 69.4582C150.75 69.1038 150.559 68.6719 150.56 68.1624C150.56 67.6247 150.751 67.1862 151.133 66.8472C151.515 66.494 152.004 66.3178 152.598 66.3188C153.178 66.3196 153.659 66.4973 154.041 66.8516C154.423 67.1919 154.614 67.6309 154.614 68.1687C154.614 68.6782 154.423 69.1095 154.041 69.4627C153.658 69.8159 153.177 69.9921 152.597 69.9912ZM154.295 71.1614L154.291 82.2636L150.873 82.2583L150.877 71.1561L154.295 71.1614ZM161.799 82.445C160.71 82.4433 159.733 82.2083 158.87 81.74C158.007 81.2716 157.321 80.6054 156.812 79.7414C156.317 78.8773 156.069 77.8651 156.07 76.7046C156.07 75.5724 156.325 74.5751 156.835 73.7126C157.345 72.836 158.031 72.1648 158.895 71.6991C159.772 71.2335 160.756 71.0015 161.846 71.0031C162.935 71.0048 163.919 71.2399 164.796 71.7082C165.673 72.1766 166.36 72.8498 166.855 73.728C167.364 74.5921 167.618 75.5902 167.618 76.7224C167.617 77.8687 167.362 78.8802 166.853 79.7568C166.343 80.6193 165.642 81.2834 164.75 81.749C163.873 82.2147 162.889 82.4467 161.799 82.445ZM161.8 79.4943C162.451 79.4953 163.003 79.2556 163.456 78.7751C163.924 78.2946 164.157 77.6086 164.158 76.717C164.158 75.8255 163.932 75.1458 163.479 74.6781C163.041 74.1963 162.496 73.9548 161.845 73.9538C161.18 73.9528 160.628 74.1926 160.189 74.6731C159.75 75.1394 159.53 75.8183 159.53 76.7099C159.53 77.6015 159.742 78.2882 160.166 78.77C160.605 79.2519 161.149 79.4933 161.8 79.4943ZM176.207 71.0677C177.509 71.0697 178.549 71.4959 179.327 72.3462C180.105 73.1823 180.494 74.3363 180.493 75.8081L180.491 82.3039L177.094 82.2987L177.096 76.2699C177.097 75.5199 176.906 74.9393 176.524 74.5284C176.142 74.1174 175.625 73.9114 174.974 73.9103C174.323 73.9093 173.807 74.1138 173.425 74.5236C173.042 74.9334 172.851 75.5134 172.851 76.2634L172.849 82.2922L169.431 82.2869L169.435 71.1847L172.853 71.1899L172.852 72.6547C173.192 72.1599 173.652 71.7714 174.232 71.4892C174.813 71.2071 175.471 71.0666 176.207 71.0677ZM192.125 82.4916C191.036 82.49 190.059 82.255 189.196 81.7866C188.333 81.3183 187.647 80.6521 187.138 79.788C186.643 78.924 186.395 77.9117 186.396 76.7512C186.396 75.6191 186.651 74.6218 187.161 73.7593C187.671 72.8826 188.357 72.2115 189.221 71.7458C190.098 71.2801 191.082 71.0481 192.172 71.0498C193.261 71.0515 194.245 71.2865 195.122 71.7549C195.999 72.2232 196.686 72.8965 197.181 73.7747C197.69 74.6388 197.944 75.6369 197.944 76.769C197.943 77.9153 197.688 78.9268 197.178 79.8035C196.669 80.666 195.968 81.33 195.076 81.7957C194.199 82.2613 193.215 82.4933 192.125 82.4916ZM192.126 79.541C192.777 79.5419 193.329 79.3022 193.782 78.8218C194.249 78.3413 194.483 77.6553 194.484 76.7637C194.484 75.8722 194.258 75.1925 193.805 74.7248C193.366 74.2429 192.822 74.0015 192.171 74.0005C191.506 73.9995 190.953 74.2392 190.515 74.7197C190.076 75.1861 189.856 75.865 189.856 76.7566C189.856 77.6482 190.068 78.3349 190.492 78.8167C190.93 79.2985 191.475 79.54 192.126 79.541ZM206.533 71.1144C207.835 71.1164 208.875 71.5425 209.653 72.3928C210.431 73.229 210.819 74.383 210.819 75.8548L210.817 82.3506L207.42 82.3454L207.422 76.3166C207.423 75.5666 207.232 74.986 206.85 74.575C206.468 74.164 205.951 73.958 205.3 73.957C204.649 73.956 204.133 74.1604 203.75 74.5702C203.368 74.9801 203.177 75.56 203.177 76.3101L203.175 82.3388L199.757 82.3336L199.761 71.2313L203.178 71.2366L203.178 72.7013C203.518 72.2065 203.978 71.818 204.558 71.5359C205.139 71.2537 205.797 71.1132 206.533 71.1144Z" fill="#25282A"/>
<path d="M59.9336 99.0229C59.9341 97.636 60.2317 96.4052 60.8265 95.3306C61.4212 94.2418 62.2494 93.4011 63.311 92.8083C64.3868 92.2014 65.604 91.899 66.9625 91.9011C68.6183 91.9036 70.0334 92.3445 71.2077 93.2238C72.3962 94.103 73.1883 95.3001 73.584 96.815L69.8478 96.8092C69.565 96.2144 69.1689 95.768 68.6595 95.47C68.1502 95.1579 67.57 95.0013 66.919 95.0003C65.8718 94.9987 65.0225 95.3653 64.3713 96.1003C63.72 96.8352 63.3942 97.8112 63.3938 99.0282C63.3933 100.245 63.7185 101.222 64.3692 101.959C65.02 102.682 65.869 103.044 66.9162 103.046C67.5672 103.047 68.1475 102.899 68.6571 102.603C69.1666 102.292 69.5631 101.847 69.8463 101.267L73.5824 101.273C73.1856 102.787 72.3927 103.981 71.2036 104.857C70.0287 105.718 68.6134 106.148 66.9576 106.145C65.599 106.143 64.382 105.837 63.3067 105.227C62.2455 104.617 61.4179 103.773 60.8239 102.697C60.2299 101.62 59.9331 100.396 59.9336 99.0229ZM74.9999 100.468C75.0003 99.3362 75.2129 98.3388 75.6377 97.4762C76.0768 96.6136 76.6643 95.9494 77.4004 95.4835C78.1506 95.0176 78.9856 94.7854 79.9055 94.7868C80.6839 94.788 81.3702 94.9518 81.9645 95.2782C82.5587 95.5905 83.0115 96.0086 83.3226 96.5327L83.3232 94.9619L86.7409 94.9671L86.737 106.069L83.3193 106.064L83.3198 104.493C82.9942 105.002 82.5341 105.419 81.9396 105.744C81.3451 106.068 80.6587 106.23 79.8803 106.229C78.9746 106.227 78.1468 105.992 77.3969 105.524C76.6611 105.042 76.0741 104.369 75.6356 103.505C75.2114 102.627 74.9995 101.615 74.9999 100.468ZM83.3212 100.502C83.3215 99.6533 83.0883 98.9878 82.6214 98.5059C82.1546 98.0098 81.5815 97.7613 80.9022 97.7603C80.2229 97.7592 79.6426 97.9989 79.1612 98.4793C78.6941 98.9598 78.4603 99.6246 78.46 100.474C78.4597 101.323 78.693 102.002 79.1598 102.513C79.6408 103.009 80.221 103.257 80.9003 103.258C81.5796 103.259 82.1528 103.013 82.62 102.518C83.0872 102.023 83.3209 101.352 83.3212 100.502ZM92.6183 96.823C93.0148 96.2151 93.5103 95.7347 94.1048 95.3818C94.6993 95.0289 95.3645 94.8531 96.1004 94.8542L96.0992 98.463L95.1651 98.4615C94.316 98.4602 93.6791 98.6432 93.2544 99.0105C92.8298 99.3636 92.6172 100 92.6169 100.92L92.6151 106.078L89.1974 106.073L89.2013 94.9709L92.619 94.9762L92.6183 96.823ZM108.208 100.371C108.208 100.682 108.187 101.015 108.144 101.369L100.439 101.357C100.481 102.05 100.7 102.581 101.096 102.95C101.492 103.304 101.973 103.482 102.539 103.483C103.389 103.484 103.983 103.124 104.323 102.403L107.932 102.408C107.747 103.144 107.415 103.809 106.933 104.402C106.452 104.982 105.843 105.441 105.107 105.779C104.385 106.104 103.572 106.265 102.666 106.264C101.576 106.262 100.607 106.027 99.7578 105.559C98.9089 105.09 98.2439 104.424 97.7631 103.56C97.2822 102.696 97.042 101.684 97.0424 100.524C97.0428 99.3772 97.2766 98.3728 97.744 97.5102C98.2254 96.6477 98.8908 95.9835 99.7401 95.5179C100.589 95.0521 101.566 94.8201 102.67 94.8218C103.745 94.8235 104.701 95.0514 105.535 95.5055C106.37 95.9597 107.021 96.6046 107.488 97.4403C107.969 98.276 108.209 99.2529 108.208 100.371ZM104.706 99.4739C104.706 98.8795 104.508 98.4122 104.112 98.0719C103.716 97.7317 103.221 97.5611 102.626 97.5602C102.06 97.5593 101.579 97.7213 101.183 98.0462C100.786 98.3711 100.546 98.8448 100.46 99.4673L104.706 99.4739ZM120.474 100.39C120.474 100.701 120.453 101.034 120.41 101.387L112.704 101.376C112.747 102.069 112.966 102.6 113.362 102.969C113.758 103.323 114.239 103.501 114.805 103.502C115.654 103.503 116.249 103.143 116.589 102.422L120.197 102.427C120.013 103.163 119.68 103.827 119.199 104.421C118.718 105.001 118.109 105.46 117.373 105.798C116.651 106.123 115.837 106.284 114.932 106.283C113.842 106.281 112.873 106.046 112.024 105.578C111.175 105.109 110.51 104.443 110.029 103.579C109.548 102.715 109.308 101.703 109.308 100.542C109.309 99.3961 109.542 98.3916 110.01 97.5291C110.491 96.6666 111.157 96.0024 112.006 95.5367C112.855 95.071 113.832 94.839 114.936 94.8407C116.011 94.8423 116.966 95.0702 117.801 95.5244C118.636 95.9785 119.287 96.6235 119.753 97.4591C120.234 98.2949 120.475 99.2717 120.474 100.39ZM116.972 99.4928C116.972 98.8984 116.774 98.4311 116.378 98.0908C115.982 97.7505 115.487 97.58 114.892 97.579C114.326 97.5782 113.845 97.7402 113.448 98.0651C113.052 98.3899 112.811 98.8637 112.726 99.4863L116.972 99.4928ZM125.672 96.8739C126.069 96.266 126.564 95.7855 127.159 95.4327C127.753 95.0798 128.418 94.9039 129.154 94.905L129.153 98.5138L128.219 98.5124C127.37 98.5111 126.733 98.694 126.308 99.0614C125.884 99.4145 125.671 100.051 125.671 100.971L125.669 106.129L122.251 106.124L122.255 95.0218L125.673 95.027L125.672 96.8739ZM134.447 103.001L132.237 108.708L130.051 108.705L131.22 102.996L134.447 103.001ZM145.762 106.309C144.743 106.307 143.83 106.143 143.024 105.816C142.217 105.475 141.566 104.979 141.071 104.327C140.59 103.676 140.336 102.89 140.308 101.97L143.938 101.975C143.994 102.499 144.171 102.896 144.468 103.165C144.779 103.434 145.183 103.57 145.678 103.57C146.173 103.571 146.57 103.458 146.867 103.232C147.164 102.992 147.313 102.667 147.313 102.257C147.313 101.917 147.193 101.634 146.952 101.407C146.726 101.18 146.443 100.996 146.103 100.854C145.764 100.698 145.283 100.527 144.66 100.342C143.754 100.058 143.012 99.7805 142.431 99.5107C141.865 99.2268 141.377 98.8157 140.967 98.2773C140.557 97.7247 140.352 97.0097 140.352 96.1323C140.353 94.8303 140.82 93.8121 141.754 93.0776C142.703 92.3431 143.934 91.9771 145.448 91.9794C146.991 91.9818 148.229 92.3516 149.163 93.089C150.111 93.8264 150.62 94.8532 150.69 96.1694L147.018 96.1637C146.99 95.7108 146.82 95.3568 146.509 95.1015C146.212 94.8464 145.822 94.7184 145.341 94.7177C144.931 94.717 144.598 94.8297 144.343 95.0558C144.089 95.2677 143.961 95.5788 143.961 95.9892C143.961 96.4421 144.173 96.7962 144.598 97.0516C145.022 97.2928 145.687 97.5628 146.593 97.8614C147.498 98.1599 148.227 98.4512 148.779 98.7351C149.345 99.019 149.833 99.4301 150.243 99.9685C150.668 100.493 150.88 101.172 150.879 102.007C150.879 102.8 150.674 103.521 150.263 104.172C149.852 104.822 149.265 105.345 148.5 105.74C147.736 106.121 146.823 106.31 145.762 106.309ZM152.278 100.609C152.279 99.4622 152.512 98.4578 152.98 97.5952C153.461 96.7327 154.119 96.0685 154.955 95.6028C155.804 95.1371 156.773 94.9051 157.863 94.9068C159.25 94.9089 160.41 95.2786 161.344 96.016C162.292 96.7392 162.907 97.7662 163.19 99.0969L159.581 99.0913C159.27 98.2417 158.676 97.8162 157.798 97.8149C157.176 97.8139 156.673 98.0608 156.291 98.5555C155.923 99.0362 155.739 99.7223 155.738 100.614C155.738 101.52 155.922 102.22 156.289 102.716C156.671 103.198 157.174 103.439 157.796 103.44C158.674 103.442 159.268 103.018 159.58 102.169L163.189 102.175C162.905 103.462 162.289 104.48 161.341 105.229C160.392 105.978 159.232 106.351 157.859 106.349C156.769 106.347 155.8 106.112 154.951 105.644C154.116 105.175 153.458 104.509 152.978 103.645C152.511 102.781 152.278 101.769 152.278 100.609ZM171.842 94.9707C173.115 94.9727 174.134 95.3988 174.898 96.2491C175.676 97.0853 176.065 98.2392 176.064 99.7111L176.062 106.207L172.666 106.202L172.668 100.173C172.668 99.4228 172.477 98.8423 172.095 98.4313C171.713 98.0203 171.197 97.8143 170.546 97.8133C169.895 97.8123 169.378 98.0167 168.996 98.4265C168.614 98.8363 168.422 99.4163 168.422 100.166L168.42 106.195L165.002 106.19L165.007 91.4576L168.425 91.4628L168.423 96.5788C168.763 96.084 169.23 95.6955 169.825 95.4134C170.419 95.1171 171.091 94.9696 171.842 94.9707ZM183.475 106.388C182.385 106.386 181.409 106.151 180.546 105.683C179.683 105.215 178.997 104.549 178.487 103.684C177.992 102.82 177.745 101.808 177.746 100.648C177.746 99.5155 178.001 98.5182 178.511 97.6557C179.021 96.7791 179.707 96.1079 180.571 95.6422C181.448 95.1765 182.432 94.9445 183.521 94.9462C184.611 94.9479 185.595 95.1829 186.472 95.6513C187.349 96.1197 188.035 96.7929 188.53 97.6711C189.04 98.5352 189.294 99.5333 189.294 100.665C189.293 101.812 189.038 102.823 188.528 103.7C188.018 104.562 187.318 105.226 186.426 105.692C185.548 106.158 184.565 106.39 183.475 106.388ZM183.476 103.437C184.127 103.438 184.679 103.199 185.132 102.718C185.599 102.238 185.833 101.552 185.833 100.66C185.834 99.7686 185.607 99.0889 185.155 98.6212C184.716 98.1394 184.171 97.8979 183.52 97.8969C182.855 97.8959 182.303 98.1356 181.864 98.6162C181.426 99.0825 181.206 99.7614 181.206 100.653C181.205 101.545 181.417 102.231 181.842 102.713C182.28 103.195 182.825 103.436 183.476 103.437ZM194.53 91.503L194.524 106.235L191.107 106.23L191.112 91.4978L194.53 91.503ZM196.303 100.655C196.304 99.5229 196.516 98.5255 196.941 97.6628C197.38 96.8002 197.968 96.136 198.704 95.6701C199.454 95.2042 200.289 94.972 201.209 94.9734C201.987 94.9746 202.674 95.1385 203.268 95.4649C203.862 95.7771 204.315 96.1953 204.626 96.7194L204.627 95.1485L208.044 95.1538L208.041 106.256L204.623 106.251L204.623 104.68C204.298 105.189 203.838 105.606 203.243 105.93C202.649 106.255 201.962 106.417 201.184 106.415C200.278 106.414 199.45 106.179 198.7 105.711C197.965 105.229 197.378 104.556 196.939 103.692C196.515 102.814 196.303 101.801 196.303 100.655ZM204.625 100.689C204.625 99.8399 204.392 99.1744 203.925 98.6925C203.458 98.1965 202.885 97.9479 202.206 97.9469C201.526 97.9459 200.946 98.1856 200.465 98.666C199.998 99.1464 199.764 99.8112 199.764 100.66C199.763 101.509 199.997 102.189 200.463 102.699C200.944 103.195 201.525 103.444 202.204 103.445C202.883 103.446 203.456 103.199 203.924 102.705C204.391 102.21 204.624 101.538 204.625 100.689ZM213.922 97.0097C214.318 96.4017 214.814 95.9213 215.408 95.5684C216.003 95.2156 216.668 95.0397 217.404 95.0408L217.403 98.6496L216.469 98.6482C215.62 98.6469 214.983 98.8299 214.558 99.1971C214.133 99.5503 213.921 100.187 213.92 101.107L213.919 106.265L210.501 106.26L210.505 95.1576L213.923 95.1628L213.922 97.0097ZM223.545 106.45C222.582 106.448 221.719 106.284 220.955 105.958C220.205 105.617 219.611 105.156 219.172 104.575C218.734 103.994 218.487 103.343 218.43 102.621L221.805 102.626C221.834 103.022 222.003 103.341 222.315 103.582C222.64 103.809 223.036 103.923 223.503 103.924C223.928 103.924 224.253 103.847 224.48 103.692C224.72 103.522 224.841 103.303 224.841 103.034C224.841 102.723 224.671 102.489 224.332 102.333C224.006 102.177 223.476 102.006 222.74 101.821C221.933 101.636 221.261 101.443 220.723 101.245C220.2 101.031 219.747 100.705 219.365 100.266C218.983 99.8125 218.792 99.2037 218.793 98.4394C218.793 97.8026 218.97 97.2227 219.324 96.6996C219.678 96.1765 220.194 95.7669 220.874 95.4707C221.553 95.1604 222.367 95.006 223.315 95.0075C224.702 95.0096 225.799 95.358 226.605 96.0527C227.412 96.7474 227.871 97.6609 227.984 98.7932L224.842 98.7884C224.786 98.4062 224.616 98.1017 224.333 97.8748C224.05 97.648 223.675 97.5342 223.208 97.5334C222.812 97.5328 222.508 97.6102 222.295 97.7655C222.083 97.9209 221.977 98.133 221.977 98.4019C221.977 98.7132 222.146 98.9541 222.486 99.1244C222.826 99.2806 223.349 99.4371 224.057 99.5938C224.892 99.8074 225.564 100.021 226.073 100.234C226.597 100.433 227.049 100.766 227.431 101.234C227.827 101.687 228.032 102.296 228.046 103.06C228.046 103.711 227.862 104.291 227.494 104.8C227.126 105.309 226.602 105.711 225.922 106.008C225.243 106.304 224.451 106.451 223.545 106.45ZM236.973 95.0709C238.247 95.0729 239.266 95.499 240.03 96.3493C240.808 97.1855 241.197 98.3395 241.196 99.8113L241.194 106.307L237.797 106.302L237.8 100.273C237.8 99.523 237.609 98.9425 237.227 98.5315C236.845 98.1205 236.329 97.9145 235.678 97.9135C235.027 97.9125 234.51 98.1169 234.128 98.5267C233.745 98.9366 233.554 99.5165 233.554 100.267L233.552 106.295L230.134 106.29L230.139 91.5578L233.557 91.5631L233.555 96.679C233.895 96.1842 234.362 95.7958 234.957 95.5136C235.551 95.2173 236.223 95.0698 236.973 95.0709ZM245.279 94.0435C244.684 94.0426 244.196 93.865 243.814 93.5106C243.432 93.1562 243.241 92.7243 243.241 92.2148C243.242 91.677 243.433 91.2386 243.815 90.8996C244.197 90.5463 244.685 90.3702 245.28 90.3711C245.86 90.372 246.341 90.5496 246.723 90.904C247.105 91.2443 247.296 91.6833 247.296 92.221C247.296 92.7305 247.104 93.1619 246.722 93.515C246.34 93.8683 245.859 94.0444 245.279 94.0435ZM246.976 95.2137L246.973 106.316L243.555 106.311L243.559 95.2084L246.976 95.2137ZM252.85 96.7936C253.176 96.2705 253.629 95.8537 254.209 95.5432C254.803 95.2186 255.49 95.057 256.268 95.0582C257.188 95.0596 258.016 95.2944 258.752 95.7625C259.502 96.2307 260.089 96.8967 260.513 97.7606C260.951 98.6246 261.17 99.6227 261.17 100.755C261.169 101.901 260.95 102.913 260.511 103.789C260.086 104.652 259.498 105.323 258.748 105.803C258.012 106.269 257.184 106.501 256.264 106.5C255.486 106.499 254.8 106.335 254.205 106.009C253.625 105.682 253.172 105.271 252.847 104.775L252.845 111.632L249.427 111.627L249.433 95.2175L252.85 95.2227L252.85 96.7936ZM257.688 100.749C257.689 99.9004 257.456 99.2349 256.989 98.753C256.522 98.2711 255.942 98.0296 255.248 98.0285C254.569 98.0275 253.996 98.2743 253.528 98.7689C253.061 99.2493 252.828 99.9141 252.827 100.763C252.827 101.612 253.06 102.285 253.527 102.781C253.994 103.277 254.567 103.526 255.246 103.527C255.926 103.528 256.499 103.281 256.966 102.786C257.447 102.278 257.688 101.599 257.688 100.749ZM266.623 103.204L264.413 108.911L262.226 108.908L263.396 103.2L266.623 103.204Z" fill="#25282A"/>
<path d="M59.9258 122.935C59.9263 121.548 60.2239 120.317 60.8186 119.243C61.4134 118.154 62.2416 117.313 63.3032 116.72C64.379 116.113 65.5961 115.811 66.9547 115.813C68.6105 115.816 70.0256 116.257 71.1999 117.136C72.3883 118.015 73.1804 119.212 73.5762 120.727L69.84 120.721C69.5572 120.126 69.1611 119.68 68.6517 119.382C68.1424 119.07 67.5622 118.913 66.9112 118.912C65.864 118.911 65.0147 119.277 64.3635 120.012C63.7122 120.747 63.3864 121.723 63.386 122.94C63.3855 124.157 63.7107 125.134 64.3614 125.871C65.0122 126.594 65.8612 126.956 66.9084 126.958C67.5594 126.959 68.1397 126.811 68.6493 126.515C69.1588 126.204 69.5552 125.759 69.8385 125.179L73.5746 125.185C73.1778 126.699 72.3849 127.893 71.1958 128.769C70.0209 129.63 68.6056 130.06 66.9498 130.057C65.5912 130.055 64.3742 129.749 63.2989 129.139C62.2377 128.529 61.4101 127.685 60.8161 126.609C60.2221 125.532 59.9253 124.308 59.9258 122.935ZM80.7216 130.142C79.6319 130.14 78.6555 129.905 77.7924 129.437C76.9293 128.969 76.2431 128.302 75.734 127.438C75.2389 126.574 74.9916 125.562 74.992 124.402C74.9924 123.269 75.2475 122.272 75.7573 121.41C76.2671 120.533 76.9537 119.862 77.8171 119.396C78.6947 118.93 79.6783 118.699 80.768 118.7C81.8578 118.702 82.8412 118.937 83.7185 119.405C84.5958 119.874 85.2819 120.547 85.7769 121.425C86.2861 122.289 86.5405 123.287 86.5401 124.419C86.5397 125.566 86.2846 126.577 85.7748 127.454C85.265 128.316 84.5643 128.98 83.6725 129.446C82.795 129.912 81.8113 130.144 80.7216 130.142ZM80.7226 127.191C81.3736 127.192 81.9256 126.953 82.3787 126.472C82.8459 125.992 83.0796 125.306 83.0799 124.414C83.0802 123.523 82.854 122.843 82.4013 122.375C81.9628 121.893 81.418 121.652 80.767 121.651C80.1019 121.65 79.5499 121.89 79.111 122.37C78.6721 122.836 78.4525 123.515 78.4522 124.407C78.4519 125.299 78.6639 125.985 79.0883 126.467C79.5269 126.949 80.0716 127.19 80.7226 127.191ZM102.538 118.776C103.924 118.778 105.021 119.197 105.827 120.034C106.648 120.87 107.058 122.031 107.057 123.517L107.055 130.013L103.659 130.008L103.661 123.979C103.661 123.257 103.47 122.705 103.088 122.322C102.72 121.925 102.204 121.726 101.539 121.725C100.874 121.724 100.35 121.922 99.9677 122.317C99.5996 122.699 99.4155 123.25 99.4152 123.972L99.4131 130.001L96.0166 129.996L96.0187 123.967C96.019 123.245 95.8281 122.693 95.4461 122.31C95.0783 121.913 94.5618 121.715 93.8967 121.714C93.2315 121.713 92.7079 121.91 92.3256 122.306C91.9575 122.687 91.7734 123.239 91.7731 123.96L91.771 129.989L88.3533 129.984L88.3572 118.882L91.7749 118.887L91.7744 120.267C92.1142 119.8 92.5601 119.433 93.1121 119.165C93.6783 118.897 94.3081 118.763 95.0016 118.765C95.8507 118.766 96.6007 118.951 97.2516 119.32C97.9024 119.675 98.4188 120.185 98.8007 120.851C99.183 120.229 99.7068 119.727 100.372 119.346C101.037 118.965 101.759 118.775 102.538 118.776ZM112.861 120.49C113.187 119.967 113.64 119.55 114.22 119.24C114.815 118.915 115.501 118.754 116.279 118.755C117.199 118.756 118.027 118.991 118.763 119.459C119.513 119.927 120.1 120.593 120.524 121.457C120.962 122.321 121.181 123.319 121.181 124.451C121.181 125.598 120.961 126.609 120.522 127.486C120.097 128.349 119.51 129.02 118.759 129.5C118.023 129.966 117.195 130.198 116.275 130.197C115.497 130.196 114.811 130.032 114.216 129.705C113.636 129.379 113.184 128.968 112.858 128.472L112.856 135.329L109.438 135.323L109.444 118.914L112.862 118.919L112.861 120.49ZM117.7 124.446C117.7 123.597 117.467 122.932 117 122.45C116.533 121.968 115.953 121.726 115.259 121.725C114.58 121.724 114.007 121.971 113.54 122.466C113.072 122.946 112.839 123.611 112.838 124.46C112.838 125.309 113.071 125.982 113.538 126.478C114.005 126.974 114.578 127.222 115.257 127.223C115.937 127.224 116.51 126.978 116.977 126.483C117.459 125.974 117.699 125.295 117.7 124.446ZM133.449 124.322C133.449 124.633 133.427 124.966 133.385 125.319L125.679 125.308C125.721 126.001 125.94 126.532 126.337 126.901C126.733 127.255 127.214 127.433 127.78 127.434C128.629 127.435 129.224 127.075 129.563 126.354L133.172 126.359C132.988 127.095 132.655 127.76 132.174 128.353C131.692 128.933 131.084 129.392 130.348 129.73C129.626 130.055 128.812 130.216 127.906 130.215C126.817 130.213 125.847 129.978 124.998 129.51C124.149 129.041 123.484 128.375 123.004 127.511C122.523 126.647 122.282 125.635 122.283 124.474C122.283 123.328 122.517 122.324 122.984 121.461C123.466 120.599 124.131 119.934 124.981 119.469C125.83 119.003 126.806 118.771 127.91 118.773C128.986 118.774 129.941 119.002 130.776 119.456C131.611 119.911 132.261 120.555 132.728 121.391C133.209 122.227 133.449 123.204 133.449 124.322ZM129.947 123.425C129.947 122.83 129.749 122.363 129.353 122.023C128.957 121.683 128.461 121.512 127.867 121.511C127.301 121.51 126.82 121.672 126.423 121.997C126.027 122.322 125.786 122.796 125.701 123.418L129.947 123.425ZM141.426 127.179L141.425 130.066L139.684 130.063C138.453 130.061 137.49 129.762 136.797 129.167C136.104 128.557 135.758 127.566 135.758 126.193L135.76 121.778L134.422 121.776L134.423 118.953L135.761 118.955L135.762 116.237L139.179 116.243L139.178 118.96L141.407 118.963L141.406 121.787L139.177 121.783L139.176 126.241C139.176 126.567 139.253 126.807 139.409 126.963C139.565 127.105 139.834 127.176 140.216 127.177L141.426 127.179ZM145.034 117.801C144.44 117.8 143.951 117.623 143.569 117.268C143.187 116.914 142.997 116.482 142.997 115.973C142.997 115.435 143.188 114.996 143.57 114.657C143.953 114.304 144.441 114.128 145.035 114.129C145.616 114.13 146.097 114.307 146.479 114.662C146.861 115.002 147.051 115.441 147.051 115.979C147.051 116.488 146.86 116.92 146.478 117.273C146.095 117.626 145.614 117.802 145.034 117.801ZM146.732 118.972L146.728 130.074L143.31 130.069L143.314 118.966L146.732 118.972ZM155.384 127.2L155.383 130.087L153.642 130.084C152.411 130.083 151.449 129.784 150.755 129.188C150.062 128.579 149.716 127.588 149.716 126.215L149.718 121.799L148.381 121.797L148.381 118.974L149.719 118.976L149.72 116.259L153.137 116.264L153.137 118.981L155.366 118.985L155.365 121.808L153.136 121.805L153.134 126.263C153.134 126.588 153.212 126.829 153.367 126.985C153.523 127.126 153.792 127.198 154.174 127.198L155.384 127.2ZM158.992 117.823C158.398 117.822 157.91 117.644 157.528 117.29C157.146 116.935 156.955 116.504 156.955 115.994C156.955 115.456 157.146 115.018 157.529 114.679C157.911 114.326 158.399 114.149 158.994 114.15C159.574 114.151 160.055 114.329 160.437 114.683C160.819 115.024 161.01 115.463 161.01 116C161.009 116.51 160.818 116.941 160.436 117.294C160.054 117.648 159.572 117.824 158.992 117.823ZM160.69 118.993L160.686 130.095L157.269 130.09L157.272 118.988L160.69 118.993ZM168.195 130.277C167.105 130.275 166.129 130.04 165.266 129.572C164.402 129.103 163.716 128.437 163.207 127.573C162.712 126.709 162.465 125.697 162.465 124.536C162.466 123.404 162.721 122.407 163.23 121.544C163.74 120.668 164.427 119.996 165.29 119.531C166.168 119.065 167.151 118.833 168.241 118.835C169.331 118.836 170.314 119.071 171.192 119.54C172.069 120.008 172.755 120.682 173.25 121.56C173.759 122.424 174.014 123.422 174.013 124.554C174.013 125.7 173.758 126.712 173.248 127.588C172.738 128.451 172.037 129.115 171.146 129.581C170.268 130.046 169.284 130.278 168.195 130.277ZM168.196 127.326C168.847 127.327 169.399 127.087 169.852 126.607C170.319 126.126 170.553 125.44 170.553 124.549C170.553 123.657 170.327 122.977 169.874 122.51C169.436 122.028 168.891 121.786 168.24 121.785C167.575 121.784 167.023 122.024 166.584 122.505C166.145 122.971 165.926 123.65 165.925 124.542C165.925 125.433 166.137 126.12 166.561 126.602C167 127.084 167.545 127.325 168.196 127.326ZM182.602 118.899C183.904 118.901 184.944 119.328 185.722 120.178C186.5 121.014 186.889 122.168 186.888 123.64L186.886 130.136L183.49 130.13L183.492 124.102C183.492 123.352 183.301 122.771 182.919 122.36C182.537 121.949 182.021 121.743 181.37 121.742C180.719 121.741 180.202 121.945 179.82 122.355C179.438 122.765 179.247 123.345 179.246 124.095L179.244 130.124L175.826 130.119L175.83 119.016L179.248 119.022L179.248 120.486C179.587 119.991 180.047 119.603 180.628 119.321C181.208 119.039 181.866 118.898 182.602 118.899Z" fill="#25282A"/>
<path d="M191.413 127.637L189.183 132.983L187.973 132.981L189.439 127.634L191.413 127.637ZM208.762 124.289C208.761 124.642 208.74 125.01 208.697 125.392L199.994 125.379C200.05 126.455 200.411 127.297 201.076 127.907C201.755 128.502 202.576 128.801 203.538 128.802C204.316 128.803 204.967 128.627 205.491 128.274C206.015 127.907 206.383 127.413 206.595 126.79L208.548 126.793C208.251 127.854 207.663 128.709 206.786 129.359C205.908 130.009 204.825 130.333 203.537 130.331C202.49 130.329 201.556 130.101 200.735 129.647C199.929 129.179 199.292 128.52 198.826 127.67C198.359 126.806 198.126 125.808 198.126 124.676C198.127 123.543 198.353 122.553 198.807 121.705C199.26 120.856 199.89 120.206 200.696 119.755C201.517 119.303 202.466 119.078 203.541 119.08C204.574 119.081 205.487 119.309 206.279 119.763C207.072 120.203 207.68 120.82 208.104 121.613C208.543 122.406 208.762 123.298 208.762 124.289ZM206.894 123.904C206.894 123.224 206.738 122.637 206.427 122.141C206.13 121.631 205.72 121.248 205.196 120.993C204.673 120.737 204.093 120.609 203.456 120.608C202.536 120.607 201.75 120.895 201.099 121.475C200.462 122.054 200.101 122.86 200.016 123.893L206.894 123.904ZM213.36 120.751L213.358 127.183C213.358 127.72 213.471 128.103 213.697 128.33C213.923 128.542 214.32 128.649 214.886 128.65L216.202 128.652L216.201 130.18L214.588 130.178C213.569 130.176 212.805 129.941 212.296 129.474C211.8 129.006 211.553 128.241 211.553 127.18L211.556 120.748L210.133 120.746L210.134 119.26L211.556 119.262L211.557 116.523L213.361 116.526L213.36 119.265L216.205 119.269L216.205 120.755L213.36 120.751ZM217.72 124.706C217.72 123.574 217.947 122.59 218.4 121.756C218.853 120.908 219.483 120.258 220.29 119.806C221.097 119.34 222.017 119.108 223.05 119.11C224.394 119.112 225.498 119.439 226.361 120.091C227.224 120.729 227.797 121.629 228.079 122.79L226.126 122.787C225.943 122.121 225.582 121.597 225.044 121.214C224.507 120.831 223.842 120.639 223.049 120.638C222.016 120.637 221.181 120.989 220.544 121.696C219.907 122.402 219.588 123.407 219.588 124.709C219.587 126.025 219.905 127.044 220.542 127.767C221.178 128.475 222.013 128.831 223.046 128.832C223.839 128.833 224.497 128.65 225.021 128.283C225.559 127.916 225.927 127.386 226.125 126.693L228.078 126.696C227.781 127.813 227.193 128.704 226.315 129.368C225.452 130.032 224.362 130.363 223.046 130.361C222.013 130.359 221.093 130.131 220.286 129.677C219.48 129.209 218.85 128.55 218.398 127.7C217.945 126.85 217.719 125.852 217.72 124.706ZM231.057 130.33C230.717 130.33 230.427 130.209 230.186 129.968C229.946 129.727 229.826 129.43 229.826 129.076C229.826 128.736 229.946 128.447 230.187 128.206C230.428 127.966 230.718 127.846 231.057 127.847C231.397 127.847 231.68 127.968 231.906 128.209C232.147 128.45 232.267 128.74 232.267 129.08C232.267 129.434 232.147 129.731 231.906 129.971C231.679 130.211 231.396 130.331 231.057 130.33Z" fill="#25282A"/>
<path fill-rule="evenodd" clip-rule="evenodd" d="M51.8945 177.898C51.8945 164.333 62.8912 153.336 76.4562 153.336H262.594C269.108 153.336 275.356 155.924 279.962 160.53C284.568 165.136 287.156 171.383 287.156 177.898C287.156 191.463 276.159 202.459 262.594 202.459H76.4562C62.8912 202.459 51.8945 191.463 51.8945 177.898Z" fill="#980000"/>
<path fill-rule="evenodd" clip-rule="evenodd" d="M51.8945 177.898C51.8945 164.333 62.8912 153.336 76.4562 153.336H262.594C269.108 153.336 275.356 155.924 279.962 160.53C284.568 165.136 287.156 171.383 287.156 177.898C287.156 191.463 276.159 202.459 262.594 202.459H76.4562C62.8912 202.459 51.8945 191.463 51.8945 177.898Z" stroke="#44546A" stroke-width="1.35859" stroke-miterlimit="10" stroke-linejoin="round"/>
<path d="M89.5679 169.509C91.4502 169.509 93.0918 169.884 94.4928 170.634C95.8939 171.37 96.9765 172.41 97.7407 173.754C98.5049 175.099 98.887 176.649 98.887 178.403C98.887 180.144 98.5049 181.694 97.7407 183.052C96.9765 184.397 95.8868 185.444 94.4716 186.194C93.0564 186.93 91.4219 187.298 89.5679 187.298H82.9023V169.509H89.5679ZM89.292 183.541C90.9336 183.541 92.2073 183.095 93.113 182.203C94.0329 181.312 94.4928 180.045 94.4928 178.403C94.4928 176.762 94.0329 175.488 93.113 174.582C92.2073 173.662 90.9336 173.202 89.292 173.202H87.2329V183.541H89.292ZM103.516 171.674C102.751 171.674 102.129 171.455 101.647 171.016C101.166 170.563 100.926 170.011 100.926 169.36C100.926 168.681 101.166 168.122 101.647 167.683C102.129 167.23 102.751 167.004 103.516 167.004C104.251 167.004 104.86 167.23 105.341 167.683C105.822 168.122 106.063 168.681 106.063 169.36C106.063 170.011 105.822 170.563 105.341 171.016C104.86 171.455 104.251 171.674 103.516 171.674ZM105.66 173.16V187.298H101.329V173.16H105.66ZM114.559 187.51C113.328 187.51 112.231 187.298 111.269 186.873C110.306 186.449 109.542 185.869 108.976 185.133C108.424 184.397 108.113 183.569 108.042 182.649H112.33C112.387 183.144 112.613 183.548 113.009 183.859C113.42 184.156 113.922 184.305 114.517 184.305C115.054 184.305 115.472 184.199 115.769 183.986C116.066 183.774 116.215 183.498 116.215 183.158C116.215 182.762 116.003 182.465 115.578 182.267C115.153 182.069 114.467 181.856 113.519 181.63C112.5 181.389 111.651 181.142 110.971 180.887C110.306 180.618 109.726 180.201 109.231 179.635C108.75 179.069 108.509 178.304 108.509 177.342C108.509 176.521 108.728 175.778 109.167 175.113C109.62 174.448 110.278 173.924 111.141 173.542C112.019 173.146 113.059 172.948 114.262 172.948C116.031 172.948 117.425 173.386 118.444 174.264C119.477 175.141 120.064 176.309 120.206 177.767H116.215C116.144 177.271 115.925 176.882 115.557 176.599C115.203 176.316 114.729 176.174 114.134 176.174C113.625 176.174 113.236 176.273 112.967 176.472C112.698 176.656 112.564 176.917 112.564 177.257C112.564 177.667 112.776 177.972 113.2 178.17C113.639 178.368 114.311 178.573 115.217 178.785C116.264 179.054 117.113 179.323 117.764 179.592C118.43 179.847 119.01 180.264 119.505 180.845C120.015 181.425 120.276 182.21 120.291 183.201C120.291 184.022 120.057 184.758 119.59 185.409C119.123 186.06 118.451 186.576 117.573 186.958C116.71 187.326 115.705 187.51 114.559 187.51ZM122.079 180.229C122.079 178.757 122.376 177.476 122.971 176.387C123.579 175.283 124.421 174.434 125.497 173.839C126.572 173.245 127.804 172.948 129.19 172.948C130.959 172.948 132.438 173.415 133.627 174.349C134.816 175.283 135.601 176.592 135.983 178.276H131.356C130.974 177.2 130.224 176.663 129.106 176.663C128.313 176.663 127.676 176.974 127.195 177.597C126.728 178.205 126.495 179.083 126.495 180.229C126.495 181.375 126.728 182.26 127.195 182.882C127.676 183.491 128.313 183.795 129.106 183.795C130.224 183.795 130.974 183.257 131.356 182.182H135.983C135.601 183.838 134.809 185.14 133.606 186.088C132.417 187.036 130.945 187.51 129.19 187.51C127.804 187.51 126.572 187.213 125.497 186.619C124.421 186.024 123.579 185.182 122.971 184.092C122.376 182.989 122.079 181.701 122.079 180.229ZM144.716 187.51C143.329 187.51 142.084 187.213 140.98 186.619C139.876 186.024 139.006 185.182 138.369 184.092C137.732 182.989 137.414 181.701 137.414 180.229C137.414 178.771 137.732 177.491 138.369 176.387C139.02 175.283 139.904 174.434 141.022 173.839C142.14 173.245 143.393 172.948 144.78 172.948C146.167 172.948 147.412 173.245 148.516 173.839C149.634 174.434 150.511 175.283 151.148 176.387C151.799 177.491 152.125 178.771 152.125 180.229C152.125 181.687 151.799 182.967 151.148 184.071C150.497 185.175 149.606 186.024 148.473 186.619C147.355 187.213 146.103 187.51 144.716 187.51ZM144.716 183.753C145.551 183.753 146.259 183.449 146.839 182.84C147.419 182.231 147.709 181.361 147.709 180.229C147.709 179.097 147.426 178.226 146.86 177.618C146.294 177.009 145.601 176.705 144.78 176.705C143.931 176.705 143.223 177.009 142.657 177.618C142.105 178.212 141.829 179.083 141.829 180.229C141.829 181.361 142.105 182.231 142.657 182.84C143.209 183.449 143.895 183.753 144.716 183.753ZM160.798 183.243L163.855 173.16H168.482L163.451 187.298H158.102L153.092 173.16H157.72L160.798 183.243ZM183.627 179.995C183.627 180.406 183.599 180.83 183.543 181.269H173.735C173.806 182.147 174.089 182.819 174.584 183.286C175.094 183.753 175.709 183.986 176.431 183.986C177.507 183.986 178.257 183.526 178.681 182.607H183.309C183.068 183.541 182.637 184.383 182.014 185.133C181.406 185.869 180.634 186.449 179.7 186.873C178.766 187.298 177.726 187.51 176.58 187.51C175.193 187.51 173.955 187.213 172.865 186.619C171.789 186.024 170.947 185.182 170.339 184.092C169.73 182.989 169.426 181.701 169.426 180.229C169.426 178.757 169.723 177.476 170.318 176.387C170.926 175.283 171.768 174.434 172.844 173.839C173.933 173.245 175.179 172.948 176.58 172.948C177.953 172.948 179.17 173.238 180.231 173.818C181.292 174.384 182.12 175.205 182.715 176.281C183.323 177.342 183.627 178.58 183.627 179.995ZM179.191 178.849C179.191 178.113 178.936 177.526 178.427 177.087C177.917 176.649 177.287 176.429 176.537 176.429C175.801 176.429 175.186 176.641 174.69 177.066C174.195 177.476 173.891 178.071 173.778 178.849H179.191ZM190.24 175.516C190.75 174.738 191.379 174.129 192.129 173.691C192.894 173.238 193.743 173.011 194.677 173.011V177.597H193.488C192.412 177.597 191.599 177.83 191.047 178.297C190.509 178.75 190.24 179.564 190.24 180.738V187.298H185.91V173.16H190.24V175.516ZM218.052 187.298H213.722L206.462 176.323V187.298H202.131V169.509H206.462L213.722 180.526V169.509H218.052V187.298ZM227.624 187.51C226.237 187.51 224.991 187.213 223.888 186.619C222.784 186.024 221.913 185.182 221.277 184.092C220.64 182.989 220.321 181.701 220.321 180.229C220.321 178.771 220.64 177.491 221.277 176.387C221.927 175.283 222.812 174.434 223.93 173.839C225.048 173.245 226.3 172.948 227.687 172.948C229.074 172.948 230.32 173.245 231.423 173.839C232.542 174.434 233.419 175.283 234.056 176.387C234.707 177.491 235.032 178.771 235.032 180.229C235.032 181.687 234.707 182.967 234.056 184.071C233.405 185.175 232.513 186.024 231.381 186.619C230.263 187.213 229.011 187.51 227.624 187.51ZM227.624 183.753C228.459 183.753 229.166 183.449 229.746 182.84C230.327 182.231 230.617 181.361 230.617 180.229C230.617 179.097 230.334 178.226 229.768 177.618C229.202 177.009 228.508 176.705 227.687 176.705C226.838 176.705 226.131 177.009 225.565 177.618C225.013 178.212 224.737 179.083 224.737 180.229C224.737 181.361 225.013 182.231 225.565 182.84C226.116 183.449 226.803 183.753 227.624 183.753ZM257.631 173.16L253.81 187.298H249.013L246.784 178.127L244.491 187.298H239.715L235.872 173.16H240.203L242.198 183.265L244.597 173.16H249.182L251.581 183.222L253.555 173.16H257.631Z" fill="white"/>
</svg>
