<svg width="444" height="265" viewBox="0 0 444 265" fill="none" xmlns="http://www.w3.org/2000/svg">
<path opacity="0.85" d="M2.98123 64.8074C10.5128 67.7453 18.7804 68.7668 26.6137 68.2155C35.0328 67.6292 43.285 65.8061 51.4774 63.9838C59.8601 62.1183 68.2909 60.1641 76.8947 59.4321C85.2757 58.7205 93.6117 59.4876 101.705 61.6344C117.182 65.7404 131.191 76.057 134.766 91.3063C138.153 105.791 130.728 119.624 122.814 131.581C118.811 137.629 114.478 143.48 110.629 149.617C110.195 150.314 109.763 151.007 109.344 151.71C109.402 151.613 108.508 153.144 108.887 152.477C109.271 151.817 108.408 153.343 108.459 153.249C107.605 154.784 106.801 156.341 106.061 157.933C105.378 159.4 104.753 160.899 104.21 162.416C103.96 163.13 103.722 163.842 103.507 164.557C103.386 164.954 103.271 165.353 103.168 165.751C103.063 166.138 103.084 166.073 103.222 165.559C103.146 165.877 103.074 166.197 103.008 166.519C102.717 167.96 102.515 169.415 102.418 170.875C102.365 171.688 102.346 172.506 102.359 173.32C102.357 173.09 102.275 172.375 102.368 173.412C102.415 173.909 102.452 174.402 102.511 174.897C102.962 178.628 104.013 181.677 106.085 185.009C109.858 191.082 117.046 196.273 123.785 199.3C131.696 202.854 140.404 205.054 149.052 203.82C157.839 202.568 164.388 197.355 171.349 192.43C179.386 186.737 187.879 182.68 197.684 180.377C207.051 178.173 217.176 177.564 226.728 178.996C244.277 181.632 261.413 192.033 266.855 208.538C269.782 217.437 269.294 226.693 269.273 235.889C269.262 240.034 269.424 244.092 270.253 248.238C270.411 249.031 270.588 249.82 270.803 250.605C270.91 251.028 271.031 251.445 271.159 251.859C271.454 252.797 270.71 250.745 271.316 252.29C271.949 253.917 272.596 255.521 273.399 257.081C274.998 260.187 276.311 262.086 278.928 265.062C279.997 266.276 281.141 267.423 282.306 268.55C283.556 269.757 281.881 268.191 282.657 268.871C282.998 269.172 283.341 269.468 283.691 269.761C284.394 270.343 285.113 270.913 285.846 271.466C287.312 272.567 288.84 273.606 290.42 274.575C291.053 274.964 291.692 275.338 292.339 275.705C292.823 275.979 293.315 276.245 293.81 276.506C292.934 276.041 294.289 276.745 294.463 276.83C297.656 278.366 300.994 279.637 304.425 280.607C305.327 280.863 306.238 281.096 307.151 281.306C306.151 281.075 307.338 281.346 307.582 281.389C308.041 281.475 308.503 281.568 308.958 281.648C310.793 281.967 312.645 282.197 314.508 282.33C316.172 282.453 317.846 282.507 319.516 282.471C318.394 282.492 320.213 282.426 320.255 282.424C320.628 282.402 320.997 282.372 321.361 282.341C322.373 282.253 323.385 282.137 324.386 281.988C331.982 280.867 338.367 277.743 344.329 272.744C345.789 271.517 346.792 270.594 347.86 269.494C349.318 267.998 350.695 266.434 352.008 264.825C354.639 261.609 357.006 258.208 359.185 254.713C359.669 253.938 360.144 253.155 360.606 252.373C361.186 251.393 359.977 253.491 360.934 251.805C361.133 251.463 361.329 251.115 361.525 250.767C362.582 248.882 363.606 246.974 364.568 245.044C366.65 240.883 368.566 236.534 369.075 231.926C369.482 228.224 368.862 224.66 366.988 221.701C366.16 220.394 364.932 219.144 363.79 218.372C362.393 217.419 361.285 217.043 359.781 216.893C358.425 216.758 359.164 216.728 357.827 216.895C357.45 216.944 357.078 217.011 356.705 217.078C354.972 217.37 357.15 216.892 356.164 217.179C354.017 217.814 352.895 218.476 351.46 219.495C350.808 219.953 350.185 220.443 349.587 220.959C348.641 221.774 348.897 221.526 348.047 222.47C347.377 223.205 346.753 223.974 346.172 224.769C345.94 225.088 345.714 225.408 345.498 225.732C345.459 225.785 344.567 227.239 345.014 226.451C340.817 233.745 339.733 242.175 341.441 250.256C343.056 257.908 347.626 264.842 353.674 269.763C355.294 271.086 357.015 272.306 358.82 273.395C360.692 274.524 361.882 275.108 364.017 275.941C367.763 277.408 371.571 278.346 375.373 278.043C383.908 277.364 390.794 272.446 397.106 267.071C403.149 261.917 408.495 255.481 412.729 248.562C414.432 245.782 416.397 241.864 417.886 238.355C419.487 234.585 420.831 230.716 421.924 226.792C426.094 211.818 426.348 194.982 423.565 179.369C422.085 171.052 419.808 163.62 416.829 155.852C413.482 147.137 409.824 138.16 409.256 128.821C408.466 115.803 412.671 101.065 421.244 90.6844C425.622 85.379 431.437 81.32 438.542 79.9885C445.744 78.6364 447.564 89.1672 440.388 90.5123C439.923 90.6018 439.466 90.7 439.01 90.8097C439.229 90.7545 440.029 90.4447 439.065 90.807C438.341 91.0771 437.618 91.3308 436.918 91.6596C436.566 91.823 436.227 91.9969 435.886 92.1757C435.095 92.5947 436.931 91.4408 435.73 92.2814C435.027 92.7765 434.312 93.2448 433.641 93.7792C433.083 94.226 432.552 94.6937 432.033 95.1767C432.887 94.3844 431.289 95.9917 431.046 96.2668C429.841 97.6413 428.758 99.1099 427.776 100.637C427.596 100.918 427.424 101.208 427.242 101.494C426.379 102.874 427.548 100.918 427.077 101.78C426.666 102.537 426.268 103.292 425.889 104.059C425.096 105.693 424.386 107.357 423.757 109.055C423.165 110.661 422.639 112.296 422.185 113.946C422.094 114.27 422.008 114.596 421.923 114.923C422.18 113.916 421.914 114.987 421.864 115.242C421.674 116.127 421.481 117.006 421.32 117.896C420.781 120.888 420.611 123.85 420.493 126.875C420.436 128.238 420.375 125.767 420.494 127.093C420.515 127.346 420.524 127.6 420.544 127.858C420.627 128.937 420.769 130.014 420.934 131.083C421.318 133.563 421.892 136.017 422.581 138.439C425.115 147.381 429.193 155.867 431.797 164.8C441.354 197.591 438.041 236.292 415.474 263.949C404.136 277.844 386.354 292.214 366.372 287.797C347.366 283.601 332.257 267.401 329.745 249.348C328.382 239.595 330.251 229.478 335.403 220.881C339.616 213.855 347.173 207.459 355.976 206.369C366.262 205.092 375.428 211.428 378.809 220.366C382.55 230.243 379.509 240.402 374.863 249.521C367.136 264.69 356.764 280.242 340.373 288.241C325.871 295.316 307.822 294.225 293.205 288.057C278.819 281.995 266.025 270.893 260.918 256.639C257.752 247.8 257.907 238.658 257.989 229.445C258.06 221.222 257.749 212.872 253.119 205.677C253.465 206.214 252.762 205.181 252.686 205.075C252.391 204.662 252.091 204.259 251.772 203.86C251.146 203.061 250.484 202.293 249.789 201.548C248.375 200.042 247.605 199.347 245.809 197.988C242.231 195.282 239.279 193.709 235.268 192.191C227.246 189.143 218.457 188.32 209.391 189.249C200.356 190.177 190.981 192.679 183.549 197.329C175.472 202.377 168.349 208.995 159.13 212.279C140.209 219.012 117.41 211.541 103.408 198.762C96.9451 192.861 92.3044 185.11 91.2739 176.625C90.3931 169.331 91.9437 162.046 94.9015 155.293C97.9308 148.366 102.206 141.93 106.522 135.654C108.638 132.576 110.79 129.512 112.874 126.411C113.905 124.879 114.917 123.335 115.895 121.773C116.329 121.076 116.758 120.376 117.182 119.675C117.306 119.474 117.894 118.458 117.409 119.294C117.678 118.827 117.941 118.358 118.204 117.889C119.926 114.77 121.454 111.543 122.592 108.192C122.837 107.477 123.044 106.753 123.268 106.031C123.744 104.473 123.076 107.083 123.404 105.494C123.47 105.172 123.549 104.849 123.61 104.525C123.961 102.749 124.178 100.953 124.231 99.148C124.241 98.8171 124.239 98.4873 124.242 98.1594C124.265 96.5892 124.299 98.7486 124.233 97.8045C124.177 97.0537 124.108 96.304 124.003 95.5578C123.724 93.6338 123.285 91.8978 122.838 90.7335C121.44 87.108 120.275 85.3403 117.678 82.534C117.071 81.8807 116.434 81.2394 115.771 80.6333C116.409 81.2137 115.725 80.6001 115.618 80.5116C115.188 80.1674 114.771 79.8171 114.339 79.4777C112.879 78.3457 111.33 77.3155 109.72 76.3751C109.228 76.0926 108.733 75.8199 108.232 75.5453C108.105 75.4774 107.241 75.0558 108.044 75.4501C107.181 75.0286 106.31 74.6265 105.421 74.2518C103.534 73.4516 101.598 72.7565 99.6319 72.1624C93.0184 70.1676 84.5435 69.3618 77.5067 70.0762C59.9832 71.8618 43.2797 78.2365 25.591 78.8975C16.434 79.2357 7.41582 78.0843 -1.09203 74.768C-3.9308 73.6596 -5.49464 70.6274 -4.37091 67.8795C-3.29095 65.2385 0.132085 63.6953 2.98123 64.8074Z" fill="#82DBD4"/>
<path opacity="0.85" d="M3.4762 81.2023C21.4382 77.3837 24.5512 78.6195 34.0952 93.3819C30.0184 76.5499 31.3386 73.636 47.0905 64.6922C29.1297 68.5135 26.0184 67.2739 16.4727 52.5153C20.5512 69.3435 19.2293 72.2613 3.4762 81.2023ZM401.386 232.405C416.073 229.281 418.615 230.295 426.419 242.36C423.087 228.602 424.167 226.218 437.045 218.906C422.361 222.028 419.817 221.019 412.012 208.95C415.345 222.711 414.267 225.092 401.386 232.405Z" fill="white"/>
<path opacity="0.85" d="M180.648 196.202C198.61 192.384 201.723 193.619 211.267 208.382C207.19 191.55 208.51 188.636 224.262 179.692C206.302 183.514 203.19 182.274 193.645 167.515C197.723 184.344 196.401 187.261 180.648 196.202ZM578.558 347.405C593.245 344.281 595.787 345.295 603.591 357.36C600.259 343.602 601.339 341.218 614.217 333.906C599.532 337.028 596.989 336.019 589.184 323.95C592.517 337.711 591.439 340.092 578.558 347.405Z" fill="white"/>
<g opacity="0.85" filter="url(#filter0_d_3277_4611)">
<path d="M189.991 5.22392C188.358 3.76244 187.76 1.52803 188.548 -0.454346C189.163 -2.00032 190.162 -3.79799 191.793 -5.51322C193.752 -7.57539 195.958 -8.8232 197.829 -9.57757C199.941 -10.43 202.39 -10.0015 204.05 -8.51151L227.029 12.1111C228.888 13.7761 229.346 16.4024 228.128 18.523C227.39 19.8086 226.4 21.2105 225.081 22.5892C223.331 24.413 221.469 25.7144 219.803 26.6383C217.61 27.8532 214.815 27.5061 212.976 25.8544L189.991 5.22392ZM196.292 40.2658C200.61 41.8651 205.029 42.6142 209.531 42.5236C211.858 42.4759 214.155 42.2028 216.415 41.6934C216.871 41.588 217.324 41.4765 217.782 41.3595C219.42 40.9195 221.047 40.3599 222.656 39.6696C226.893 37.8645 230.765 35.2374 234.282 31.7983C237.837 28.3237 240.484 24.5712 242.207 20.544C242.862 19.0216 243.385 17.482 243.775 15.9325C243.847 15.6441 243.91 15.3625 243.969 15.0717C244.479 12.81 244.7 10.5091 244.648 8.17024C244.552 3.95257 243.563 -0.149753 241.672 -4.12271C239.783 -8.09263 236.986 -11.7399 233.272 -15.0753C229.56 -18.4047 225.541 -20.873 221.228 -22.4704C216.911 -24.0666 212.497 -24.8109 207.99 -24.7252C203.483 -24.6291 199.105 -23.7025 194.87 -21.9368C190.631 -20.17 186.724 -17.5471 183.173 -14.0738C179.611 -10.5895 176.985 -6.82067 175.287 -2.78135C173.582 1.26042 172.782 5.40077 172.874 9.62393C172.978 13.8495 173.961 17.947 175.847 21.9181C177.737 25.8911 180.559 29.5607 184.322 32.938C187.985 36.2256 191.975 38.6696 196.292 40.2658ZM550.493 262.322C551.381 260.379 553.405 259.069 555.661 259.066C557.423 259.063 559.571 259.309 561.857 260.135C564.607 261.131 566.625 262.63 568.036 264.006C569.63 265.56 570.061 267.861 569.154 269.839L556.603 297.235C555.591 299.45 553.129 300.774 550.581 300.45C549.037 300.251 547.293 299.877 545.449 299.201C543.011 298.309 541.058 297.128 539.547 295.991C537.566 294.492 536.936 291.92 537.938 289.726L550.493 262.322ZM517.682 280.144C517.598 284.494 518.399 288.632 520.07 292.55C520.933 294.578 522.013 296.496 523.314 298.299C523.577 298.665 523.848 299.021 524.124 299.383C525.142 300.668 526.271 301.896 527.525 303.066C530.819 306.152 534.804 308.629 539.473 310.509C544.195 312.407 548.871 313.412 553.499 313.51C555.255 313.551 556.975 313.469 558.661 313.272C558.975 313.231 559.279 313.186 559.589 313.136C562.03 312.791 564.406 312.177 566.723 311.311C570.905 309.745 574.658 307.438 577.967 304.389C581.274 301.336 583.938 297.606 585.965 293.174C587.991 288.749 589.049 284.359 589.13 280.014C589.214 275.665 588.409 271.535 586.742 267.608C585.063 263.686 582.6 260.17 579.355 257.073C576.097 253.975 572.107 251.467 567.389 249.571C562.657 247.669 557.968 246.687 553.34 246.614C548.697 246.535 544.28 247.286 540.089 248.848C535.907 250.42 532.154 252.72 528.847 255.772C525.538 258.822 522.862 262.585 520.806 267.071C518.805 271.44 517.764 275.799 517.682 280.144Z" fill="white"/>
</g>
<g opacity="0.85" filter="url(#filter1_d_3277_4611)">
<path d="M36.1899 228.145L35.9975 227.93C30.149 221.369 24.2704 214.796 18.4182 208.234C18.2807 208.095 18.1519 207.936 18.0371 207.806L16.5599 206.147C15.4852 204.948 16.2102 203.115 17.8208 202.838L49.2319 197.301C50.4993 197.135 51.7374 197.608 52.4985 198.541C53.5481 199.864 53.0299 201.371 52.9909 201.519C52.9482 201.613 52.9156 201.682 52.8743 201.772L41.632 229.528C41.0525 230.985 39.0103 231.305 37.9356 230.106L36.1899 228.145ZM296.837 319.103L296.644 318.889C290.792 312.326 284.917 305.755 279.067 299.189C278.928 299.054 278.797 298.89 278.684 298.764L277.208 297.102C276.128 295.905 276.857 294.074 278.468 293.796L309.875 288.259C311.148 288.09 312.386 288.564 313.145 289.5C314.195 290.823 313.673 292.329 313.638 292.478C313.595 292.571 313.563 292.64 313.521 292.731L302.279 320.487C301.696 321.942 299.659 322.26 298.583 321.065L296.837 319.103Z" fill="#F2EEE9"/>
</g>
<g filter="url(#filter2_d_3277_4611)">
<rect x="381" y="12" width="50" height="50" rx="25" fill="black" fill-opacity="0.25" shape-rendering="crispEdges"/>
<path fill-rule="evenodd" clip-rule="evenodd" d="M405.174 24.86C404.714 25.4597 404.196 26.386 403.442 27.737L403.061 28.4218L402.992 28.5455C402.642 29.1755 402.344 29.7098 401.867 30.0715C401.385 30.4378 400.797 30.5697 400.114 30.7236L399.981 30.754L399.239 30.922C397.775 31.2533 396.777 31.4808 396.096 31.7503C395.43 32.0117 395.29 32.2275 395.236 32.399C395.179 32.581 395.178 32.8598 395.574 33.4922C395.979 34.1338 396.662 34.9342 397.658 36.1008L398.164 36.6923L398.252 36.7938C398.722 37.3421 399.114 37.7995 399.294 38.3782C399.472 38.9533 399.413 39.5565 399.34 40.2892L399.329 40.4256L399.252 41.2155C399.1 42.7695 399 43.8405 399.033 44.6105C399.068 45.3805 399.231 45.5928 399.36 45.6908C399.474 45.7783 399.687 45.874 400.379 45.6756C401.082 45.475 402.018 45.0468 403.389 44.4156L404.084 44.096L404.211 44.0377C404.847 43.7425 405.398 43.4881 406 43.4881C406.602 43.4881 407.152 43.7425 407.788 44.0365C407.83 44.0569 407.873 44.0763 407.916 44.0948L408.611 44.4156C409.981 45.0468 410.917 45.475 411.621 45.6756C412.312 45.874 412.525 45.7783 412.639 45.6908C412.769 45.5928 412.931 45.3793 412.966 44.6105C413.001 43.8405 412.898 42.7695 412.748 41.2155L412.671 40.4256L412.659 40.2892C412.587 39.5565 412.527 38.9533 412.706 38.3782C412.885 37.7995 413.277 37.3421 413.747 36.7938L413.835 36.6923L414.341 36.1008C415.338 34.9342 416.02 34.1338 416.424 33.4922C416.822 32.8598 416.82 32.5822 416.763 32.399C416.71 32.2275 416.57 32.0117 415.903 31.7503C415.221 31.4808 414.225 31.2533 412.76 30.922L412.018 30.754C411.973 30.7423 411.929 30.733 411.885 30.7236C411.202 30.5697 410.614 30.4378 410.132 30.0715C409.654 29.7098 409.358 29.1767 409.007 28.5455L408.94 28.4218L408.557 27.737C407.803 26.386 407.285 25.4597 406.826 24.86C406.367 24.2603 406.133 24.209 406 24.209C405.867 24.209 405.632 24.2603 405.174 24.86ZM403.785 23.796C404.339 23.0703 405.027 22.459 406 22.459C406.973 22.459 407.659 23.0703 408.215 23.796C408.761 24.51 409.341 25.5495 410.049 26.82L410.468 27.5702C410.925 28.3915 411.043 28.5665 411.19 28.6785C411.33 28.7847 411.513 28.8453 412.403 29.0472L413.22 29.2315C414.592 29.5418 415.723 29.7973 416.545 30.1217C417.399 30.4588 418.147 30.9547 418.435 31.8798C418.72 32.7957 418.4 33.638 417.905 34.4232C417.425 35.1873 416.657 36.0857 415.719 37.1823L415.165 37.8298C414.562 38.5345 414.436 38.7072 414.376 38.8973C414.317 39.0921 414.321 39.3173 414.414 40.2565L414.496 41.1175C414.639 42.5828 414.754 43.7775 414.713 44.6875C414.673 45.615 414.463 46.504 413.698 47.085C412.919 47.6753 412.013 47.61 411.138 47.358C410.289 47.1153 409.232 46.6288 407.949 46.0373L407.184 45.685C406.346 45.3 406.168 45.2381 406 45.2381C405.832 45.2381 405.653 45.3 404.815 45.685L404.051 46.0373C402.767 46.6288 401.71 47.1153 400.862 47.358C399.987 47.6088 399.08 47.6753 398.302 47.085C397.537 46.504 397.327 45.615 397.286 44.6887C397.245 43.7787 397.36 42.5828 397.503 41.1187L397.587 40.2565C397.678 39.3161 397.682 39.0921 397.622 38.8973C397.563 38.7072 397.437 38.5357 396.834 37.8298L396.28 37.1823C395.343 36.0857 394.576 35.1873 394.095 34.4243C393.599 33.638 393.279 32.7957 393.564 31.8798C393.852 30.9547 394.6 30.4588 395.454 30.1217C396.277 29.7973 397.407 29.5418 398.779 29.2315L398.853 29.2152L399.595 29.0472C400.486 28.8453 400.668 28.7847 400.809 28.6773C400.956 28.5665 401.074 28.3915 401.532 27.5702L401.95 26.82C402.658 25.5483 403.238 24.51 403.784 23.796H403.785Z" fill="white"/>
</g>
<defs>
<filter id="filter0_d_3277_4611" x="172.867" y="-24.7324" width="425.214" height="349.432" filterUnits="userSpaceOnUse" color-interpolation-filters="sRGB">
<feFlood flood-opacity="0" result="BackgroundImageFix"/>
<feColorMatrix in="SourceAlpha" type="matrix" values="0 0 0 0 0 0 0 0 0 0 0 0 0 0 0 0 0 0 127 0" result="hardAlpha"/>
<feOffset dx="8.94426" dy="11.1803"/>
<feComposite in2="hardAlpha" operator="out"/>
<feColorMatrix type="matrix" values="0 0 0 0 0.941176 0 0 0 0 0.54902 0 0 0 0 0.0117647 0 0 0 1 0"/>
<feBlend mode="normal" in2="BackgroundImageFix" result="effect1_dropShadow_3277_4611"/>
<feBlend mode="normal" in="SourceGraphic" in2="effect1_dropShadow_3277_4611" result="shape"/>
</filter>
<filter id="filter1_d_3277_4611" x="16.0508" y="197.268" width="306.69" height="135.712" filterUnits="userSpaceOnUse" color-interpolation-filters="sRGB">
<feFlood flood-opacity="0" result="BackgroundImageFix"/>
<feColorMatrix in="SourceAlpha" type="matrix" values="0 0 0 0 0 0 0 0 0 0 0 0 0 0 0 0 0 0 127 0" result="hardAlpha"/>
<feOffset dx="8.94426" dy="11.1803"/>
<feComposite in2="hardAlpha" operator="out"/>
<feColorMatrix type="matrix" values="0 0 0 0 0.941176 0 0 0 0 0.54902 0 0 0 0 0.0117647 0 0 0 1 0"/>
<feBlend mode="normal" in2="BackgroundImageFix" result="effect1_dropShadow_3277_4611"/>
<feBlend mode="normal" in="SourceGraphic" in2="effect1_dropShadow_3277_4611" result="shape"/>
</filter>
<filter id="filter2_d_3277_4611" x="378" y="11" width="64" height="64" filterUnits="userSpaceOnUse" color-interpolation-filters="sRGB">
<feFlood flood-opacity="0" result="BackgroundImageFix"/>
<feColorMatrix in="SourceAlpha" type="matrix" values="0 0 0 0 0 0 0 0 0 0 0 0 0 0 0 0 0 0 127 0" result="hardAlpha"/>
<feOffset dx="4" dy="6"/>
<feGaussianBlur stdDeviation="3.5"/>
<feComposite in2="hardAlpha" operator="out"/>
<feColorMatrix type="matrix" values="0 0 0 0 0.286275 0 0 0 0 0.243137 0 0 0 0 0.513726 0 0 0 0.1237 0"/>
<feBlend mode="normal" in2="BackgroundImageFix" result="effect1_dropShadow_3277_4611"/>
<feBlend mode="normal" in="SourceGraphic" in2="effect1_dropShadow_3277_4611" result="shape"/>
</filter>
</defs>
</svg>
